<!-- Generator: Adobe Illustrator 23.0.4, SVG Export Plug-In  -->
<svg version="1.1" xmlns="http://www.w3.org/2000/svg" xmlns:xlink="http://www.w3.org/1999/xlink" x="0px" y="0px" width="157.2px"
	 height="35px" viewBox="0 0 157.2 35" style="enable-background:new 0 0 157.2 35;" xml:space="preserve">
<style type="text/css">
	.st0{fill:#FFFFFF;}
	.st1{opacity:0.5;fill:#FFFFFF;enable-background:new    ;}
</style>
<defs>
</defs>
<g>
	<g>
		<g>
			<path class="st0" d="M49.7,25.3c-0.9-0.5-1.6-1.2-2.2-2.1c-0.6-0.9-0.8-1.9-0.8-3.1c0-1.1,0.3-2.2,0.8-3.1c0.5-0.9,1.2-1.6,2-2.2
				c0.9-0.5,1.9-0.8,3-0.8c1.1,0,2,0.3,2.8,0.8c0.8,0.5,1.4,1.1,1.8,2c0.5,0.9,0.7,1.9,0.7,3c0,0.3-0.1,0.5-0.3,0.7
				c-0.2,0.2-0.5,0.3-0.7,0.3h-8.2c0.2,1,0.6,1.8,1.4,2.5s1.7,0.9,2.8,0.9c0.4,0,0.9-0.1,1.3-0.3c0.5-0.2,0.9-0.3,1.2-0.6
				c0.2-0.2,0.4-0.3,0.7-0.3c0.3,0,0.5,0.1,0.7,0.3c0.3,0.2,0.4,0.5,0.4,0.7c0,0.3-0.2,0.5-0.4,0.6c-0.5,0.4-1.1,0.7-1.8,1
				c-0.7,0.3-1.4,0.4-2,0.4C51.7,26,50.6,25.8,49.7,25.3z M54.9,16.8c-0.6-0.6-1.4-0.9-2.3-0.9c-1.1,0-1.9,0.3-2.6,0.9
				s-1.1,1.3-1.2,2.3h7.2C55.8,18.1,55.4,17.4,54.9,16.8z"/>
			<path class="st0" d="M61,25.7c-0.2-0.2-0.3-0.5-0.3-0.8v-9.6c0-0.3,0.1-0.6,0.3-0.8s0.5-0.3,0.8-0.3c0.4,0,0.6,0.1,0.8,0.3
				c0.2,0.2,0.3,0.5,0.3,0.8v0.3c0.5-0.5,1-0.8,1.6-1.1c0.7-0.3,1.3-0.4,2-0.4c1,0,1.8,0.2,2.7,0.6c0.8,0.5,1.4,1.1,1.8,1.9
				c0.5,0.8,0.7,1.8,0.7,3v5.3c0,0.4-0.1,0.6-0.3,0.8C71.2,25.9,71,26,70.7,26c-0.4,0-0.6-0.1-0.8-0.3c-0.2-0.2-0.3-0.5-0.3-0.8
				v-5.3c0-1.1-0.3-2-0.9-2.6C68,16.3,67.2,16,66.1,16c-0.6,0-1.1,0.2-1.6,0.4c-0.5,0.2-0.9,0.6-1.1,1c-0.3,0.4-0.5,0.9-0.5,1.4v6
				c0,0.4-0.1,0.6-0.3,0.8c-0.2,0.2-0.5,0.3-0.8,0.3C61.5,26,61.2,25.9,61,25.7z"/>
			<path class="st0" d="M78.8,25.8c-0.2-0.1-0.3-0.3-0.5-0.6l-4.6-9.6c-0.1-0.2-0.1-0.3-0.1-0.4c0-0.4,0.2-0.7,0.6-0.9
				c0.2-0.1,0.3-0.1,0.5-0.1c0.2,0,0.4,0.1,0.5,0.1c0.2,0.1,0.3,0.3,0.4,0.4l3.7,8.1l3.7-8.1c0.1-0.2,0.2-0.3,0.4-0.4
				c0.2-0.1,0.3-0.1,0.5-0.1c0.2,0,0.4,0,0.5,0.1c0.2,0.1,0.3,0.2,0.4,0.4C85,14.9,85,15,85,15.2c0,0.1-0.1,0.3-0.1,0.4l-4.6,9.6
				c-0.2,0.5-0.6,0.7-1,0.7C79.1,25.9,78.9,25.9,78.8,25.8z"/>
			<path class="st0" d="M87.7,25.6c-0.2-0.2-0.3-0.5-0.3-0.8v-9.6c0-0.3,0.1-0.6,0.3-0.8c0.2-0.2,0.5-0.3,0.8-0.3
				c0.4,0,0.6,0.1,0.8,0.3s0.3,0.5,0.3,0.8v9.6c0,0.3-0.1,0.6-0.3,0.8c-0.2,0.2-0.5,0.3-0.8,0.3C88.1,25.9,87.9,25.8,87.7,25.6z
				 M87.5,11.8c-0.3-0.3-0.4-0.6-0.4-1c0-0.4,0.1-0.7,0.4-1c0.3-0.3,0.6-0.4,1-0.4c0.4,0,0.7,0.2,1,0.4c0.3,0.3,0.4,0.6,0.4,1
				c0,0.4-0.2,0.7-0.4,1c-0.3,0.3-0.6,0.5-1,0.5C88.1,12.3,87.7,12.1,87.5,11.8z"/>
			<path class="st0" d="M95.7,25.3c-0.8-0.5-1.5-1.2-1.9-2.2c-0.5-0.9-0.7-1.9-0.7-3c0-1.1,0.3-2.2,0.8-3c0.5-0.9,1.2-1.6,2.1-2.2
				c0.9-0.5,1.9-0.8,3-0.8c1.1,0,2.1,0.3,3,0.8c0.9,0.6,1.6,1.3,2.1,2.2c0.6,0.9,0.8,1.9,0.8,3v4.8c0,0.4-0.1,0.6-0.3,0.8
				c-0.2,0.2-0.5,0.3-0.8,0.3c-0.3,0-0.6-0.1-0.8-0.3c-0.2-0.2-0.3-0.5-0.3-0.8v-0.8c-0.5,0.6-1.1,1.1-1.8,1.4S99.4,26,98.5,26
				C97.5,26,96.6,25.8,95.7,25.3z M100.9,23.6c0.6-0.4,1.1-0.8,1.4-1.4c0.3-0.6,0.5-1.3,0.5-2c0-0.8-0.2-1.4-0.5-2
				c-0.3-0.6-0.8-1.1-1.4-1.5c-0.6-0.4-1.2-0.5-1.9-0.5s-1.3,0.2-1.9,0.5c-0.6,0.4-1,0.9-1.4,1.5c-0.3,0.6-0.5,1.3-0.5,2
				c0,0.8,0.2,1.4,0.5,2c0.4,0.6,0.8,1.1,1.4,1.4c0.6,0.4,1.2,0.5,1.9,0.5S100.3,23.9,100.9,23.6z"/>
			<path class="st0" d="M107.7,25.8c-0.3-0.3-0.4-0.6-0.4-1s0.1-0.8,0.4-1.1c0.3-0.3,0.7-0.4,1.1-0.4s0.7,0.2,1,0.4
				c0.3,0.3,0.4,0.7,0.4,1.1s-0.1,0.8-0.4,1c-0.3,0.3-0.6,0.5-1,0.5S108,26.1,107.7,25.8z"/>
			<path class="st0" d="M115.5,25.3c-0.9-0.5-1.6-1.2-2.2-2.2s-0.8-1.9-0.8-3c0-1.1,0.3-2.2,0.8-3.1c0.5-0.9,1.2-1.6,2-2.2
				c0.9-0.5,1.9-0.8,3-0.8c1.7,0,3.1,0.7,4.2,1.9c0.2,0.2,0.3,0.4,0.3,0.6c0,0.3-0.2,0.6-0.5,0.8c-0.1,0.1-0.3,0.2-0.5,0.2
				c-0.4,0-0.6-0.1-0.9-0.4c-0.4-0.4-0.7-0.7-1.1-0.9c-0.5-0.2-0.9-0.3-1.5-0.3c-1.1,0-2,0.4-2.7,1.1c-0.7,0.7-1,1.7-1,2.9
				c0,0.8,0.2,1.5,0.5,2c0.3,0.6,0.8,1.1,1.3,1.4c0.6,0.4,1.3,0.5,2,0.5c1,0,1.8-0.3,2.4-0.7c0.3-0.2,0.6-0.3,0.8-0.3
				c0.2,0,0.4,0.1,0.6,0.2c0.3,0.3,0.4,0.5,0.4,0.8c0,0.2-0.1,0.4-0.3,0.6c-1,1-2.4,1.4-3.9,1.4C117.4,26,116.4,25.8,115.5,25.3z"/>
			<path class="st0" d="M128.4,25.3c-0.9-0.5-1.6-1.2-2.1-2.1c-0.5-0.9-0.7-1.9-0.7-3.1c0-1.2,0.2-2.2,0.7-3.1
				c0.5-0.9,1.2-1.6,2.1-2.1c0.9-0.5,1.9-0.8,3.1-0.8s2.2,0.3,3.1,0.8c0.9,0.5,1.6,1.2,2.1,2.1c0.5,0.9,0.8,1.9,0.8,3.1
				c0,1.1-0.3,2.2-0.8,3.1c-0.5,0.9-1.2,1.6-2.1,2.1c-0.9,0.5-1.9,0.8-3.1,0.8C130.4,26,129.3,25.8,128.4,25.3z M133.5,23.6
				c0.6-0.4,1-0.8,1.3-1.4c0.4-0.6,0.5-1.3,0.5-2c0-0.8-0.2-1.5-0.5-2.1c-0.3-0.6-0.8-1.1-1.3-1.4c-0.6-0.4-1.2-0.5-2-0.5
				c-0.7,0-1.4,0.2-1.9,0.5c-0.6,0.4-1,0.8-1.4,1.4c-0.3,0.6-0.5,1.3-0.5,2.1c0,0.8,0.2,1.5,0.5,2c0.4,0.6,0.8,1.1,1.4,1.4
				c0.6,0.4,1.2,0.5,1.9,0.5C132.3,24.1,132.9,23.9,133.5,23.6z"/>
			<path class="st0" d="M141,25.7c-0.3-0.2-0.4-0.5-0.4-0.8v-9.5c0-0.4,0.1-0.6,0.4-0.8c0.2-0.2,0.5-0.3,0.8-0.3
				c0.3,0,0.6,0.1,0.8,0.3s0.3,0.5,0.3,0.8c0.4-0.4,0.8-0.7,1.3-0.9c0.5-0.2,1.1-0.3,1.7-0.3c0.7,0,1.4,0.2,1.9,0.4
				c0.6,0.3,1.1,0.7,1.4,1.3c0.5-0.5,1-0.9,1.6-1.2c0.6-0.3,1.3-0.5,2.2-0.5c1.2,0,2.3,0.4,3,1.2c0.8,0.8,1.1,1.9,1.1,3.4v6.1
				c0,0.4-0.1,0.6-0.3,0.8c-0.2,0.2-0.5,0.3-0.8,0.3c-0.4,0-0.6-0.1-0.8-0.3c-0.2-0.2-0.3-0.5-0.3-0.8v-6.1c0-0.9-0.2-1.5-0.7-1.9
				c-0.4-0.5-1-0.7-1.7-0.7c-0.7,0-1.3,0.3-1.8,0.8c-0.5,0.5-0.7,1.1-0.7,1.9v6c0,0.4-0.1,0.6-0.3,0.8c-0.2,0.2-0.5,0.3-0.8,0.3
				s-0.6-0.1-0.8-0.3c-0.2-0.2-0.3-0.5-0.3-0.8v-6.1c0-0.9-0.3-1.5-0.7-1.9c-0.5-0.5-1-0.7-1.7-0.7c-0.8,0-1.4,0.3-1.9,0.8
				c-0.5,0.5-0.7,1.1-0.7,1.9v6c0,0.4-0.1,0.6-0.3,0.8c-0.2,0.2-0.5,0.3-0.8,0.3C141.5,26,141.2,25.9,141,25.7z"/>
		</g>
	</g>
	<g>
		<path class="st1" d="M25.8,28l-0.5-5.4L27,9.7c0-0.1,0.1-0.3,0.3-0.4C27.6,9.1,27.8,9,28.1,9c0.1,0,0.3,0.2,0.3,0.4l0.8,8.9
			l-1.8,9.3l0,0c0,0.1-0.1,0.4-0.3,0.5c-0.3,0.3-0.6,0.4-0.8,0.4C26,28.4,25.8,28.3,25.8,28z"/>
		<path class="st1" d="M19.2,27.1l-0.5-1.8l0.7-9c0-0.1,0.1-0.4,0.3-0.5c0.1-0.1,0.3-0.3,0.5-0.4c0.3,0.1,0.5,0.3,0.5,0.5l1.1,4.1
			l-0.9,6.7v0c0,0.1-0.1,0.3-0.3,0.4c-0.2,0.3-0.5,0.4-0.8,0.5C19.5,27.6,19.3,27.4,19.2,27.1z"/>
		<path class="st1" d="M13,26.2l-0.8-1.4l0.5-4.2c0-0.1,0.1-0.3,0.2-0.4c0.2-0.1,0.4-0.3,0.6-0.3c0.3,0,0.5,0.2,0.6,0.4l0.8,1.4
			l-0.3,4v0c0,0.1-0.1,0.2-0.3,0.3c-0.2,0.3-0.5,0.4-0.8,0.4C13.4,26.5,13.1,26.4,13,26.2z M12.7,20.6L12.7,20.6L12.7,20.6
			L12.7,20.6z"/>
		<path class="st0" d="M8.7,31.2c0-2,1.7-3.7,3.7-3.7c2,0,3.7,1.6,3.7,3.7s-1.7,3.7-3.7,3.7C10.3,34.9,8.7,33.3,8.7,31.2z"/>
		<path class="st0" d="M22.2,32.1c0-1.5,1.3-2.8,2.9-2.8c1.6,0,2.8,1.3,2.8,2.8c0,1.6-1.2,2.9-2.8,2.9C23.5,35,22.2,33.7,22.2,32.1z
			"/>
		<path class="st0" d="M11.6,26.4l-3-0.5l-0.5,0l0,0l-0.2,0l0,0l-0.7-0.1c0.2,0,0.5-0.1,0.6-0.3c0.1-0.1,0.1-0.2,0.2-0.4l0,0
			l0.6-5.5c0-0.3,0.3-0.5,0.6-0.5l0.4,0l3.1,0.6l0,0l0.3,0l0,0l0.7,0.1c-0.2,0-0.4,0.1-0.6,0.3c-0.1,0.1-0.1,0.3-0.2,0.4L12.1,26
			C12.1,26.3,11.8,26.5,11.6,26.4z M12.7,20.6L12.7,20.6L12.7,20.6L12.7,20.6z"/>
		<path class="st0" d="M18.1,27.4L18.1,27.4l-3.5-0.6l0,0l-1-0.1c0.3,0,0.6-0.1,0.8-0.4c0.1-0.1,0.2-0.2,0.3-0.3v0l0.8-10.7
			c0-0.3,0.3-0.5,0.6-0.5h0l4.2,0.8l0,0c-0.1,0.1-0.3,0.2-0.5,0.4c-0.1,0.1-0.2,0.3-0.3,0.5l-0.8,10.6
			C18.6,27.2,18.3,27.4,18.1,27.4z"/>
		<path class="st0" d="M24.3,28.2l-3.6-0.5l-1-0.1c0.3,0,0.6-0.2,0.8-0.5c0.1-0.1,0.2-0.3,0.3-0.4v0l2.5-18.4c0-0.1,0-0.3,0.1-0.3
			C23.6,8,23.8,8,23.9,8c0,0,0,0,0.1,0l0,0l3.2,0.7l0,0L28.1,9c-0.3,0-0.6,0.1-0.8,0.4c-0.1,0.1-0.3,0.3-0.3,0.4l-2.5,18.1
			C24.6,28,24.4,28.1,24.3,28.2L24.3,28.2z"/>
		<path class="st0" d="M31,29.3l-3.8-0.6l0,0l-1-0.2c0.3,0,0.6-0.1,0.9-0.4c0.1-0.1,0.3-0.3,0.3-0.5l0,0l5.4-27.1
			c0-0.1,0-0.2,0.1-0.3c0.1-0.1,0.4-0.3,0.6-0.3L38,0.6c-0.3,0-0.6,0.1-0.8,0.4c-0.1,0.1-0.3,0.3-0.3,0.5l-5.5,27.5
			C31.3,29.1,31.1,29.3,31,29.3L31,29.3z"/>
		<path class="st1" d="M39.5,6.1l-3.4-0.9l0.8-3.8c0-0.2,0.1-0.4,0.3-0.5c0.2-0.2,0.5-0.3,0.8-0.4c0.2,0,0.4,0.2,0.5,0.4l1.4,4.8
			c0,0.2,0,0.4-0.3,0.4H39.5z"/>
		<path class="st1" d="M6.6,25.5L0,12.5c-0.2-0.4,0.4-0.9,0.8-0.9l5,0.8l0,0l4,0.6l-1.2,3.2l-1.5-0.2l-1.5-0.1L7.5,20l0.8,1.9
			L8,25.1l0,0c0,0.1-0.1,0.3-0.2,0.4c-0.1,0.2-0.4,0.3-0.6,0.3C6.9,25.7,6.6,25.6,6.6,25.5z"/>
		<path class="st0" d="M2,16.3L0,12.5c-0.2-0.4,0.4-0.9,0.8-0.9l5,0.8l0,0l4,0.6l-1.2,3.2l-1.5-0.2l-1.5-0.1c0,0-2-0.2-2.7-0.3
			C1.9,15.3,2,16.3,2,16.3z"/>
	</g>
</g>
</svg>
