<svg xmlns="http://www.w3.org/2000/svg" aria-hidden="true" focusable="false" data-prefix="fas" data-icon="plus-circle" role="img" width="512" height="512"><rect id="backgroundrect" width="100%" height="100%" x="0" y="0" fill="none" stroke="none"/><g class="currentLayer" style=""><title>Layer 1</title><path fill="#b6b6b6" d="M255.056604141886,95.4213798046112 C167.91331694238693,95.4213798046112 97.30817183914314,164.0560434846195 97.30817183914314,248.76729505363875 s70.60514510324379,153.34591524902754 157.74843230274286,153.34591524902754 s157.74843230274286,-68.63466368000829 157.74843230274286,-153.34591524902754 S342.19989134138507,95.4213798046112 255.056604141886,95.4213798046112 zm91.59586391772166,170.6591637448855 c0,4.080980002595087 -3.4348448969145626,7.419963641081978 -7.632988659810138,7.419963641081978 h-58.51957972521106 v56.88638791496183 c0,4.080980002595087 -3.4348448969145626,7.419963641081978 -7.632988659810138,7.419963641081978 h-35.620613745780645 c-4.198143762895576,0 -7.632988659810138,-3.3389836384868903 -7.632988659810138,-7.419963641081978 v-56.88638791496183 h-58.51957972521106 c-4.198143762895576,0 -7.632988659810138,-3.3389836384868903 -7.632988659810138,-7.419963641081978 v-34.6264969917159 c0,-4.080980002595087 3.4348448969145626,-7.419963641081978 7.632988659810138,-7.419963641081978 h58.51957972521106 v-56.88638791496183 c0,-4.080980002595087 3.4348448969145626,-7.419963641081978 7.632988659810138,-7.419963641081978 h35.620613745780645 c4.198143762895576,0 7.632988659810138,3.3389836384868903 7.632988659810138,7.419963641081978 v56.88638791496183 h58.51957972521106 c4.198143762895576,0 7.632988659810138,3.3389836384868903 7.632988659810138,7.419963641081978 v34.6264969917159 z" id="svg_1" class="" fill-opacity="1"/></g></svg>