<!-- Generator: Adobe Illustrator 23.0.4, SVG Export Plug-In  -->
<svg version="1.1" xmlns="http://www.w3.org/2000/svg" xmlns:xlink="http://www.w3.org/1999/xlink" x="0px" y="0px" width="258px"
	 height="229.3px" viewBox="0 0 258 229.3" style="enable-background:new 0 0 258 229.3;" xml:space="preserve">
<style type="text/css">
	.st0{opacity:0.3;fill:#E15038;}
	.st1{fill:#E15038;}
</style>
<defs>
</defs>
<g>
	<path class="st0" d="M255.1,197.1L147.6,10.7c-8.3-14.3-29-14.3-37.2,0L2.9,197.1c-8.3,14.3,2.1,32.2,18.6,32.2h214.9
		C253,229.3,263.4,211.4,255.1,197.1z M129,200.7c-7.9,0-14.3-6.4-14.3-14.3S121.1,172,129,172s14.3,6.4,14.3,14.3
		S136.9,200.7,129,200.7z M146.1,93.9l-5.7,57.3c-0.4,3.7-3.4,6.5-7.1,6.5h-8.5c-3.7,0-6.8-2.8-7.1-6.5l-5.7-57.3
		c-0.4-3.9,2.5-7.4,6.4-7.8c0.2,0,0.5,0,0.7,0h20c4,0,7.2,3.2,7.2,7.2C146.2,93.4,146.1,93.6,146.1,93.9L146.1,93.9z"/>
	<path class="st1" d="M139,86h-20c-4,0-7.2,3.2-7.2,7.2c0,0.2,0,0.5,0,0.7l5.7,57.3c0.4,3.7,3.4,6.5,7.1,6.5h8.5
		c3.7,0,6.8-2.8,7.1-6.5l5.7-57.3c0.4-3.9-2.5-7.4-6.4-7.8C139.5,86,139.2,86,139,86z M129,172c-7.9,0-14.3,6.4-14.3,14.3
		s6.4,14.3,14.3,14.3s14.3-6.4,14.3-14.3S136.9,172,129,172z"/>
</g>
</svg>
