<?xml version="1.0" encoding="utf-8"?>
<!-- Generator: Adobe Illustrator 23.0.4, SVG Export Plug-In . SVG Version: 6.00 Build 0)  -->
<svg version="1.1" id="Capa_1" xmlns="http://www.w3.org/2000/svg" xmlns:xlink="http://www.w3.org/1999/xlink" x="0px" y="0px"
	 viewBox="0 0 153.1 24.2" style="enable-background:new 0 0 153.1 24.2;" xml:space="preserve">
<style type="text/css">
	.st0{fill:#FFFFFF;}
</style>
<g>
	<path class="st0" d="M16.9,18.1v5.7H0V0.1h16.6v5.7H6.5v3.3h8.6v5.3H6.5v3.7H16.9z"/>
	<path class="st0" d="M19.1,11.8c0-1.4,0.3-2.9,0.8-4.3s1.3-2.7,2.4-3.8c1-1.1,2.3-2,3.8-2.7s3.2-1,5.1-1c2.3,0,4.3,0.5,6,1.4
		s2.9,2.2,3.8,3.8l-5,3.5c-0.2-0.6-0.5-1.1-0.9-1.4c-0.4-0.4-0.8-0.7-1.2-0.9c-0.4-0.2-0.9-0.4-1.4-0.5c-0.5-0.1-0.9-0.1-1.4-0.1
		c-0.9,0-1.7,0.2-2.4,0.5s-1.2,0.8-1.7,1.4c-0.4,0.6-0.8,1.3-1,2c-0.2,0.7-0.3,1.5-0.3,2.2c0,0.8,0.1,1.6,0.4,2.4
		c0.2,0.8,0.6,1.4,1.1,2c0.5,0.6,1,1,1.7,1.4c0.7,0.3,1.4,0.5,2.3,0.5c0.4,0,0.9,0,1.4-0.2c0.5-0.1,0.9-0.3,1.3-0.5
		c0.4-0.2,0.8-0.5,1.2-0.9c0.3-0.4,0.6-0.8,0.8-1.3l5.3,3.2c-0.4,0.9-0.9,1.6-1.6,2.3c-0.7,0.7-1.5,1.3-2.5,1.7s-1.9,0.8-3,1.1
		C33,23.9,32,24,31,24c-1.8,0-3.4-0.4-4.8-1.1s-2.7-1.6-3.8-2.8c-1.1-1.2-1.9-2.5-2.4-3.9S19.1,13.3,19.1,11.8z"/>
	<path class="st0" d="M49,24.1c-0.9,0-1.7-0.1-2.4-0.4c-0.8-0.3-1.4-0.7-2-1.2s-1-1.1-1.3-1.8c-0.3-0.7-0.5-1.4-0.5-2.2
		c0-0.9,0.2-1.7,0.6-2.4s0.9-1.4,1.6-1.9c0.7-0.5,1.5-0.9,2.4-1.2c0.9-0.3,1.9-0.4,3.1-0.4c1.4,0,2.6,0.2,3.5,0.7v-0.5
		c0-0.8-0.2-1.4-0.7-1.8c-0.5-0.4-1.3-0.6-2.3-0.6c-1,0-1.9,0.2-2.8,0.5c-0.8,0.3-1.7,0.8-2.7,1.4l-1.8-3.9c2.3-1.5,4.9-2.2,7.9-2.2
		c2.8,0,5,0.6,6.5,1.9s2.3,3.1,2.3,5.6v3.4c0,0.6,0.1,1,0.3,1.3c0.2,0.2,0.5,0.4,0.9,0.4v5.3c-0.5,0.1-1,0.2-1.4,0.2
		c-0.5,0.1-0.9,0.1-1.2,0.1c-1.1,0-2-0.2-2.6-0.6s-1-1-1.1-1.8l-0.1-0.6c-0.8,1-1.7,1.8-2.7,2.3C51.2,23.9,50.1,24.1,49,24.1z
		 M50.9,19.6c0.4,0,0.8-0.1,1.2-0.2s0.8-0.3,1.1-0.5c0.2-0.2,0.4-0.4,0.6-0.6c0.2-0.2,0.2-0.4,0.2-0.7v-1.3
		c-0.4-0.1-0.8-0.2-1.2-0.3c-0.4-0.1-0.8-0.1-1.2-0.1c-0.8,0-1.4,0.2-1.9,0.6c-0.5,0.4-0.8,0.9-0.8,1.4c0,0.5,0.2,0.9,0.6,1.2
		C49.8,19.4,50.3,19.6,50.9,19.6z"/>
	<path class="st0" d="M76.5,11.7c-1.2,0-2.3,0.1-3.3,0.4c-1,0.3-1.7,0.7-2.2,1.3v10.4h-6.3V6.3h5.8v3.3c0.6-1.2,1.4-2.1,2.3-2.7
		s1.9-0.9,3-0.9c0.4,0,0.7,0,0.8,0L76.5,11.7L76.5,11.7z"/>
	<path class="st0" d="M91.6,22.8c-0.9,0.4-1.8,0.7-2.9,0.9c-1,0.3-2,0.4-3,0.4c-0.7,0-1.4-0.1-2-0.3c-0.6-0.2-1.2-0.5-1.7-0.9
		c-0.5-0.4-0.9-0.9-1.1-1.6c-0.3-0.6-0.4-1.4-0.4-2.4v-8h-2.2V6.3h2.2V0.8h6.3v5.5h3.4V11h-3.4v5.8c0,0.6,0.1,1,0.4,1.2
		c0.2,0.2,0.6,0.4,1,0.4c0.3,0,0.7,0,1.1-0.2s0.8-0.2,1.2-0.4L91.6,22.8z"/>
	<path class="st0" d="M108.1,0.1h5.9l8.2,23.7h-6.6l-1.4-4.6h-6.3l-1.4,4.6h-6.6L108.1,0.1z M113.2,14.8l-2.1-7.3l-2.2,7.3H113.2z"
		/>
	<path class="st0" d="M125,23.8V0.1h10.2c1.2,0,2.2,0.2,3.2,0.7c1,0.5,1.8,1.1,2.5,1.9c0.7,0.8,1.3,1.6,1.6,2.6c0.4,1,0.6,2,0.6,3
		c0,1-0.2,2.1-0.6,3.1s-0.9,1.9-1.6,2.6c-0.7,0.8-1.5,1.4-2.5,1.8c-1,0.5-2,0.7-3.2,0.7h-3.9v7.3L125,23.8L125,23.8z M131.5,10.9
		h3.4c0.4,0,0.8-0.2,1.1-0.5c0.3-0.4,0.5-1,0.5-2c0-1-0.2-1.6-0.6-2c-0.4-0.4-0.8-0.5-1.2-0.5h-3.3V10.9z"/>
	<path class="st0" d="M146.6,23.8V0.1h6.5v23.7L146.6,23.8z"/>
</g>
</svg>
