<?xml version="1.0" encoding="utf-8"?>
<!-- Generator: Adobe Illustrator 23.0.4, SVG Export Plug-In . SVG Version: 6.00 Build 0)  -->
<svg version="1.1" id="Capa_1" xmlns="http://www.w3.org/2000/svg" xmlns:xlink="http://www.w3.org/1999/xlink" x="0px" y="0px"
	 viewBox="0 0 321.5 293" style="enable-background:new 0 0 321.5 293;" xml:space="preserve">
<style type="text/css">
	.st0{fill:#91B63D;}
	.st1{fill:#A4C053;}
	.st2{fill:#94BC3D;}
	.st3{fill:#658B3A;}
	.st4{fill:#FFFFFF;}
	.st5{fill:#804D82;}
	.st6{fill:#8C588E;}
	.st7{fill-rule:evenodd;clip-rule:evenodd;fill:#FFFFFF;}
	.st8{fill:#131922;}
	.st9{fill:#1D252E;}
	.st10{fill-rule:evenodd;clip-rule:evenodd;fill:#EE9B37;}
	.st11{fill:#DA1728;}
	.st12{fill:#C10015;}
	.st13{fill-rule:evenodd;clip-rule:evenodd;fill:#F8DEDF;}
	.st14{fill:#EEDD00;}
	.st15{fill:#E3CD00;}
	.st16{fill:#16326F;}
	.st17{fill:#F8E500;}
</style>
<g>
	<g>
		<path class="st0" d="M117.9,153c-7.6,4.4-15.3,8.8-22.9,13.2c3.9-2.4,6.2-7.3,6.2-14.2c0-12.9,0-25.8,0-38.6
			c0-14.2-10-31.5-22.3-38.6C60.1,63.9,41.2,53,22.3,42c-6-3.5-11.5-3.9-15.5-1.7c7.7-4.4,15.3-8.9,23-13.3c4-2.3,9.6-2,15.7,1.6
			c18.9,10.9,37.8,21.8,56.7,32.7c12.3,7.1,22.3,24.4,22.3,38.6c0,12.9,0,25.8,0,38.6C124.5,145.7,122,150.7,117.9,153z"/>
		<path class="st1" d="M101.2,113.3c0,12.9,0,25.8,0,38.6c0,6.9-2.4,11.8-6.2,14.2c-0.1,0.1-0.2,0.1-0.3,0.2c-4,2.3-9.6,2-15.7-1.6
			c-18.9-10.9-37.8-21.8-56.7-32.7L0,138.5c0-10.1,0-73.4,0-83.6c0-7.1,2.5-12.1,6.5-14.4c0.1,0,0.2-0.1,0.2-0.1
			c4-2.2,9.5-1.8,15.5,1.7C41.2,53,60.1,63.9,79,74.8C91.3,81.9,101.2,99.1,101.2,113.3z"/>
		<g>
			<path class="st2" d="M66.1,90.5c0-0.3-0.3-0.5-0.6-0.5c-0.2-0.1-4.3-1.1-4.3-1.1s-3.4-4-3.7-4.4c-0.3-0.4-1-0.6-1.3-0.5
				c0,0-0.7,0-1.7,0.2c-0.2-0.6-0.4-1.4-0.9-2.2c-1.1-2.5-3-4.3-5.2-4.8l0,0C48.2,77,48.1,77,48,77c0-0.2-0.2-0.2-0.2-0.4
				c-0.9-1.2-2.2-2-3.7-2.3c-2.8-0.5-5.7,0.8-7.9,3.8c-1.4,2.3-2.6,5.2-2.9,7.6c-3.1,0.3-5.4,0.5-5.4,0.5c-1.5,0.2-1.7,0.2-1.8,1.8
				c-0.1,1-2.7,33.6-2.7,33.6L56,134.1l14.2-1C70.2,133.3,66.1,90.8,66.1,90.5z M52.8,84.2c-0.9,0.1-1.7,0.2-2.7,0.3
				c0-1.5-0.1-3.5-0.9-5.2C51.4,80.1,52.4,82.6,52.8,84.2z M48.1,84.5c-1.9,0.1-3.9,0.3-5.9,0.5c0.6-2,1.7-4,3-5.1
				c0.6-0.4,1.2-0.9,2.1-1C48.1,80.7,48.1,83,48.1,84.5z M44.4,76.4c0.8,0.2,1.2,0.4,1.8,0.8c-0.7,0.2-1.5,0.6-2.2,1.2
				c-1.7,1.5-3.2,4.2-3.6,7c-1.7,0.2-3.3,0.3-4.9,0.4C36.3,81.4,40,75.4,44.4,76.4z"/>
			<g>
				<path class="st3" d="M65.6,89.9c-0.3-0.1-4.3-1.1-4.3-1.1s-3.4-4-3.7-4.4c-0.2-0.2-0.3-0.2-0.4-0.4L56,134.3l14.2-1
					c0,0-4.1-42.5-4.1-43C66,90.2,65.8,90,65.6,89.9z"/>
				<path class="st4" d="M48.6,93.9l-1.7,6.3c0,0-2-1.3-4.2-1.7c-3.5-0.6-3.5,1.7-3.5,2.3c0.2,3.1,7.8,5.3,8.2,12.4
					c0.3,5.5-2.7,8.6-7.1,8.1c-5.2-0.7-8.2-4.7-8.2-4.7l0.9-4.9c0,0,3.1,2.9,5.3,3.2c1.5,0.1,2-1.1,2-1.9c-0.4-3.9-6.4-5-6.9-11.6
					c-0.5-5.5,2.9-10.3,10.4-9.2C47,92.8,48.6,93.9,48.6,93.9z"/>
			</g>
		</g>
	</g>
	<g>
		<path class="st5" d="M271,255.5c-7.6,4.4-15.3,8.8-22.9,13.2c3.9-2.4,6.2-7.3,6.2-14.2c0-12.9,0-25.8,0-38.6
			c0-14.2-10-31.5-22.3-38.6c-18.9-10.9-37.8-21.8-56.7-32.7c-6-3.5-11.5-3.9-15.5-1.7c7.7-4.4,15.3-8.9,23-13.3
			c4-2.3,9.6-2,15.7,1.6c18.9,10.9,37.8,21.8,56.7,32.7c12.3,7.1,22.3,24.4,22.3,38.6c0,12.9,0,25.8,0,38.6
			C277.5,248.2,275,253.2,271,255.5z"/>
		<path class="st6" d="M254.3,215.9c0,12.9,0,25.8,0,38.6c0,6.9-2.4,11.8-6.2,14.2c-0.1,0.1-0.2,0.1-0.3,0.2c-4,2.3-9.6,2-15.7-1.6
			c-18.9-10.9-37.8-21.8-56.7-32.7l-22.3,6.4c0-10.1,0-73.4,0-83.6c0-7.1,2.5-12.1,6.5-14.4c0.1,0,0.2-0.1,0.2-0.1
			c4-2.2,9.5-1.8,15.5,1.7c18.9,10.9,37.8,21.8,56.7,32.7C244.3,184.4,254.3,201.7,254.3,215.9z"/>
		<g>
			<path marker-start="none" marker-end="none" class="st7" d="M189.7,218.8c-2.2-5.1-3.8-10.6-5.5-16.1c0,0.1-3.5,9-3.9,9.7
				c-8,13.5-10.8-12.8-13.1-26.8c-0.3-1.5-1.1-5.1-1.4-7.3c-0.1-0.7-0.1-1.2,0-1.5c0.2-0.3,0.6-1,0.8-1c0.5-0.4,1.3-0.6,2.1-0.3
				c4.3,2.1,5,23.2,7.3,27.9c0.9-2,6.5-18.8,8.8-15.6c1.2,1.8,4.3,16.9,5.9,21.3c1.4-5.9-0.3-15.7,2.8-23.4c0.6-1.3,2.5-1.7,3.2,0.2
				c4.6,12.2-0.3,8-0.8,15.8C195.6,210,200.5,244.4,189.7,218.8z"/>
			<path marker-start="none" marker-end="none" class="st7" d="M199.3,206.1c0.6-9.1,5-13.7,9.9-10c4.9,3.8,8.7,14.8,8.3,24.5
				c-0.5,9.5-4.9,13.8-10,9.5C202.3,225.9,198.7,215.3,199.3,206.1z M212.5,216.9c0.3-4.9-1.3-10.6-3.5-12.4
				c-2.2-1.8-4.2,0.7-4.6,5.5c-0.3,4.9,1.2,10.4,3.6,12.4C210.1,224.3,212.2,221.9,212.5,216.9z"/>
			<path marker-start="none" marker-end="none" class="st7" d="M219.7,216.6c0.4-9.7,4.6-14.5,9.7-10.4c4.9,3.9,8.8,15.5,8.6,25.6
				c-0.2,10.1-4.6,14.6-9.7,10.2C223.1,237.5,219.2,226.2,219.7,216.6z M233,228c0.1-5.4-1.6-11.2-3.8-13.3c-2.2-1.9-4.2,0.7-4.4,6
				c-0.2,5.1,1.5,11,3.7,13C230.7,235.8,232.8,233.2,233,228z"/>
		</g>
	</g>
	<g>
		<path class="st8" d="M317.1,118.3c-5.2,3-10.4,6-15.6,9c2.6-1.6,4.2-5,4.2-9.7c0-8.7,0-17.5,0-26.2c0-9.6-6.8-21.4-15.1-26.2
			C277.8,57.8,265,50.4,252.2,43c-4.1-2.4-7.8-2.6-10.5-1.1c5.2-3,10.4-6,15.6-9c2.7-1.6,6.5-1.3,10.7,1.1
			c12.8,7.4,25.6,14.8,38.5,22.2c8.3,4.8,15.1,16.5,15.1,26.2c0,8.7,0,17.5,0,26.2C321.5,113.4,319.8,116.7,317.1,118.3z"/>
		<path class="st9" d="M305.8,91.4c0,8.7,0,17.5,0,26.2c0,4.7-1.6,8-4.2,9.7c-0.1,0-0.1,0.1-0.2,0.1c-2.7,1.6-6.5,1.4-10.7-1.1
			c-12.8-7.4-25.7-14.8-38.5-22.2l-15.1,4.3c0-6.8,0-49.8,0-56.7c0-4.8,1.7-8.2,4.4-9.8c0.1,0,0.1-0.1,0.2-0.1
			c2.7-1.5,6.4-1.2,10.5,1.1c12.8,7.4,25.7,14.8,38.5,22.2C299,70.1,305.8,81.8,305.8,91.4z"/>
		<g>
			<g id="Group_8_2_">
				<path marker-start="none" marker-end="none" class="st4" d="M246.8,75.2c-0.3-1.1-0.5-2.3-0.4-3.7c0-0.9,0.2-1.6,0.4-2.2
					c0.2-0.5,0.5-0.9,0.9-1.1c0.4-0.1,0.9-0.1,1.5-0.1c0.9,0.2,1.5,0.1,1.8,0.1l0-0.3c0-0.8,0-1.5-0.2-1.9c-0.2-0.4-0.5-0.8-1-1.1
					c-0.3-0.2-0.6-0.2-0.8,0c-0.2,0.2-0.4,0.6-0.5,1.2l-1.6-1.6c0.2-1.4,0.6-2.3,1.1-2.8c0.5-0.5,1.2-0.4,2.1,0.1
					c0.8,0.5,1.4,1.1,1.8,1.7c0.4,0.7,0.6,1.4,0.8,2.1c0.1,0.7,0.1,2.1,0,3.8l-0.2,4.8c-0.1,1.4-0.1,2.4,0,3.1c0,0.4,0,0.7,0.1,1.1
					l-1.7,0.1c0-0.4-0.1-0.7-0.1-1.3c0-0.2,0-0.5,0-0.6c-0.4,0.4-0.7,0.8-1.1,0.9c-0.4,0.1-0.8,0.1-1.1-0.1
					C247.7,77,247.2,76.3,246.8,75.2z M250.2,74.8c0.2-0.2,0.4-0.6,0.5-1.1c0.1-0.3,0.1-1,0.2-2l0-0.9c-0.2,0.1-0.6,0.1-1.2,0
					c-0.5-0.1-0.9,0-1,0.2c-0.2,0.3-0.4,0.7-0.4,1.3c0,0.5,0.1,1.1,0.2,1.7c0.1,0.5,0.4,0.9,0.7,1.1
					C249.5,75.1,249.9,75.1,250.2,74.8z"/>
				<path marker-start="none" marker-end="none" class="st4" d="M254,80.5l0.8-15.6l1.7,1l-0.1,2.2c0.7-1.3,1.5-1.7,2.3-1.2
					c0.4,0.3,0.8,0.7,1.1,1.3c0.3,0.6,0.6,1.5,0.7,2.3c0.3-0.7,0.7-1.2,1.1-1.3c0.4-0.2,0.8-0.2,1.2,0c0.5,0.3,0.9,0.8,1.3,1.4
					c0.3,0.6,0.6,1.6,0.7,2.5c0.1,0.7,0.1,1.9,0,3.4l-0.5,10.2l-1.9-1.1l0.4-9.1c0.1-1.5,0.1-2.7,0-3.2c-0.1-0.6-0.4-1.1-0.7-1.3
					c-0.3-0.2-0.5-0.1-0.8,0.1c-0.2,0.2-0.4,0.6-0.6,1.2c-0.1,0.6-0.3,1.6-0.3,3.2l-0.4,7.6l-1.9-1.1l0.4-8.7c0.1-1.5,0.1-2.5,0-3
					c0-0.5-0.1-0.9-0.2-1.1c-0.1-0.3-0.3-0.5-0.5-0.7c-0.3-0.2-0.6-0.1-0.8,0.1c-0.2,0.2-0.4,0.6-0.6,1.2c-0.1,0.6-0.3,1.6-0.3,3.1
					l-0.4,7.7l-1.7-1.1L254,80.5z"/>
				<path marker-start="none" marker-end="none" class="st4" d="M266.3,87c-0.3-1.1-0.5-2.4-0.4-3.8c0-0.9,0.2-1.7,0.4-2.2
					c0.2-0.6,0.5-0.9,0.9-1.2c0.4-0.1,0.9-0.2,1.5-0.1c0.9,0.2,1.5,0.1,1.8,0.1l0-0.3c0-0.8,0-1.5-0.2-1.9c-0.2-0.4-0.5-0.9-1-1.2
					c-0.3-0.2-0.6-0.2-0.8,0c-0.2,0.2-0.4,0.6-0.5,1.3l-1.6-1.7c0.2-1.4,0.6-2.3,1.1-2.8c0.5-0.5,1.2-0.4,2.1,0.1
					c0.8,0.5,1.4,1.1,1.8,1.8c0.4,0.7,0.6,1.4,0.8,2.2c0.1,0.8,0.1,2.1,0,3.9l-0.2,5c-0.1,1.4-0.1,2.5,0,3.2c0,0.4,0,0.7,0.1,1.1
					l-1.7,0.1c0-0.4-0.1-0.7-0.1-1.3c0-0.3,0-0.5,0-0.6c-0.4,0.5-0.7,0.8-1.1,0.9c-0.4,0.1-0.8,0.1-1.1-0.1
					C267.2,88.9,266.6,88.1,266.3,87z M269.6,86.6c0.2-0.2,0.4-0.6,0.5-1.2c0.1-0.3,0.1-1.1,0.2-2.1l0-0.9c-0.2,0.1-0.6,0.1-1.2,0
					c-0.5-0.1-0.9,0-1,0.2c-0.2,0.3-0.4,0.7-0.4,1.3c0,0.6,0.1,1.2,0.2,1.7c0.1,0.5,0.4,0.9,0.7,1.1C269,86.9,269.3,86.9,269.6,86.6
					z"/>
				<path marker-start="none" marker-end="none" class="st4" d="M272.8,92.1l0.2-3.2l3-5.3c0.5-0.8,0.8-1.4,1.1-1.9
					c-0.2-0.1-0.5-0.3-0.8-0.4l-2.5-1.5l0.2-3.6l5.8,3.5l-0.1,3l-3,5.5l-1.1,1.7c0.5,0.2,0.8,0.4,1,0.5l2.9,1.8l-0.2,3.6
					c-0.9-1.5-1.9-2.6-3-3.2C275,91.8,273.9,91.7,272.8,92.1z"/>
				<path marker-start="none" marker-end="none" class="st4" d="M281.7,96.9c-0.5-1-0.9-2.3-1.2-3.8c-0.2-1.5-0.3-3.2-0.2-5
					c0.1-1.5,0.3-2.7,0.6-3.9c0.3-1.2,0.8-1.9,1.4-2.2c0.6-0.3,1.2-0.3,1.9,0.1c1.1,0.6,1.9,2,2.5,3.9c0.6,2,0.8,4.2,0.7,6.7
					c-0.1,2.5-0.6,4.3-1.3,5.6c-0.7,1.2-1.6,1.5-2.7,0.8C282.8,98.7,282.2,98,281.7,96.9z M284.9,95.1c0.4-0.7,0.6-1.8,0.7-3.4
					c0.1-1.6,0-2.9-0.3-4c-0.3-1.1-0.7-1.7-1.2-2c-0.5-0.3-0.9-0.1-1.3,0.5c-0.4,0.7-0.6,1.8-0.7,3.4c-0.1,1.6,0,2.9,0.3,4
					c0.3,1.1,0.7,1.7,1.2,2C284.1,95.9,284.5,95.7,284.9,95.1z"/>
				<path marker-start="none" marker-end="none" class="st4" d="M288.5,102l0.8-16.5l1.7,1.1l-0.1,2.4c0.7-1.4,1.5-2,2.4-1.4
					c0.4,0.2,0.8,0.7,1.1,1.3c0.3,0.6,0.6,1.2,0.7,1.9c0.1,0.7,0.2,1.3,0.3,2c0,0.7,0,1.8,0,3l-0.5,10.3l-1.9-1.2l0.4-8.5
					c0.1-1.8,0.1-3,0-3.5c0-0.6-0.2-1.1-0.3-1.5c-0.2-0.4-0.4-0.7-0.6-0.8c-0.3-0.2-0.6-0.2-0.9,0c-0.3,0.3-0.5,0.6-0.6,1.3
					c-0.1,0.6-0.3,1.8-0.3,3.7l-0.4,7.5l-1.9-1.2L288.5,102z"/>
			</g>
			<path marker-start="none" marker-end="none" class="st10" d="M251.5,81.6L251.5,81.6c0-0.2-0.1-0.6,0-0.8
				c0.1-0.3,0.4-0.1,0.5,0.2c0.1,0,0.1,0.1,0.1,0.3c2.7,5.6,7.3,10.9,12.6,14.3c3.8,2.4,7.4,3.3,10.3,2.8c0.1,0,0.1,0,0.1,0
				c0.3,0,0.6,0.5,0.6,1c0.1,0.5-0.1,1-0.4,1l0,0c-3,1.9-6.9,1.8-11.1-0.9C258.6,96,253.9,89.1,251.5,81.6z"/>
			<path marker-start="none" marker-end="none" class="st10" d="M273.1,95c0.7-1,4.4,0.3,4.9,1.8c0.1,0.1,0,0.6,0,0.7
				c-0.4,6.6-3.4,9.9-2,5.4c0.3-1.2,0.6-2.5,0.7-3.9c0.2-2.6-3.5-2.2-3.8-3.6C273.1,95.2,273.1,95.1,273.1,95z"/>
		</g>
	</g>
	<g>
		<path class="st11" d="M71.9,228.2c0,7.8,0,15.7,0,23.5c0,8.2,5.8,18.2,12.9,22.3c1,0.6,2,1.2,3,1.7L95,293l7.2-9
			c1,0.6,2,1.2,3,1.7c0.3,0.2,0.6,0.3,0.9,0.5c3.2,1.6,6.1,1.7,8.3,0.4c0.1,0,0.1-0.1,0.2-0.1c2.2-1.4,3.6-4.2,3.6-8.2
			c0-7.8,0-15.7,0-23.5c0-8.2-5.8-18.2-12.9-22.3c-6.8-3.9-13.6-7.8-20.3-11.7c-3.5-2-6.7-2.2-9-1c0,0-0.1,0.1-0.1,0.1
			C73.4,221.2,71.9,224.1,71.9,228.2z"/>
		<path class="st12" d="M124.8,280.7c2.3-1.3,3.8-4.2,3.8-8.3c0-7.8,0-15.7,0-23.5c0-8.2-5.8-18.2-12.9-22.3
			c-6.8-3.9-13.6-7.8-20.3-11.7c-3.6-2.1-6.8-2.2-9.1-0.9c-3.4,2-6.9,4-10.3,6c2.3-1.3,5.5-1,9,1c6.8,3.9,13.6,7.8,20.3,11.7
			c7.1,4.1,12.9,14.1,12.9,22.3c0,7.8,0,15.7,0,23.5c0,4-1.4,6.9-3.6,8.2C117.9,284.6,121.3,282.7,124.8,280.7z"/>
		<path class="st12" d="M102.2,284.1l-7.2,9l10.5-6l0.6-0.7c-0.3-0.1-0.6-0.3-0.9-0.5C104.2,285.2,103.2,284.7,102.2,284.1z"/>
		<g>
			<path marker-start="none" marker-end="none" class="st7" d="M94.9,267.1l-9.1-8.8c0,0-0.1-0.1-0.1-0.1l-0.2-0.1c0,0,0,0-0.1-0.1
				l0,0l0,0c-0.4-0.4-0.7-1.1-0.7-1.5l0-3.1c0-0.5,0.3-0.6,0.7-0.3l0.1,0.1l3.5,3.3l5.3,5c0.4,0.3,1.1,0.6,1.4,0.3l0,0l2.1-0.8
				c0.2-0.2,0.3-0.5,0.1-0.8l-8.5-7.9l0,0l-1-0.9l-0.2-0.1l0,0l-2.9-2.6l0,0c-0.3-0.3-0.5-0.8-0.5-1.2l0-1.2c0-0.4,0.2-0.7,0.5-0.9
				l8.7-4.1l0,0.1c0.2,0,0.4,0,0.6,0.1l0,0l8.4,7.6c0.1,0,0.2,0.1,0.3,0.2l0.2,0.1c0.1,0.1,0.2,0.2,0.2,0.3l0.1,0.1l0,0
				c0.3,0.4,0.4,0.9,0.5,1.3l0.2,3.6c0,0.6-0.3,0.7-0.7,0.3l-0.2-0.2c-0.1-0.1-0.2-0.2-0.2-0.2l-1.3-1.3l0,0.1l-6.9-6.4
				c-0.1-0.1-0.2-0.2-0.3-0.2c-0.4-0.1-0.6-0.2-0.9-0.1l-2.3,1.1c0,0,0.1,0,0.1,0l0,0c0,0-0.1,0-0.1,0l-0.2,0.1
				c-0.1,0.1,0,0.4,0,0.5l8.6,7.9l0,0l0,0l1.2,1.1l0,0l3,3l0,0c0.3,0.4,0.5,0.8,0.6,1.3l0.1,1.4c0,0.5-0.1,0.8-0.4,1l0,0l-9,3.3
				l0-0.1c-0.2,0-0.4-0.1-0.6-0.3L94.9,267.1z"/>
			<path marker-start="none" marker-end="none" class="st13" d="M95.7,267.3L95.7,267.3c-0.2-0.1-0.3-0.1-0.4-0.2l-0.2-5.3
				c0.3,0.1,0.7,0.2,0.8,0l0,0L98,261c0.2-0.2,0.3-0.5,0.1-0.8l-3.2-3l-0.1-2.3c0-0.5,0.3-1.1,0.8-1.3l1.3-0.5l3.3,3.1l0,0l0,0
				l1.2,1.1l0,0l3,3l0,0c0.3,0.4,0.5,0.8,0.6,1.3l0.1,1.4c0,0.5-0.1,0.8-0.4,1l0,0L95.7,267.3z M103.9,254.9l-0.2-0.2
				c-0.1-0.1-0.2-0.2-0.2-0.2l-1.3-1.3l0,0.1l-1.8-1.6l3.7-1.7c0.2,0.3,0.3,0.7,0.3,1l0.2,3.6C104.6,255.1,104.3,255.3,103.9,254.9z
				"/>
		</g>
	</g>
	<g>
		<path class="st14" d="M137.9,20.2c0,10.4,0,20.8,0,31.1c0,10.9,7.7,24.2,17.1,29.6c1.3,0.8,2.7,1.5,4,2.3l9.5,22.9l9.5-11.9
			c1.3,0.8,2.7,1.5,4,2.3c0.4,0.2,0.8,0.4,1.1,0.6c4.3,2.1,8.1,2.2,11,0.6c0.1,0,0.1-0.1,0.2-0.1c3-1.8,4.8-5.6,4.8-10.9
			c0-10.4,0-20.8,0-31.1c0-10.9-7.7-24.2-17.1-29.6c-9-5.2-18-10.4-27-15.6c-4.6-2.7-8.8-3-11.9-1.3c-0.1,0-0.1,0.1-0.2,0.1
			C139.9,10.9,137.9,14.8,137.9,20.2z"/>
		<path class="st15" d="M208,89.8c3.1-1.8,5-5.6,5-11.1c0-10.4,0-20.8,0-31.1c0-10.9-7.7-24.2-17.1-29.6c-9-5.2-18-10.4-27-15.6
			c-4.7-2.7-9-3-12.1-1.2c-4.6,2.6-9.1,5.3-13.7,7.9c3.1-1.7,7.3-1.4,11.9,1.3c9,5.2,18,10.4,27,15.6c9.4,5.5,17.1,18.7,17.1,29.6
			c0,10.4,0,20.8,0,31.1c0,5.3-1.8,9.1-4.8,10.9C198.9,95,203.4,92.4,208,89.8z"/>
		<path class="st15" d="M178,94.3l-9.5,11.9l13.9-8l0.8-1c-0.4-0.2-0.8-0.4-1.1-0.6C180.7,95.8,179.4,95,178,94.3z"/>
		<g>
			<path id="path22_1_" class="st16" d="M184.9,58.2c0.9-7-5.9-15.5-15.2-19s-17.4-0.8-18.1,6c0,0.2-0.1,0.7-0.1,0.7
				c-0.7,7.2,5.1,15.7,15.1,19.7c10,4.1,17.2,0.6,18.2-6.8L184.9,58.2z"/>
			<path id="path26_1_" class="st17" d="M184.3,57.9c-0.9,6.6-8.6,9.1-17.4,5.6c-8.7-3.5-15.3-11.6-14.6-18s8.4-8.9,17.4-5.5
				C178.6,43.3,185.2,51.3,184.3,57.9"/>
			<path id="path30_1_" class="st4" d="M163.4,45.9c0,0-0.2,0.1-0.1,0.3c0.2,0.5,1,1,1.8,1.1c0.5,0.1,1.1-0.3,1.8-0.5
				c0.7-0.3,1.4-0.7,2.1-0.6c0.7,0,1.1,0.3,1.4,0.5c0.3,0.2,0.6,0.6,1.2,1.3c1,1.4,4.8,7.5,5.5,8.6c0.6-0.1,3.5-0.4,7.4,0.1
				c0-2.4-1-5-2.5-7.4c-2.7,0.3-5.9-0.3-8.7-3.2c0,0-1.6-1.6-3.2-2.1c-2.4-0.8-3.6-0.1-4.9,0.8L163.4,45.9z"/>
			<path id="path34_1_" class="st4" d="M176.7,56.9c-0.1-0.1-4.6-7.2-5.6-8.7c-0.6-0.8-1-1.1-1.3-1.4c-0.2-0.1-0.5-0.2-0.7-0.2
				c-0.6-0.1-1.3,0.3-2,0.6c-0.7,0.4-1.4,0.7-2,0.6c-0.8-0.1-1.6-0.7-2-1.1c-0.2-0.2-0.2-0.4-0.3-0.5c-0.1-0.4,0.2-0.7,0.3-0.7
				l1.6-1.2c0.2-0.1,0.4-0.3,0.6-0.4c-0.5-0.1-0.9-0.1-1.3-0.2c-0.5,0-1-0.1-1.5-0.3c-0.2-0.1-1.3-0.7-1.5-0.9
				c-1.2-0.9-2.3-1.7-3.9-3.2c-2.2,0.9-3.8,2.5-4.4,4.7c0.3,0.2,0.7,0.5,0.9,0.7c4.4,2.9,5.7,4.7,6,5c0.3-0.2,0.7-0.3,1.2-0.1
				c0.5,0.2,0.9,0.7,1.2,1.2c0.3-0.1,0.7-0.2,1.1,0c0.2,0.1,0.4,0.2,0.7,0.4c0.5,0.4,0.7,0.9,0.8,1.3c0.2,0,0.4,0,0.6,0.1
				c0.2,0.1,0.5,0.3,0.7,0.5c0.8,0.7,0.8,1.8,0.7,2.4c0.1,0,0.1,0.1,0.2,0.1c1,0.4,1.7,1.6,1.5,2.8c0,0.3-0.1,0.7-0.3,0.9
				c0.2,0.3,0.9,1,1.5,1.1c0.5,0.1,0.7,0,0.8-0.1c0-0.1,0.1-0.1,0.1-0.2l-1.1-2.2c0,0-0.2-0.3-0.1-0.4c0.1-0.1,0.2,0.1,0.3,0.2
				c0.6,0.9,1.3,2.1,1.3,2.1s0.1,0.1,0.3,0.3c0.3,0.1,0.7,0.3,1,0.1c0.1-0.1,0.2-0.1,0.3-0.2l0,0c0.4-0.4,0.1-1,0.1-1l-1.3-2.5
				c0,0-0.2-0.3-0.1-0.4c0.1-0.1,0.2,0.1,0.3,0.2c0.4,0.6,1,1.7,1.6,2.7c0.1,0.2,0.6,0.8,1.4,0.5c0.5-0.2,0.6-0.6,0.7-0.9
				c0-0.4-0.2-0.9-0.2-0.9l-1.8-3.2c0,0-0.2-0.3-0.1-0.4c0.1-0.1,0.2,0.1,0.3,0.2c0.6,0.9,2.1,3.4,2.1,3.4c0,0.1,0.6,0.8,1.4,0.5
				c0.3-0.1,0.5-0.3,0.6-0.7C177.1,57.4,176.7,56.9,176.7,56.9"/>
			<path id="path38_1_" class="st4" d="M166.5,56.1c-0.3-0.1-0.7,0-0.7-0.1c0-0.1,0.1-0.1,0.1-0.3c0-0.1,0.6-1.4-0.3-2.2
				c-0.7-0.7-1.3-0.5-1.5-0.3c0,0-0.1,0-0.1,0c0-0.3,0-1-0.7-1.5c-0.9-0.7-1.6-0.2-1.8,0c0-0.6-0.4-1.3-1-1.5
				c-0.6-0.2-1.2,0.1-1.3,0.9c-0.1,0.7,0.4,1.5,1,1.7c0.3,0.1,0.6,0.1,0.8,0c0,0,0,0,0,0c-0.1,0.3-0.3,1.4,0.7,2.3
				c0.4,0.4,0.8,0.3,1.1,0.2c0.1,0,0.1,0,0.1,0.1c-0.1,0.3-0.1,0.9,0.6,1.6c0.6,0.5,0.9,0.4,1.2,0.2c0.1-0.1,0.1,0,0.1,0.1
				c-0.1,0.9,0.5,1.8,1.2,2.1c0.8,0.3,1.5-0.2,1.6-1.1C167.8,57.3,167.3,56.4,166.5,56.1"/>
			<path id="path42_1_" class="st16" d="M166.2,59.2c-0.7-0.3-1.2-1.1-1.1-1.9c0-0.1,0-0.3-0.1-0.3c-0.1,0-0.1,0-0.2,0
				c-0.2,0.1-0.4,0.2-0.7,0.1c-0.1-0.1-0.3-0.1-0.4-0.3c-0.7-0.6-0.7-1.2-0.6-1.5c0-0.1,0-0.1,0-0.2l0-0.1l0,0c0,0-0.1,0-0.1,0
				c-0.2,0.1-0.5,0.1-0.7,0c-0.1,0-0.2-0.1-0.4-0.2c-0.9-0.8-0.7-1.8-0.7-2.2c0-0.1,0-0.1,0-0.2l-0.1-0.1l-0.1,0.1
				c-0.2,0.2-0.5,0.2-0.7,0.1c-0.6-0.2-1-0.9-0.9-1.6c0.1-0.6,0.6-1,1.2-0.7c0.5,0.2,0.9,0.8,0.9,1.4l0,0.3l0.2-0.2
				c0,0,0.5-0.6,1.3-0.3c0.1,0.1,0.3,0.2,0.4,0.2c0.6,0.5,0.6,1.1,0.6,1.4c0,0.2,0.1,0.2,0.1,0.2c0.1,0,0.1,0,0.1,0
				c0.1-0.1,0.4-0.2,0.8-0.1c0.2,0.1,0.4,0.2,0.5,0.4c0.9,0.8,0.3,2.1,0.3,2.1c-0.1,0.2-0.1,0.3,0,0.4l0,0.1l0,0c0,0,0.1,0,0.2,0
				c0.1,0,0.3,0,0.5,0.1l0,0c0.7,0.3,1.2,1.2,1.1,2C167.5,59,166.9,59.4,166.2,59.2 M177,56.4c-1.4-2.2-4.6-7.3-5.5-8.5
				c-0.5-0.7-0.9-1.1-1.2-1.4c-0.2-0.1-0.4-0.3-0.6-0.4c-0.3-0.1-0.5-0.2-0.8-0.2c-0.7,0-1.4,0.3-2.1,0.6l0,0
				c-0.6,0.3-1.3,0.6-1.7,0.6c-0.2,0-0.4-0.1-0.6-0.2c-0.5-0.2-1-0.5-1.1-0.9c0-0.1,0-0.1,0.1-0.2l0,0l1.6-1.2
				c1.2-0.8,2.4-1.6,4.8-0.8c0,0,0.1,0,0.1,0.1c1.5,0.6,2.9,1.9,3,2c1.3,1.3,2.7,2.2,4.1,2.8c1.5,0.6,3.1,0.7,4.9,0.5
				c-0.1-0.3-0.3-0.5-0.5-0.7c-1.5,0.2-2.9,0-4.3-0.5c-1.3-0.5-2.6-1.4-3.9-2.6c-0.1-0.1-1.6-1.6-3.3-2.2c0,0-0.1,0-0.1-0.1
				c-2-0.7-3.2-0.3-4.1,0.1c-0.7-0.2-1.4-0.3-2-0.3c-0.5,0-1-0.1-1.4-0.2c-0.2-0.1-0.5-0.2-0.5-0.2c-0.5-0.2-2.9-1.8-4.8-3.4
				c-0.2,0.1-0.4,0.2-0.6,0.3c1.9,1.7,4.3,3.4,5.1,3.8c0.2,0.1,0.4,0.2,0.7,0.3c0.5,0.2,1.1,0.2,1.6,0.2c0.3,0,0.7,0.1,1,0.1
				c-0.1,0.1-0.2,0.1-0.3,0.2l-1.6,1.2c-0.1,0.1-0.4,0.3-0.3,0.8c0,0.2,0.2,0.4,0.3,0.6c0.3,0.4,0.9,0.8,1.5,1
				c0.2,0.1,0.4,0.1,0.6,0.2c0.6,0.1,1.3-0.3,2-0.6c0.6-0.3,1.4-0.6,2-0.6c0.2,0,0.4,0.1,0.5,0.1c0,0,0.1,0,0.1,0.1
				c0.4,0.2,0.7,0.5,1.3,1.3c1.1,1.4,5.5,8.6,5.6,8.7c0,0,0.3,0.5,0.2,1c0,0.3-0.2,0.5-0.5,0.6c-0.3,0.1-0.5,0.1-0.7,0
				c-0.3-0.1-0.5-0.4-0.6-0.4s-1.5-2.6-2.1-3.4c-0.1-0.2-0.2-0.3-0.3-0.3c-0.1,0-0.1,0-0.1,0c-0.1,0.1,0,0.3,0.1,0.5l1.8,3.2
				c0,0,0.2,0.4,0.2,0.8c0,0.4-0.2,0.7-0.6,0.8c-0.3,0.1-0.5,0.1-0.8,0c-0.3-0.1-0.5-0.4-0.6-0.4l-0.3-0.5c-0.5-0.8-0.9-1.7-1.3-2.2
				c-0.1-0.1-0.2-0.3-0.3-0.3c0,0-0.1,0-0.1,0c0,0.1-0.1,0.1,0,0.4c0,0.1,0.1,0.2,0.1,0.2l1.3,2.5c0,0,0.2,0.5-0.1,0.9l-0.1,0.1
				c0,0-0.1,0.1-0.2,0.1c-0.3,0.1-0.6,0-0.8,0c-0.1,0-0.1-0.1-0.2-0.1c-0.1-0.1-0.2-0.2-0.3-0.3l0-0.1c-0.1-0.1-0.7-1.3-1.3-2.1
				c-0.1-0.1-0.2-0.3-0.3-0.3c-0.1,0-0.1,0-0.1,0c-0.2,0.1,0,0.4,0.1,0.5l1.1,2.1c0,0,0,0,0,0.1c0,0.1-0.2,0.2-0.7,0
				c-0.1,0-0.1,0-0.2-0.1c-0.5-0.2-1-0.7-1.2-0.9c0.2-0.3,0.2-0.5,0.3-0.9c0.1-1.2-0.6-2.5-1.6-2.9c0,0,0,0-0.1,0
				c0.1-0.5,0.2-1.6-0.7-2.4c-0.3-0.2-0.5-0.4-0.8-0.5c-0.2-0.1-0.4-0.1-0.6-0.1c-0.2-0.5-0.4-0.9-0.8-1.3c-0.2-0.2-0.4-0.3-0.7-0.4
				c-0.4-0.2-0.7-0.2-1.1,0c-0.3-0.5-0.7-1-1.2-1.2c-0.4-0.2-0.9-0.1-1.2,0.1c-0.4-0.5-1.8-2.2-5.9-5c-0.2-0.1-0.6-0.4-0.9-0.7
				c-0.1,0.3-0.2,0.5-0.2,0.8c0,0,0.7,0.5,0.9,0.6c4.2,2.8,5.5,4.5,5.7,4.8c-0.1,0.2-0.2,0.4-0.2,0.7c-0.1,1,0.5,2.1,1.4,2.5
				c0.1,0,0.2,0.1,0.3,0.1c0,0.8,0.4,1.6,1,2.1c0.2,0.2,0.4,0.3,0.5,0.3c0.1,0.1,0.2,0.1,0.4,0.1c0.1,0.4,0.3,1,0.9,1.5
				c0.2,0.2,0.4,0.3,0.6,0.4c0.2,0.1,0.3,0.1,0.5,0.1c0.2,0.9,0.8,1.8,1.6,2.1c0.5,0.2,1,0.2,1.4-0.1c0.3,0.3,0.9,0.9,1.5,1.2
				c0.1,0,0.2,0.1,0.2,0.1c0.7,0.2,1,0,1.2-0.2c0,0,0-0.1,0.1-0.1c0.2,0.1,0.3,0.2,0.5,0.3c0.4,0.1,0.7,0.1,1.1,0
				c0.4-0.1,0.6-0.5,0.7-0.8l0,0c0.1,0.1,0.2,0.1,0.3,0.2c0.4,0.1,0.7,0.2,1.1,0c0.7-0.2,0.9-0.9,1-1.3c0.1,0.1,0.2,0.1,0.4,0.2
				c0.3,0.1,0.7,0.1,1,0c0.4-0.2,0.8-0.5,0.9-1c0.1-0.4,0-0.8-0.1-1.2c1.2-0.1,3.9-0.2,7,0.2c0-0.3,0-0.6,0-0.9
				C180.6,56,177.8,56.3,177,56.4"/>
		</g>
	</g>
</g>
</svg>
