<?xml version="1.0" encoding="utf-8"?>
<!-- Generator: Adobe Illustrator 23.0.4, SVG Export Plug-In . SVG Version: 6.00 Build 0)  -->
<svg version="1.1" id="Capa_1" xmlns="http://www.w3.org/2000/svg" xmlns:xlink="http://www.w3.org/1999/xlink" x="0px" y="0px"
	 viewBox="0 0 360.1 386" style="enable-background:new 0 0 360.1 386;" xml:space="preserve">
<style type="text/css">
	.st0{fill:#3E3E3E;}
	.st1{fill:#474747;}
	.st2{fill:#FFFFFF;}
	.st3{fill:#E0E0E0;}
	.st4{fill:#ECECEC;}
	.st5{fill:#65B129;}
	.st6{fill:#ABD8EC;}
	.st7{fill:#C6E9F6;}
	.st8{fill-rule:evenodd;clip-rule:evenodd;fill:#ABD8EC;}
	.st9{fill-rule:evenodd;clip-rule:evenodd;fill:#5A5A5A;}
	.st10{fill-rule:evenodd;clip-rule:evenodd;fill:#363636;}
	.st11{fill-rule:evenodd;clip-rule:evenodd;fill:#A89881;}
	.st12{fill-rule:evenodd;clip-rule:evenodd;fill:#8C7B61;}
	.st13{fill-rule:evenodd;clip-rule:evenodd;fill:#C9BAA7;}
	.st14{fill-rule:evenodd;clip-rule:evenodd;fill:#FFFFFF;}
	.st15{fill-rule:evenodd;clip-rule:evenodd;fill:#C7C7C7;}
	.st16{fill-rule:evenodd;clip-rule:evenodd;fill:#DDDDDD;}
	.st17{fill-rule:evenodd;clip-rule:evenodd;fill:#ACACAC;}
	.st18{fill-rule:evenodd;clip-rule:evenodd;fill:#F4AB00;}
	.st19{fill-rule:evenodd;clip-rule:evenodd;fill:#861349;}
	.st20{fill-rule:evenodd;clip-rule:evenodd;fill:#B91866;}
	.st21{fill-rule:evenodd;clip-rule:evenodd;fill:#1F1F1F;}
	.st22{fill-rule:evenodd;clip-rule:evenodd;fill:#949494;}
	.st23{fill-rule:evenodd;clip-rule:evenodd;fill:#666666;}
	.st24{fill:#F06D00;}
	.st25{fill:#F97800;}
	.st26{fill:#48BDEB;}
	.st27{fill:#62D2F0;}
	.st28{fill:#D41F33;}
	.st29{fill:#2863D1;}
	.st30{fill:#EAA700;}
	.st31{fill:#86B500;}
</style>
<g id="Integraciones_6_">
	<g>
		<path class="st0" d="M104.4,124.5c0,7.5,0,54.2,0,61.6L88,181.4c-19.4,11.2-38.8,22.4-58.2,33.6c-4.5,2.6-8.6,2.9-11.6,1.1
			c-3-1.7-4.8-5.4-4.8-10.6c0-9.5,0-19,0-28.5c0-10.5,7.4-23.2,16.4-28.4C49.2,137.4,68.6,126.2,88,115c4.4-2.6,8.5-2.9,11.4-1.2
			C102.5,115.4,104.4,119.1,104.4,124.5z"/>
		<path class="st1" d="M99.4,113.7c-3-1.6-7-1.3-11.4,1.2c-19.4,11.2-38.8,22.4-58.2,33.6c-9.1,5.2-16.4,18-16.4,28.4
			c0,9.5,0,19,0,28.5c0,5.2,1.8,8.9,4.8,10.6v0c-4.4-2.6-8.9-5.1-13.3-7.7c-3-1.7-4.8-5.4-4.8-10.6c0-9.5,0-19,0-28.5
			c0-10.5,7.4-23.2,16.4-28.5c19.4-11.2,38.8-22.4,58.2-33.6c4.5-2.6,8.6-2.9,11.6-1.2C90.7,108.7,95,111.2,99.4,113.7L99.4,113.7z"
			/>
		<g>
			<path id="svg_3_2_" class="st2" d="M65.9,148.1c-1.3,1.6-1.7,3.1-1.7,7c0,0,0.6-1.1,1.6-2.1c0.7-0.7,1.3-1.5,1.7-1.9
				c1.1-1.5,1.2-2.8,1.2-4.9C68.7,146.2,66.8,147,65.9,148.1L65.9,148.1z"/>
			<path id="svg_4_2_" class="st2" d="M58.1,153.1c-1,1.7-1.4,3.7-1.4,3.7l-3.4,18.6l-3.1-12.1c-0.3-1.3-0.8-2.8-1.7-3.6
				c-1-1-3.2,0.1-3.4,0.2c-0.2,0.1-2.4,1.4-3.4,3.5c-0.8,1.7-1.3,3.9-1.6,5.5l-2.9,15.9l-3.6-15.2c0,0-0.3-1.8-1.4-2.3
				c-1.8-1-4.4,1-4.4,1l6.9,28.7c0,0,2.3-1.2,3.5-2.7c1.5-1.8,2.2-3,3.1-8c0.8-4.3,3-17.1,3.2-18c0.1-0.4,0.2-1.5,0.8-1.8
				c0.6-0.3,0.7,0.5,0.8,0.9c0.2,0.7,2.5,10.7,3.4,14.1c0.9,3.7,1.7,4,3.2,4.1c1.1,0.1,3.4-1.5,3.4-1.5l6.4-34.7
				C62.4,149.4,59.9,150.4,58.1,153.1z M68.7,151.1c0,0-0.4,1-1.4,2.1c-0.7,0.8-1.2,1.3-1.8,2c-1,1.2-1.4,2.1-1.4,3.1l0.3,20.8
				c0,0,1.7-0.7,2.8-2.1c1.5-1.7,1.7-2.8,1.7-6.5L68.7,151.1L68.7,151.1z M85.8,152.3l8.1-18.8c0,0-3.6,1-5.3,3.8
				c-1.1,1.8-2.3,4.5-2.3,4.5l-3,6.8c-0.1,0.3-0.4,0.8-0.6,0.9c-0.3,0.2-0.5,0-0.7-0.2l-3.3-3.6c0,0-1.3-1.6-2.5-2.2
				c-1.8-1-5.4,1.6-5.4,1.6l8.9,10.4l-8.3,19.7c0,0,3.9-1.6,5.6-4.6c1.2-1.9,2.2-4.5,2.2-4.5l3-7c0.1-0.3,0.4-0.8,0.6-0.9
				c0.3-0.2,0.5,0,0.7,0.2l3.3,3.5c0,0,1.2,1.3,2.4,1.9c1.8,0.9,5.5-1.7,5.5-1.7L85.8,152.3z"/>
		</g>
	</g>
	<g>
		<path class="st3" d="M182.7,282.1c0,8.4,0,60.7,0,69l-18.4-5.3c-21.7,12.5-43.5,25.1-65.2,37.6c-5.1,2.9-9.7,3.2-13,1.3
			c-3.3-1.9-5.4-6-5.4-11.9c0-10.6,0-21.3,0-31.9c0-11.7,8.2-26,18.4-31.9c21.7-12.6,43.5-25.1,65.2-37.7c5-2.9,9.5-3.2,12.8-1.4
			C180.5,271.9,182.7,276.1,182.7,282.1z"/>
		<path class="st4" d="M177.1,270.1c-3.3-1.8-7.8-1.5-12.8,1.4c-21.7,12.5-43.5,25.1-65.2,37.7C88.9,315,80.7,329.2,80.7,341
			c0,10.6,0,21.3,0,31.9c0,5.9,2.1,10,5.4,11.9v0c-5-2.9-9.9-5.7-14.9-8.6c-3.3-1.9-5.4-6-5.4-11.9c0-10.6,0-21.3,0-31.9
			c0-11.7,8.2-26,18.4-31.9c21.7-12.5,43.5-25.1,65.2-37.6c5.1-2.9,9.7-3.2,13-1.3C167.3,264.4,172.2,267.2,177.1,270.1L177.1,270.1
			z"/>
		<g>
			<path class="st5" d="M104.2,348.8c0.1,1.8,0.5,3,1.2,3.7c0.6,0.7,1.4,0.8,2.4,0.3c0.6-0.3,1.2-0.9,1.7-1.6
				c0.5-0.7,0.8-1.5,0.9-2.5l4.1-2.2c-0.4,2.7-1.1,5-2.3,6.9c-1.1,1.9-2.5,3.3-4.1,4.2c-5,2.7-7.6-0.3-8-8.9c-0.1-1.8,0-3.6,0.3-5.2
				c0.3-1.6,0.7-3.2,1.3-4.5c0.6-1.4,1.3-2.6,2.2-3.6c0.9-1,1.9-1.8,3.1-2.4c2.3-1.2,4.2-1,5.4,0.7c1.3,1.7,2,4.9,2.2,9.6
				L104.2,348.8z M110.3,341.6c-0.1-0.8-0.2-1.6-0.4-2.1c-0.2-0.6-0.4-1-0.7-1.3c-0.3-0.3-0.6-0.4-1-0.4c-0.4,0-0.8,0.1-1.1,0.3
				c-0.8,0.4-1.5,1.2-2,2.4c-0.5,1.2-0.8,2.7-0.8,4.3L110.3,341.6z"/>
			<path d="M129.5,337.1c-0.1,1.4-0.3,2.8-0.7,4.1c-0.4,1.3-0.9,2.5-1.5,3.7c-0.6,1.1-1.3,2.1-2.1,3c-0.8,0.9-1.6,1.6-2.5,2
				c-1,0.6-2,0.8-2.8,0.7c-0.9-0.1-1.6-0.5-2.3-1.2c-0.6-0.7-1.2-1.8-1.5-3.2c-0.4-1.4-0.6-3.1-0.7-5.2c-0.1-2.1,0-4,0.3-5.7
				c0.3-1.7,0.7-3.2,1.3-4.5c0.6-1.3,1.3-2.4,2.2-3.3c0.9-0.9,1.8-1.7,2.9-2.2c1-0.5,1.9-0.8,2.7-0.8c0.8,0,1.6,0.2,2.2,0.7
				c0.6,0.5,1.1,1.2,1.5,2.1c0.4,0.9,0.6,2,0.7,3.4l-4.1,2.1c-0.1-1.1-0.5-1.9-1-2.3c-0.5-0.4-1.2-0.4-2,0c-0.4,0.2-0.8,0.5-1.2,1
				c-0.4,0.4-0.7,1-0.9,1.6c-0.3,0.7-0.5,1.5-0.6,2.4c-0.1,1-0.2,2.1-0.1,3.3c0.1,2.6,0.4,4.3,1.1,5.2c0.6,0.9,1.3,1.2,2.1,0.8
				c0.8-0.4,1.4-1.1,2-2.1c0.5-1,0.8-2.1,0.9-3.4L129.5,337.1z"/>
			<path d="M140.2,339.8c-0.1-0.5-0.2-1.2-0.3-1.9c-0.5,1.1-1.1,2.1-1.9,3c-0.8,0.9-1.7,1.6-2.7,2.2c-1.8,0.9-3,1.1-3.9,0.3
				c-0.8-0.7-1.3-2.1-1.3-3.9c0-1.7,0.1-3.1,0.4-4.3c0.3-1.2,0.8-2.2,1.4-3.1c0.6-0.9,1.3-1.7,2.2-2.4c0.9-0.7,1.8-1.5,2.8-2.2
				c1-0.8,1.7-1.4,2-2c0.3-0.5,0.5-1.2,0.5-2c0-0.7-0.3-1.2-0.7-1.4c-0.5-0.2-1.1-0.1-1.9,0.4c-0.9,0.5-1.6,1.2-2,2
				c-0.4,0.8-0.6,1.8-0.7,2.9l-3.8,2c0-1.2,0.1-2.4,0.3-3.5c0.2-1.1,0.6-2.2,1.1-3.2c0.5-1,1.2-1.9,2-2.7c0.8-0.8,1.9-1.6,3.1-2.2
				c1.2-0.6,2.2-1,3.1-1c0.9,0,1.6,0.2,2.1,0.7c0.5,0.5,0.9,1.3,1.2,2.3c0.3,1,0.4,2.2,0.4,3.7l0.3,14.5L140.2,339.8z M139.7,328.6
				c-0.2,0.4-0.5,0.8-0.9,1.2c-0.4,0.4-1,0.9-1.7,1.5c-1.2,1-1.9,1.8-2.4,2.6c-0.4,0.8-0.6,1.6-0.6,2.7c0,1.7,0.7,2.2,2,1.5
				c0.5-0.3,1-0.7,1.4-1.2c0.4-0.5,0.8-1.1,1.1-1.7c0.3-0.6,0.6-1.3,0.7-2c0.2-0.7,0.3-1.4,0.3-2.1L139.7,328.6z"/>
			<path d="M145.6,336.9l-0.4-23l3.8-2l0,2.7c0.3-1,0.7-1.7,1-2.4c0.4-0.6,0.7-1.2,1.1-1.6c0.4-0.4,0.8-0.8,1.2-1.1
				c0.4-0.3,0.8-0.5,1.2-0.7l0.5-0.3l0.1,6.2c-0.4,0.1-0.8,0.3-1.1,0.5c-2.5,1.3-3.7,3.8-3.7,7.5l0.2,11.9L145.6,336.9z"/>
			<path d="M164.1,311.9l3.8-2l0,6.4c0,1.2-0.1,2.4-0.3,3.6c-0.2,1.2-0.6,2.4-1.1,3.5c-0.5,1.1-1.2,2.1-1.9,3.1
				c-0.8,0.9-1.7,1.7-2.8,2.3c-1.1,0.6-2.1,0.9-2.9,0.8c-0.8-0.1-1.5-0.4-2-0.9c-0.5-0.6-0.9-1.3-1.1-2.3c-0.2-1-0.4-2.1-0.4-3.3
				l-0.3-20.4l4.1-2.1l0.1,6.1l8.7-4.5l0,4.2l-8.7,4.5l0.1,9.3c0,1.4,0.2,2.5,0.6,3.1c0.4,0.6,1,0.7,1.8,0.2
				c0.8-0.4,1.4-1.2,1.8-2.1c0.4-1,0.6-2.2,0.6-3.6L164.1,311.9z"/>
		</g>
	</g>
	<g>
		<path class="st6" d="M179.5,20.2c0,10.4,0,20.8,0,31.1c0,10.9-7.7,24.2-17.1,29.6c-1.3,0.8-2.7,1.5-4,2.3l-9.5,22.9l-9.5-11.9
			c-1.3,0.8-2.7,1.5-4,2.3c-0.4,0.2-0.8,0.4-1.1,0.6c-4.3,2.1-8.1,2.2-11,0.6c-0.1,0-0.1-0.1-0.2-0.1c-3-1.8-4.8-5.6-4.8-10.9
			c0-10.4,0-20.8,0-31.1c0-10.9,7.7-24.2,17.1-29.6c9-5.2,18-10.4,27-15.6c4.6-2.7,8.8-3,11.9-1.3c0.1,0,0.1,0.1,0.2,0.1
			C177.5,10.9,179.5,14.8,179.5,20.2z"/>
		<path class="st7" d="M109.4,89.8c-3.1-1.8-5-5.6-5-11.1c0-10.4,0-20.8,0-31.1c0-10.9,7.7-24.2,17.1-29.6c9-5.2,18-10.4,27-15.6
			c4.7-2.7,9-3,12.1-1.2c4.6,2.6,9.1,5.3,13.7,7.9c-3.1-1.7-7.3-1.4-11.9,1.3c-9,5.2-18,10.4-27,15.6c-9.4,5.5-17.1,18.7-17.1,29.6
			c0,10.4,0,20.8,0,31.1c0,5.3,1.8,9.1,4.8,10.9C118.5,95,114,92.4,109.4,89.8z"/>
		<path class="st7" d="M139.4,94.3l9.5,11.9l-13.9-8l-0.8-1c0.4-0.2,0.8-0.4,1.1-0.6C136.7,95.8,138,95,139.4,94.3z"/>
		<g>
			<path marker-start="none" marker-end="none" class="st8" d="M132.9,57c0.2-7.7,3.5-15.5,8.3-21.1c3.9-4.2,6.8-6.2,9.8-7.3
				c9.6-3.6,17.8,3.2,18.5,15.3c0.4,6.8-1.9,13.9-7.2,21.3c-2.9,3.5-6.5,6.2-10.5,7.7C141.1,76.4,132.6,69.3,132.9,57z"/>
			<path marker-start="none" marker-end="none" class="st9" d="M139.3,71.7c2.6-4.6,7.2-8.7,12.3-10.5c5.1-1.8,9.6-1.1,12.2,1.7
				c-3.1,4.5-7.4,8.1-12.1,9.8C147,74.4,142.6,73.9,139.3,71.7z"/>
			<path marker-start="none" marker-end="none" class="st10" d="M142.1,73.1L142.1,73.1c2.4-3.6,5.9-6.5,9.7-7.7
				c3.6-1.2,6.9-0.8,9.4,0.9l-0.2,0.2c-2.4,2.6-5.9,4.9-9.6,6.2C148,73.8,144.7,73.8,142.1,73.1z"/>
			<path marker-start="none" marker-end="none" class="st11" d="M143.5,70l1.1-5.2L147,64l-1,5.2L143.5,70z"/>
			<path marker-start="none" marker-end="none" class="st11" d="M157.3,65.3l-1.2-4.4l2.3-0.9l1.2,4.4L157.3,65.3z"/>
			<path marker-start="none" marker-end="none" class="st12" d="M142.6,73.3l0.3-3.2L160,64l-0.2,3.8c-2.4,2.2-5.1,3.9-8,4.9
				C148.5,73.9,145.4,74,142.6,73.3z"/>
			<path marker-start="none" marker-end="none" class="st12" d="M143.5,73.5l-0.3-3.5l17.1-6.1l0.4,3c-2.6,2.6-5.6,4.7-8.9,5.8
				C148.9,73.8,146.1,74,143.5,73.5z"/>
			<path marker-start="none" marker-end="none" class="st13" d="M143.5,73.5l0.2-2.8l8-2.8l0.1,4.8c0,0,0,0,0,0
				C148.8,73.8,146,74,143.5,73.5z"/>
			<path marker-start="none" marker-end="none" class="st11" d="M151.8,72.8l-0.1-4.8l7.5-2.7l0,0l0.3-0.1l0.3,2.7
				C157.5,70,154.7,71.7,151.8,72.8z"/>
			<path marker-start="none" marker-end="none" class="st14" d="M138.3,55.2c0.1-8.7,5.9-17.9,12.8-20.4c6.9-2.6,12.8,2.3,13.2,11
				c0.4,8.7-5.2,17.9-12.6,20.6C144.3,69,138.2,63.9,138.3,55.2z"/>
			<path marker-start="none" marker-end="none" class="st15" d="M140.3,54.7l0-7.3l11.8-4.2l0.1,7.3L140.3,54.7z"/>
			<path marker-start="none" marker-end="none" class="st16" d="M156.7,48.7l-0.2-7.1l5.9-2.3l0.3,7.1
				C162.7,46.4,156.7,48.7,156.7,48.7z"/>
			<path marker-start="none" marker-end="none" class="st17" d="M162.9,46.3c-0.3-0.2-0.4-5.8-0.5-6.9c0.1,0.1,0.3,0.2,0.5,0.4
				c0.8,1.2,1.5,4.8,1.4,6.2C164.1,46,162.9,46.4,162.9,46.3z"/>
			<path marker-start="none" marker-end="none" class="st18" d="M153,60.1c0-0.4,0.1-0.9,0.3-1.3c1.2-3.3,3.3-13.1,2.2-15.2
				c1.3-0.2,3.2,2.2,3.1,3.6c-0.2,3.4-2.4,9.8-4.8,12.9C153.4,60.7,153,60.5,153,60.1z"/>
			<path marker-start="none" marker-end="none" class="st9" d="M156.3,63.2c-0.2-0.8-0.2-1.4-0.1-0.6L156.3,63.2z M156.1,61.6
				l-0.1-0.6c0-0.1,0-0.2,0-0.2c-0.1-0.3-0.1-0.4,0,0C156,61,156,61.3,156.1,61.6z M155.9,59.9l-0.1-0.5c0-0.2,0-0.3,0-0.4
				c0-0.2,0-0.2,0,0C155.8,59.2,155.8,59.5,155.9,59.9z M155.8,55.9c0-0.7,0-1.3,0-0.6L155.8,55.9z M155.8,54.3c0-0.8,0.1-1.4,0-0.7
				L155.8,54.3z M138.3,55.2c0.1-8.7,5.9-17.9,12.8-20.4c5.5-2,10.4,0.6,12.3,6.2c-0.8-1-1.8-1.4-2.7-1c-1.1,0.4-2.1,1.8-3.2,4.8
				l0-0.1c-2-1.5-4.6-1.9-7.3-0.9c-5.4,1.9-9.9,8.6-11.3,15.9C138.4,58.4,138.3,56.8,138.3,55.2z M155.9,52.6
				c0.1-0.9,0.1-1.4,0.1-0.7L155.9,52.6z M156.1,51c0.1-0.9,0.2-1.5,0.1-0.6L156.1,51z M156.3,49.4l0.1-0.6c0-0.2,0.1-0.4,0-0.2
				c0-0.2,0-0.2,0,0C156.5,48.6,156.4,48.9,156.3,49.4z M156.6,47.9l0.1-0.5c0-0.1,0-0.2,0.1-0.3c0-0.1,0-0.2,0,0
				C156.7,47.2,156.7,47.5,156.6,47.9z M157,46.3l0.1-0.3c0-0.1,0.1-0.3,0.1-0.4c0-0.2,0-0.2,0,0C157.1,45.8,157.1,46,157,46.3z"/>
			<path marker-start="none" marker-end="none" class="st19" d="M155.9,58.9c0.5-0.5,1.8-0.3,2.5-0.7c3.3-1.7,4.8-3.2,7.4-4.9
				C164.4,56.3,155.5,67.7,155.9,58.9z"/>
			<path marker-start="none" marker-end="none" class="st20" d="M155.9,59c-0.2-2.9,4.9-10.4,1.5-14.4c1,0.7,8.5,8.1,8.5,8.6
				C164,56.7,158.6,59.2,155.9,59z"/>
			<path marker-start="none" marker-end="none" class="st21" d="M149,57.9c1,0.7,3.3,0.9,4.6,1c-0.1,0.6-0.8,1.4-0.8,1.9
				C151.8,60.6,149.6,58.8,149,57.9z"/>
			<path marker-start="none" marker-end="none" class="st21" d="M153,59.4c1.2-3.6,5.5-9.7,5.1-13.6c2.9,4.3-2.9,8.5-1.4,14.9
				c0.2,0.8,0.5,1.3,1.3,1.3C157,63.5,151.5,63.7,153,59.4z"/>
			<path marker-start="none" marker-end="none" class="st22" d="M150.9,49.7l0.6-2.6l0.6-2.6l0.7,2.1l0.7,2.1l-1.4,0.5L150.9,49.7z"
				/>
			<path marker-start="none" marker-end="none" class="st23" d="M151.4,52.5l-2.6,0.1l-2.6,0.1l5-3.3l0.1,1.6L151.4,52.5z"/>
			<path marker-start="none" marker-end="none" class="st21" d="M150.6,51.1c0-1.2,0.7-2.4,1.6-2.7c0.9-0.3,1.7,0.3,1.7,1.5
				c0,1.2-0.7,2.4-1.6,2.7C151.4,52.9,150.7,52.3,150.6,51.1z"/>
			<path marker-start="none" marker-end="none" class="st14" d="M151.6,49.7c0-0.5,0.3-1,0.7-1.2c0.4-0.1,0.7,0.1,0.7,0.7
				c0,0.5-0.3,1-0.7,1.1C151.9,50.5,151.6,50.1,151.6,49.7z"/>
			<path marker-start="none" marker-end="none" class="st22" d="M162.1,45.8l0.3-3.6l0.7,3.2l-0.5,0.2L162.1,45.8z"/>
			<path marker-start="none" marker-end="none" class="st23" d="M163.3,47l0-0.7l0-0.7l0.3,0.2l0.3,0.2l-0.3,0.5L163.3,47z"/>
			<path marker-start="none" marker-end="none" class="st10" d="M162,46.9c0-0.9,0.2-1.7,0.6-1.8c0.4-0.1,0.7,0.5,0.7,1.3
				c0,0.9-0.2,1.7-0.6,1.8C162.4,48.3,162.1,47.8,162,46.9z"/>
			<path marker-start="none" marker-end="none" class="st14" d="M162.4,45.9c0-0.3,0.1-0.7,0.3-0.8c0.2-0.1,0.3,0.2,0.3,0.5
				c0,0.3-0.1,0.7-0.3,0.8C162.5,46.5,162.4,46.3,162.4,45.9z"/>
			<path marker-start="none" marker-end="none" class="st21" d="M142.8,49.9C142.8,49.9,142.8,49.9,142.8,49.9L142.8,49.9
				C142.8,49.9,142.8,49.9,142.8,49.9z M143.2,49.5c1.1-5.5,6.2-8.3,9.7-7.6c0.8,0.1,1.3,0.8,1.7,1.6c-1.3-0.1-2.6,0.1-4.1,0.7
				C147.8,45.1,145.3,47,143.2,49.5z"/>
			<path marker-start="none" marker-end="none" class="st21" d="M157.3,44.8c0,0,0.1,0,0.2-0.1c0.3-4.9,2.8-7,4.6-6.1
				c0.6,0.3,0.9,1.7,1.3,2.4c-0.8-1.9-3.2-0.5-4.2,0.9c-0.3,0.4-1.2,2.2-1.7,2.7l0,0.1C157.4,44.8,157.4,44.7,157.3,44.8z"/>
		</g>
	</g>
	<g>
		<path class="st24" d="M226,121.7c0,14.5,0,29.1,0,43.6c0,15.3-10.7,33.9-24,41.5c-1.9,1.1-3.7,2.1-5.6,3.2l-13.3,32l-13.3-16.6
			c-1.9,1.1-3.7,2.1-5.6,3.2c-0.5,0.3-1.1,0.6-1.6,0.9c-6,3-11.4,3.1-15.3,0.8c-0.1-0.1-0.2-0.1-0.3-0.2c-4.2-2.6-6.7-7.9-6.7-15.3
			c0-14.5,0-29.1,0-43.6c0-15.3,10.7-33.9,24-41.5c12.6-7.3,25.2-14.5,37.8-21.8c6.5-3.7,12.4-4.2,16.7-1.8c0.1,0,0.2,0.1,0.3,0.1
			C223.3,108.7,226,114,226,121.7z"/>
		<path class="st25" d="M127.9,219c-4.3-2.5-7-7.9-7-15.5c0-14.5,0-29.1,0-43.6c0-15.3,10.7-33.9,24-41.5
			c12.6-7.3,25.2-14.5,37.8-21.8c6.6-3.8,12.6-4.2,16.9-1.7c6.4,3.7,12.8,7.4,19.2,11.1c-4.3-2.3-10.2-1.9-16.7,1.8
			c-12.6,7.3-25.2,14.5-37.8,21.8c-13.2,7.6-24,26.2-24,41.5c0,14.5,0,29.1,0,43.6c0,7.5,2.6,12.7,6.7,15.3
			C140.6,226.4,134.3,222.7,127.9,219z"/>
		<path class="st25" d="M169.9,225.4l13.3,16.6l-19.4-11.2l-1.1-1.3c0.5-0.3,1.1-0.5,1.6-0.9C166.1,227.5,168,226.4,169.9,225.4z"/>
		<g>
			<g>
				<path class="st2" d="M187.8,154.6l0,18.9c2.2-3.1,5-5.8,8.1-7.6l0-8.6L187.8,154.6z"/>
				<path class="st2" d="M201.9,151.1L201.9,151.1l0.1,12.5c2.1-0.4,4.2-0.3,6,0.2l0-18.3l-23.1-8.6l-23.2,24.3l-0.3,33.4l6.1,1.4
					l0.2-32.6l17.2-18.3L201.9,151.1z"/>
				<path class="st2" d="M182.1,193.1l-0.5-0.1l0.1-36.1l-7.9,8.7l-0.2,31.9l10.9,2.3C183.2,198.1,182.4,195.8,182.1,193.1z"/>
			</g>
			<g>
				<path class="st2" d="M205.9,188.7l-14.1,6.9c0.1-1.6,0.7-3.3,1.5-5.1c0.8-1.7,2.4-4.1,4.6-6.9c1.3-1.7,2.2-3,2.6-3.7
					c0.4-0.8,0.5-1.3,0.5-1.8c0-0.6-0.2-0.9-0.5-1.2c-0.4-0.2-0.9-0.2-1.4,0c-0.6,0.3-1.1,0.7-1.5,1.2c-0.4,0.5-0.6,1.4-0.7,2.5
					l-4.7,1.7c0.2-1.6,0.5-2.9,1-3.9c0.5-1,1.2-1.9,2.1-2.8c0.9-0.8,2.2-1.6,3.7-2.2c1.6-0.7,3-1,3.8-1c0.9,0,1.6,0.3,2.2,1
					c0.5,0.6,0.8,1.4,0.8,2.4c0,1.1-0.3,2.2-0.9,3.5c-0.6,1.3-1.7,2.8-3.3,4.8c-0.9,1.2-1.5,1.9-1.9,2.3c-0.3,0.4-0.7,1-1.1,1.6
					l7.3-3.4L205.9,188.7L205.9,188.7z"/>
			</g>
		</g>
	</g>
	<g>
		<path class="st26" d="M302.8,126.8c0,6.9,0,13.9,0,20.8c0,7.6-5.4,16.9-12,20.8c-10.2,5.9-20.4,11.7-30.5,17.6l-12,17.3
			c0-5.4,0-39.5,0-45c0-7.6,5.4-16.9,12-20.8c10.2-5.9,20.4-11.7,30.5-17.6c3.2-1.9,6.2-2.1,8.3-0.9
			C301.4,120.2,302.8,122.9,302.8,126.8z"/>
		<path class="st27" d="M287,111.9c4.1,2.4,8.2,4.7,12.2,7.1c-2.2-1.2-5.1-1-8.3,0.9c-10.2,5.9-20.4,11.7-30.5,17.6
			c-6.6,3.8-12,13.1-12,20.8c0,5.5,0,39.6,0,45l-12.5-7.2c0-5.4,0-39.5,0-45c0-7.6,5.4-16.9,12-20.8c10.2-5.9,20.4-11.7,30.5-17.6
			c3.3-1.9,6.3-2.1,8.5-0.8C286.9,111.9,286.9,111.9,287,111.9z"/>
		<g>
			<path marker-start="none" marker-end="none" class="st14" d="M285.1,141.5c-1-2-6,1.5-8.2,2.6c-6.2,3-10.4,5.6-13.3,3.3l0,0
				c3.2,1.7,11.4-3,15.8-6.2c2.8-2.1,7.9-5.9,9.3-3.5c0.6,1-3.8,9.7-4.6,11c-1.1,1.8-2.3,3.9-3.3,5.5
				C282.3,151.1,286.6,144.3,285.1,141.5z"/>
			<path class="st14" d="M269.3,161.6c1-0.5,1.9,0.2,1.9,1.4c0,1.3-0.9,2.6-1.9,3c-1.1,0.4-1.9-0.2-1.9-1.5
				C267.4,163.3,268.3,162,269.3,161.6z"/>
			<path class="st14" d="M278.2,157.5c1-0.5,1.9,0.2,1.9,1.6c0,1.4-0.8,2.8-1.9,3.2c-1,0.4-1.9-0.3-1.9-1.6S277.2,158,278.2,157.5z"
				/>
		</g>
	</g>
	<g>
		<path class="st3" d="M360.1,193.5c0,10.8,0,21.6,0,32.3c0,11.9-8.3,26.3-18.6,32.3c-15.8,9.1-31.6,18.3-47.4,27.4l-18.6,26.8
			c0-8.4,0-61.4,0-69.9c0-11.9,8.3-26.3,18.6-32.3c15.8-9.1,31.6-18.2,47.4-27.4c5-2.9,9.6-3.2,13-1.4
			C358,183.2,360.1,187.4,360.1,193.5z"/>
		<path class="st4" d="M335.5,170.3c6.3,3.7,12.7,7.3,19,11c-3.4-1.8-7.9-1.5-13,1.4c-15.8,9.1-31.6,18.3-47.4,27.4
			c-10.3,5.9-18.6,20.4-18.6,32.3c0,8.5,0,61.5,0,69.9L256,301.1c0-8.4,0-61.4,0-69.9c0-11.9,8.3-26.3,18.6-32.3
			c15.8-9.1,31.6-18.3,47.4-27.4c5.1-3,9.8-3.2,13.2-1.3C335.3,170.2,335.4,170.3,335.5,170.3z"/>
		<g>
			<path id="e_2_" class="st28" d="M297.8,240.4c-3.8,1.8-7.1,4.6-7.2,8.8c-0.1,3.3,1.9,4.5,6.9,2.2c5.9-2.7,6.3-6.2,6.3-6.2
				l-2.8,1.3c0,0-0.7,2.1-3.6,3.5c-2.4,1.1-4.1,0.5-4.1-1.5l10.9-5.1l0-1.3C304.3,240.2,303,237.9,297.8,240.4L297.8,240.4z
				 M297.6,242c2.3-1.1,3.8-0.6,3.8,1.2l-7.9,3.7C293.6,245,295.6,243,297.6,242z"/>
			<path id="b_2_" class="st29" d="M304.6,233.1l-0.4,13.1c0,0.7-0.1,1.8-0.1,1.8l2.7-1.3c0,0,0.1-0.8,0.2-1.5c0,0,1.3,1.2,5-0.6
				c3.8-1.8,6.5-5.5,6.6-8.8c0.1-3.1-2.3-4.4-6.3-2.4c-3.8,1.8-5,4.2-5,4.2l0.2-5.9L304.6,233.1z M311.4,235.5
				c2.6-1.3,4.2-0.4,4.2,1.8c-0.1,2.4-2,4.9-4.3,6c-2.8,1.3-4.2,0.2-4.2-1.9C307.1,239.5,308.5,236.9,311.4,235.5z"/>
			<path id="a_2_" class="st30" d="M325.1,226.9c-5.7,2.9-6.2,5.8-6.2,6.3l2.8-1.4c0,0,0.2-1.7,3.1-3.2c1.9-1,3.3-1,3.3,0.5l0,0.5
				l-3.3,1.7c-4.4,2.2-6.8,4.6-6.8,6.8c-0.1,2.3,2.1,2.5,5,1c4-2,5.3-4.6,5.3-4.6c0,0.8,0,1.5,0,1.5l2.5-1.3c0,0-0.1-0.9-0.1-1.5
				l0.1-5.2C331,224.6,327.9,225.5,325.1,226.9L325.1,226.9z M328.1,231.3l0,0.7c0,0.9-0.7,3.5-4.4,5.4c-2,1-2.9,0.6-2.9-0.5
				C320.9,234.9,323.8,233.5,328.1,231.3L328.1,231.3z"/>
			<path id="y_2_" class="st31" d="M329.4,225.1l3.1-1.7l4.4,5.8l4.7-10.7l2.8-1.5l-8.5,19.1l-3,1.6l2.5-5.3L329.4,225.1z"/>
		</g>
	</g>
</g>
</svg>
