<?xml version="1.0" encoding="utf-8"?>
<!-- Generator: Adobe Illustrator 23.0.4, SVG Export Plug-In . SVG Version: 6.00 Build 0)  -->
<svg version="1.1" id="Capa_1" xmlns="http://www.w3.org/2000/svg" xmlns:xlink="http://www.w3.org/1999/xlink" x="0px" y="0px"
	 viewBox="0 0 40.9 40.9" style="enable-background:new 0 0 40.9 40.9;" xml:space="preserve">
<style type="text/css">
	.st0{fill:#F06D00;}
	.st1{fill:#FFFFFF;}
</style>
<g>
	<circle class="st0" cx="20.5" cy="20.5" r="20.5"/>
	<g>
		<g>
			<path class="st1" d="M20.1,11.2c0.2,0,0.5,0,0.7,0c0.3,0.2,0.7,0.3,0.9,0.6c0.7,1,1.6,1.2,2.8,0.9c1.1-0.3,1.8,0.3,2,1.4
				c0.1,0.3,0.2,0.6,0.2,1c0,0.5,0.3,0.8,0.7,1c0.7,0.3,1.5,0.7,1.9,1.5c0,0.3,0,0.6,0,0.9c-0.3,0.5-0.6,1-0.8,1.6
				c-0.1,0.2-0.1,0.6,0,0.8c0.2,0.5,0.5,1,0.8,1.6c0,0.3,0,0.6,0,0.9c-0.3,0.3-0.5,0.8-0.9,0.9c-1.3,0.5-1.9,1.4-2,2.7
				c-0.1,0.9-0.8,1.3-1.7,1.3c-0.4,0-0.9-0.2-1.3-0.2c-0.3,0-0.7,0.1-1,0.3c-0.6,0.4-1.1,0.9-1.7,1.3c-0.2,0-0.5,0-0.7,0
				c-0.3-0.2-0.7-0.3-0.9-0.6c-0.7-1-1.6-1.2-2.8-0.9c-1.1,0.3-1.8-0.3-2-1.4c-0.1-0.3-0.2-0.6-0.2-1c0-0.5-0.3-0.8-0.7-1
				c-0.7-0.3-1.5-0.7-1.9-1.5c0-0.3,0-0.6,0-0.9c0.3-0.5,0.6-1,0.8-1.6c0.1-0.2,0.1-0.6,0-0.8c-0.2-0.5-0.5-1-0.8-1.6
				c0-0.3,0-0.6,0-0.9c0.3-0.3,0.5-0.8,0.8-0.9c1.3-0.5,1.9-1.4,2-2.7c0.1-0.9,0.8-1.3,1.7-1.3c0.4,0,0.9,0.1,1.3,0.2
				c0.5,0.1,0.8-0.1,1.1-0.4C19,12.1,19.6,11.7,20.1,11.2z M24.7,27.1c0.5,0.1,0.8-0.1,0.9-0.6c0-0.4,0.1-0.7,0.2-1.1
				c0.1-0.7,0.5-1.2,1.1-1.5c0.3-0.1,0.5-0.3,0.8-0.4c0.7-0.4,0.8-0.6,0.4-1.3c-0.7-1.1-0.8-2.1-0.1-3.3c0.6-1,0.5-1.1-0.5-1.5
				c-1.1-0.5-1.7-1.2-1.8-2.5c-0.1-1.2-0.3-1.2-1.4-1c-0.1,0-0.2,0-0.3,0.1c-0.9,0.2-1.6,0-2.3-0.7c-1.1-1.2-1.1-1.2-2.2,0
				c-0.6,0.7-1.3,0.9-2.2,0.7c-1.9-0.4-1.6-0.1-1.9,1.4c-0.1,0.9-0.5,1.5-1.3,1.8c-0.2,0.1-0.3,0.2-0.4,0.2c-1,0.5-1,0.5-0.5,1.5
				c0.1,0.3,0.3,0.5,0.4,0.8c0.1,0.5,0.1,1,0,1.5c0,0.3-0.3,0.5-0.4,0.8c-0.5,1-0.5,1.1,0.5,1.5c1.1,0.5,1.7,1.2,1.8,2.5
				c0.1,1.1,0.3,1.3,1.4,1c1.2-0.3,2.1,0,2.9,1c0.1,0.1,0.2,0.1,0.2,0.2c0.6,0.5,0.8,0.6,1.3,0c0.9-1.1,2-1.5,3.4-1.1
				C24.5,27.1,24.6,27.1,24.7,27.1z"/>
			<path class="st1" d="M17.1,24.5c-0.5,0-0.7-0.4-0.5-0.8c0.1-0.1,0.2-0.3,0.3-0.4c2.2-2.2,4.4-4.4,6.6-6.5
				c0.1-0.1,0.2-0.3,0.4-0.3c0.2,0,0.4,0,0.5,0.1c0.1,0.1,0.1,0.4,0.1,0.6c0,0.1-0.2,0.3-0.3,0.4c-2.2,2.2-4.3,4.3-6.5,6.5
				C17.4,24.3,17.2,24.4,17.1,24.5z"/>
			<path class="st1" d="M24.5,23.3c0,1.1-0.9,2-1.9,2c-1,0-1.9-0.9-1.9-1.9c0-1.1,0.8-2,1.9-2C23.6,21.3,24.5,22.2,24.5,23.3z
				 M22.6,24.2c0.5,0,0.9-0.4,0.9-0.8c0-0.5-0.4-0.9-0.9-0.9c-0.5,0-0.9,0.4-0.9,0.9C21.7,23.8,22.1,24.2,22.6,24.2z"/>
			<path class="st1" d="M16.4,17.6c0-1,0.9-1.9,1.9-1.9c1.1,0,2,0.9,2,2c0,1.1-0.9,2-2,2C17.3,19.6,16.4,18.7,16.4,17.6z M19.2,17.6
				c0-0.5-0.4-0.9-0.8-0.9c-0.5,0-0.9,0.4-0.9,0.9c0,0.5,0.4,0.9,0.8,0.9C18.8,18.5,19.2,18.1,19.2,17.6z"/>
		</g>
	</g>
</g>
</svg>
