<?xml version="1.0" encoding="utf-8"?>
<!-- Generator: Adobe Illustrator 23.0.4, SVG Export Plug-In . SVG Version: 6.00 Build 0)  -->
<svg version="1.1" id="Capa_1" xmlns="http://www.w3.org/2000/svg" xmlns:xlink="http://www.w3.org/1999/xlink" x="0px" y="0px"
	 viewBox="0 0 40.9 40.9" style="enable-background:new 0 0 40.9 40.9;" xml:space="preserve">
<style type="text/css">
	.st0{fill:#F06D00;}
	.st1{fill:#FFFFFF;}
</style>
<g>
	<circle class="st0" cx="20.5" cy="20.5" r="20.5"/>
	<g>
		<g>
			<path class="st1" d="M31,11.1c0,6.2,0,12.4,0,18.6c-0.1,0.2-0.2,0.4-0.3,0.6c-0.2,0.3-0.5,0.5-0.9,0.6c-6.2,0-12.4,0-18.6,0
				c-0.4-0.1-0.8-0.3-1-0.8C10.1,30.1,10,30,10,29.8c0-6.2,0-12.5,0-18.7c0.1-0.3,0.2-0.6,0.5-0.8c0.2-0.1,0.4-0.2,0.7-0.3
				c6.2,0,12.5,0,18.7,0c0.2,0.1,0.3,0.1,0.5,0.2C30.7,10.4,30.9,10.7,31,11.1z M10.7,13.5c0,0.1,0,0.2,0,0.2c0,5.2,0,10.5,0,15.7
				c0,0.6,0.3,0.8,0.8,0.8c6,0,12,0,18,0c0.5,0,0.8-0.3,0.8-0.8c0-5.3,0-10.5,0-15.8c0-0.1,0-0.1,0-0.2
				C23.7,13.5,17.2,13.5,10.7,13.5z M10.7,12.7c6.6,0,13.1,0,19.6,0c0-0.4,0-0.8,0-1.2c0-0.6-0.3-0.9-0.9-0.9c-5.5,0-11.1,0-16.6,0
				c-0.5,0-0.9,0-1.4,0c-0.4,0-0.7,0.3-0.7,0.7C10.6,11.8,10.7,12.3,10.7,12.7z"/>
			<path class="st1" d="M18.3,22.2c-0.9-0.8-1.4-1.7-1.3-2.8c0.1-1.1,0.6-2,1.5-2.7c-0.1,0-0.2,0-0.2-0.1c-0.2-0.1-0.2-0.2-0.2-0.4
				c0-0.2,0.2-0.3,0.3-0.3c0.3,0,0.6,0,0.9,0c-0.1-0.2-0.2-0.4-0.2-0.6c-0.2-0.6,0.1-1.1,0.8-1.2c0.5,0,0.9,0,1.4,0
				c0.7,0,1,0.5,0.8,1.2c-0.1,0.2-0.1,0.4-0.2,0.6c0.3,0,0.5,0,0.8,0c0.3,0,0.4,0.1,0.4,0.3c0,0.2-0.1,0.3-0.4,0.4
				c0.9,0.7,1.4,1.6,1.5,2.8c0.1,1.1-0.4,2.1-1.3,2.8c0.2,0,0.3,0,0.4,0c1.8,0,3.6,0,5.4,0c0.1,0,0.2,0,0.2,0c0.2,0,0.3,0.2,0.3,0.3
				c0,0.2-0.1,0.3-0.3,0.3c-0.1,0-0.1,0-0.2,0c-5.3,0-10.6,0-15.8,0c-0.1,0-0.2,0-0.3,0c-0.2-0.1-0.2-0.2-0.2-0.4
				c0-0.2,0.1-0.3,0.3-0.3c0.1,0,0.2,0,0.2,0c1.8,0,3.6,0,5.4,0C18.1,22.2,18.2,22.2,18.3,22.2z M20.5,22.2c1.6,0,2.8-1.2,2.8-2.7
				c0-1.5-1.3-2.9-2.8-2.9c-1.5,0-2.8,1.4-2.8,2.9C17.7,21,18.9,22.2,20.5,22.2z M20.5,14.9c-0.2,0-0.5,0-0.7,0
				c-0.2,0-0.2,0.1-0.1,0.2c0.1,0.2,0.2,0.5,0.3,0.7c0,0.1,0.1,0.1,0.2,0.1c0.2,0,0.5,0,0.7,0c0.1,0,0.1-0.1,0.2-0.1
				c0.1-0.2,0.2-0.5,0.3-0.7c0.1-0.1,0-0.2-0.1-0.2C20.9,14.9,20.7,14.9,20.5,14.9z"/>
			<path class="st1" d="M26.1,27.5c0.5,0,0.9,0,1.4,0c0.6,0,1.1,0.5,1.1,1.1c0,0.6-0.5,1-1.1,1c-0.9,0-1.8,0-2.8,0
				c-0.5,0-1-0.4-1.1-0.9c-0.1-0.5,0.3-1,0.8-1.2c0.2,0,0.4,0,0.6,0C25.3,27.5,25.7,27.5,26.1,27.5C26.1,27.5,26.1,27.5,26.1,27.5z
				 M26.1,28.2C26.1,28.2,26.1,28.2,26.1,28.2c-0.4,0-0.9,0-1.3,0c-0.3,0-0.4,0.1-0.4,0.3c0,0.2,0.2,0.4,0.4,0.4c0.9,0,1.8,0,2.7,0
				c0.3,0,0.4-0.1,0.4-0.4c0-0.2-0.1-0.3-0.4-0.3C27,28.2,26.5,28.2,26.1,28.2z"/>
			<path class="st1" d="M20.5,26.1c1,0,2,0,3.1,0c0.3,0,0.4,0.1,0.4,0.3c0,0.2-0.1,0.4-0.3,0.4c-0.1,0-0.1,0-0.2,0c-2,0-3.9,0-5.9,0
				c-0.1,0-0.2,0-0.3,0c-0.2,0-0.3-0.2-0.3-0.4c0-0.2,0.1-0.3,0.3-0.3c0.1,0,0.1,0,0.2,0C18.5,26.1,19.5,26.1,20.5,26.1z"/>
			<path class="st1" d="M25.5,24.3c0.9,0,1.7,0,2.6,0c0.1,0,0.3,0.1,0.4,0.2c0.2,0.2,0,0.5-0.3,0.5c-0.3,0-0.6,0-0.9,0
				c-1.4,0-2.8,0-4.2,0c0,0-0.1,0-0.1,0c-0.2,0-0.4-0.2-0.3-0.4c0-0.2,0.2-0.3,0.4-0.3c0.6,0,1.3,0,1.9,0
				C25.1,24.3,25.3,24.3,25.5,24.3C25.5,24.3,25.5,24.3,25.5,24.3z"/>
			<path class="st1" d="M19.4,24.3c0.7,0,1.3,0,2,0c0.3,0,0.4,0.1,0.4,0.3c0,0.2-0.2,0.4-0.4,0.4c-1.3,0-2.7,0-4,0
				c-0.3,0-0.4-0.1-0.4-0.4c0-0.2,0.1-0.3,0.4-0.3C18.1,24.3,18.7,24.3,19.4,24.3z"/>
			<path class="st1" d="M26.6,26.8c-0.5,0-1,0-1.4,0c-0.1,0-0.2,0-0.2,0c-0.2-0.1-0.2-0.2-0.2-0.3c0-0.2,0.1-0.3,0.3-0.3
				c0,0,0.1,0,0.1,0c1,0,2,0,3,0c0,0,0.1,0,0.1,0c0.2,0,0.3,0.1,0.3,0.3c0,0.2-0.1,0.3-0.3,0.4c-0.1,0-0.2,0-0.3,0
				C27.5,26.8,27,26.8,26.6,26.8C26.6,26.8,26.6,26.8,26.6,26.8z"/>
			<path class="st1" d="M12.8,24.5c0.2-0.2,0.5-0.5,0.7-0.7c0.2-0.2,0.4-0.2,0.6-0.1c0.2,0.2,0.1,0.4-0.1,0.6
				c-0.3,0.3-0.6,0.6-0.9,0.9c-0.2,0.2-0.4,0.2-0.6,0c-0.1-0.1-0.2-0.2-0.3-0.3c-0.2-0.2-0.2-0.4,0-0.5
				C12.3,24.3,12.5,24.3,12.8,24.5C12.7,24.5,12.7,24.5,12.8,24.5z"/>
			<path class="st1" d="M12.8,26.3c0.2-0.2,0.5-0.5,0.7-0.7c0.2-0.2,0.4-0.2,0.6-0.1c0.2,0.2,0.1,0.4-0.1,0.6
				c-0.3,0.3-0.6,0.6-0.9,0.9c-0.2,0.2-0.4,0.2-0.6,0c-0.1-0.1-0.2-0.2-0.3-0.3c-0.2-0.2-0.2-0.4,0-0.5C12.3,26,12.5,26,12.8,26.3
				C12.7,26.2,12.7,26.2,12.8,26.3z"/>
			<path class="st1" d="M15.7,24.3c0.3,0,0.5,0.1,0.5,0.4c0,0.2-0.2,0.3-0.5,0.3c-0.1,0-0.1,0-0.2,0c-0.2,0-0.3-0.2-0.3-0.4
				c0-0.2,0.1-0.3,0.3-0.3C15.6,24.3,15.7,24.3,15.7,24.3z"/>
			<path class="st1" d="M15.7,26.1c0.1,0,0.2,0,0.2,0c0.2,0,0.3,0.2,0.3,0.3c0,0.2-0.1,0.3-0.3,0.3c-0.1,0-0.3,0-0.4,0
				c-0.2,0-0.3-0.2-0.3-0.3c0-0.2,0.1-0.3,0.4-0.3C15.6,26.1,15.7,26.1,15.7,26.1C15.7,26.1,15.7,26.1,15.7,26.1z"/>
			<path class="st1" d="M28.2,12.1c-0.3,0-0.7,0-1,0c-0.3,0-0.4-0.1-0.4-0.3c0-0.2,0.1-0.4,0.4-0.4c0.7,0,1.3,0,2,0
				c0.2,0,0.4,0.1,0.4,0.3c0,0.2-0.2,0.4-0.4,0.4C28.8,12.1,28.5,12.1,28.2,12.1C28.2,12.1,28.2,12.1,28.2,12.1z"/>
			<path class="st1" d="M11.9,12.1c-0.3,0-0.5-0.1-0.5-0.4c0-0.2,0.2-0.3,0.5-0.3c0.1,0,0.1,0,0.2,0c0.2,0,0.3,0.2,0.3,0.3
				c0,0.2-0.1,0.3-0.4,0.3C12,12.1,11.9,12.1,11.9,12.1z"/>
			<path class="st1" d="M15.4,12.1c-0.4,0-0.5-0.1-0.5-0.3c0-0.2,0.2-0.4,0.5-0.4c0,0,0.1,0,0.1,0c0.3,0,0.4,0.1,0.4,0.4
				c0,0.2-0.2,0.3-0.4,0.3C15.5,12.1,15.4,12.1,15.4,12.1z"/>
			<path class="st1" d="M13.6,12.1c-0.1,0-0.1,0-0.2,0c-0.2,0-0.3-0.1-0.3-0.3c0-0.2,0.1-0.3,0.3-0.4c0.1,0,0.3,0,0.4,0
				c0.2,0,0.3,0.2,0.3,0.4c0,0.2-0.1,0.3-0.4,0.3C13.7,12.1,13.7,12.1,13.6,12.1C13.6,12.1,13.6,12.1,13.6,12.1z"/>
			<path class="st1" d="M21.5,20.1c0,0.4-0.2,0.7-0.6,0.9c-0.1,0-0.1,0.1-0.1,0.2c-0.1,0.2-0.2,0.3-0.4,0.3c-0.2,0-0.3-0.1-0.3-0.3
				c0-0.1-0.1-0.1-0.1-0.2c-0.1-0.1-0.3-0.2-0.4-0.4c-0.1-0.2-0.1-0.4,0.1-0.5c0.2-0.1,0.4-0.1,0.5,0.1c0.1,0.1,0.2,0.2,0.4,0.2
				c0.2,0,0.3-0.1,0.3-0.3c0-0.2-0.1-0.3-0.3-0.4c-0.1,0-0.2,0-0.3,0c-0.4-0.1-0.7-0.4-0.8-0.9c-0.1-0.4,0.1-0.8,0.5-1
				c0.1-0.1,0.2-0.1,0.2-0.2c0-0.2,0.2-0.3,0.3-0.3c0.2,0,0.3,0.1,0.3,0.3c0,0.1,0.1,0.2,0.2,0.2c0.1,0.1,0.3,0.2,0.4,0.4
				c0.1,0.2,0.1,0.3-0.1,0.5c-0.1,0.1-0.3,0.1-0.5-0.1c0,0,0,0,0,0c-0.1-0.2-0.3-0.2-0.4-0.1c-0.2,0.1-0.2,0.2-0.2,0.4
				c0,0.2,0.2,0.3,0.4,0.3C21.1,19.1,21.5,19.6,21.5,20.1z"/>
		</g>
	</g>
</g>
</svg>
