<?xml version="1.0" encoding="utf-8"?>
<!-- Generator: Adobe Illustrator 23.0.4, SVG Export Plug-In . SVG Version: 6.00 Build 0)  -->
<svg version="1.1" id="Capa_1" xmlns="http://www.w3.org/2000/svg" xmlns:xlink="http://www.w3.org/1999/xlink" x="0px" y="0px"
	 viewBox="0 0 40.9 40.9" style="enable-background:new 0 0 40.9 40.9;" xml:space="preserve">
<style type="text/css">
	.st0{fill:#F06D00;}
	.st1{fill:#FFFFFF;}
</style>
<g>
	<circle class="st0" cx="20.5" cy="20.5" r="20.5"/>
	<g>
		<g>
			<path class="st1" d="M32.2,26.9c-0.1,0.2-0.3,0.2-0.5,0.2c-2.5,0-4.9,0-7.4,0c-0.2,0-0.4-0.1-0.5-0.2c-0.2-0.2-0.5-0.5-0.7-0.8
				c-0.3,0.3-0.5,0.5-0.8,0.8c-0.1,0.1-0.3,0.2-0.5,0.2c-4.2,0-8.4,0-12.6,0c-0.2,0-0.4,0-0.5-0.2c0-1.3,0-2.6,0-4
				c0.1-0.2,0.3-0.2,0.5-0.2c1.1-0.1,2.1-1,2.1-2.2c0-1.2-0.9-2.1-2.1-2.2c-0.2,0-0.4-0.1-0.5-0.2c0-1.3,0-2.6,0-4
				c0.1-0.2,0.3-0.2,0.5-0.2c4.2,0,8.4,0,12.6,0c0.2,0,0.4,0.1,0.5,0.2c0.2,0.2,0.5,0.5,0.7,0.7c0.3-0.3,0.5-0.5,0.8-0.8
				c0.1-0.1,0.3-0.2,0.5-0.2c2.5,0,5,0,7.4,0c0.2,0,0.4,0,0.5,0.2C32.2,18.3,32.2,22.6,32.2,26.9z M9.4,26.4c0.3,0,0.7,0,1,0
				c3.7,0,7.4,0,11.1,0c0.2,0,0.3,0,0.4-0.2c0.3-0.3,0.5-0.5,0.8-0.8c0.2-0.2,0.4-0.2,0.6,0c0.3,0.3,0.5,0.5,0.8,0.8
				c0.1,0.1,0.2,0.1,0.4,0.1c2.2,0,4.5,0,6.7,0c0.1,0,0.2,0,0.2,0c0-3.9,0-7.9,0-11.8c0,0-0.1,0-0.1,0c-2.3,0-4.7,0-7,0
				c-0.1,0-0.2,0.1-0.2,0.1c-0.3,0.3-0.6,0.6-0.8,0.8c-0.2,0.2-0.4,0.2-0.6,0c-0.3-0.3-0.5-0.5-0.8-0.8c-0.1-0.1-0.2-0.2-0.4-0.2
				c-4,0-7.9,0-11.9,0c-0.1,0-0.2,0-0.2,0c0,1,0,2,0,3c1.5,0.2,2.5,1.4,2.6,2.8c0.1,1.5-0.8,2.6-2.6,3.1C9.4,24.4,9.4,25.3,9.4,26.4
				z"/>
			<path class="st1" d="M15.7,18.3c0.1-1.2,0.6-1.8,1.4-1.8c0.5,0,0.9,0.2,1.2,0.5c0.3,0.4,0.4,0.8,0.3,1.3c0.3,0,0.5,0,0.7,0
				c0.5,0,0.8,0.3,0.8,0.8c0,1.1,0,2.2,0,3.3c0,0.8-0.6,1.5-1.5,1.5c-1,0-2,0-2.9,0c-0.8,0-1.5-0.7-1.5-1.5c0-1.1,0-2.2,0-3.3
				c0-0.5,0.3-0.8,0.8-0.8C15.2,18.3,15.4,18.3,15.7,18.3z M14.9,19c0,1.1,0,2.1,0,3.2c0,0.5,0.3,0.8,0.8,0.8c0.9,0,1.8,0,2.8,0
				c0.5,0,0.8-0.3,0.8-0.8c0-1,0-2,0-3c0-0.1,0-0.1,0-0.2c-0.3,0-0.5,0-0.7,0c0,0,0,0,0,0.1c0,0.2,0,0.4,0,0.5
				c0,0.3-0.1,0.5-0.4,0.5c-0.2,0-0.4-0.2-0.4-0.5c0-0.2,0-0.4,0-0.6c-0.5,0-1,0-1.5,0c0,0.2,0,0.4,0,0.7c0,0.3-0.1,0.4-0.4,0.4
				c-0.2,0-0.4-0.2-0.4-0.4c0-0.2,0-0.4,0-0.7C15.4,19,15.2,19,14.9,19z M16.4,18.2c0.5,0,1,0,1.4,0c0-0.4,0-0.8-0.3-1
				c-0.3-0.2-0.5-0.2-0.8,0C16.4,17.5,16.4,17.9,16.4,18.2z"/>
			<path class="st1" d="M29.7,18.6c-0.1,0.1-0.1,0.3-0.2,0.3c-1.2,1.2-2.4,2.4-3.6,3.6c-0.2,0.2-0.4,0.2-0.5,0
				c-0.2-0.2-0.2-0.4,0-0.6c1.2-1.2,2.4-2.4,3.6-3.6c0.1-0.1,0.3-0.2,0.4-0.1C29.5,18.4,29.6,18.5,29.7,18.6z"/>
			<path class="st1" d="M27.1,19c0,0.6-0.5,1.1-1.1,1.1c-0.6,0-1.1-0.5-1.1-1.1c0-0.6,0.5-1.1,1.1-1.1C26.6,17.9,27.1,18.4,27.1,19z
				 M26.4,19c0-0.2-0.2-0.4-0.4-0.4c-0.2,0-0.4,0.2-0.4,0.4c0,0.2,0.2,0.4,0.4,0.4C26.2,19.4,26.3,19.2,26.4,19z"/>
			<path class="st1" d="M30,21.9c0,0.6-0.5,1.1-1.1,1.1c-0.6,0-1.1-0.5-1.1-1.1c0-0.6,0.5-1.1,1.1-1.1C29.5,20.8,30,21.3,30,21.9z
				 M28.9,21.6c-0.2,0-0.4,0.2-0.4,0.4c0,0.2,0.2,0.4,0.4,0.4c0.2,0,0.4-0.2,0.4-0.4C29.3,21.7,29.1,21.6,28.9,21.6z"/>
			<path class="st1" d="M23.4,17.2c0,0.1,0,0.3,0,0.4c0,0.2-0.2,0.3-0.4,0.3c-0.2,0-0.4-0.1-0.4-0.3c0-0.3,0-0.5,0-0.8
				c0-0.2,0.2-0.3,0.4-0.3c0.2,0,0.4,0.1,0.4,0.4C23.4,16.9,23.4,17,23.4,17.2z"/>
			<path class="st1" d="M22.7,19.4c0-0.1,0-0.3,0-0.4c0-0.2,0.2-0.3,0.4-0.3c0.2,0,0.3,0.1,0.4,0.3c0,0.3,0,0.5,0,0.8
				c0,0.2-0.2,0.3-0.4,0.3c-0.2,0-0.3-0.1-0.4-0.4C22.7,19.6,22.7,19.5,22.7,19.4C22.7,19.4,22.7,19.4,22.7,19.4z"/>
			<path class="st1" d="M23.4,21.6c0,0.1,0,0.3,0,0.4c0,0.2-0.2,0.4-0.4,0.4c-0.2,0-0.4-0.1-0.4-0.4c0-0.2,0-0.5,0-0.7
				c0-0.2,0.2-0.4,0.4-0.4c0.2,0,0.4,0.1,0.4,0.4C23.4,21.3,23.4,21.4,23.4,21.6z"/>
			<path class="st1" d="M22.7,23.8c0-0.1,0-0.2,0-0.4c0-0.2,0.2-0.3,0.4-0.4c0.2,0,0.4,0.1,0.4,0.4c0,0.3,0,0.5,0,0.8
				c0,0.2-0.2,0.3-0.4,0.4c-0.2,0-0.4-0.1-0.4-0.4C22.7,24,22.7,23.9,22.7,23.8z"/>
		</g>
	</g>
</g>
</svg>
