<?xml version="1.0" encoding="utf-8"?>
<!-- Generator: Adobe Illustrator 23.0.4, SVG Export Plug-In . SVG Version: 6.00 Build 0)  -->
<svg version="1.1" id="Capa_1" xmlns="http://www.w3.org/2000/svg" xmlns:xlink="http://www.w3.org/1999/xlink" x="0px" y="0px"
	 viewBox="0 0 40.9 40.9" style="enable-background:new 0 0 40.9 40.9;" xml:space="preserve">
<style type="text/css">
	.st0{fill:#F06D00;}
	.st1{fill:#FFFFFF;}
</style>
<g>
	<circle class="st0" cx="20.5" cy="20.5" r="20.5"/>
	<g>
		<g>
			<path class="st1" d="M34.3,27.2C34,27.9,33.6,28.6,33,29c-0.8,0.6-1.6,0.9-2.6,0.9c-3.7,0-7.4,0-11.1,0c-2.9,0-5.8,0-8.7,0
				c-1.9,0-3.3-1-4-2.7c0,0,0,0,0,0c0-0.2,0-0.4,0-0.5c0.2-0.5,0.5-0.9,1.1-1c0.2,0,0.4,0,0.6,0c0-0.1,0-0.2,0-0.3c0-4,0-8,0-12
				c0-1.5,0.9-2.4,2.4-2.4c6.5,0,13,0,19.5,0c1.5,0,2.4,0.9,2.4,2.4c0,4,0,8,0,12c0,0.1,0,0.2,0,0.4c0.2,0,0.4,0,0.6,0
				c0.6,0.1,0.9,0.5,1.1,1C34.3,26.9,34.3,27,34.3,27.2z M9.2,25.7c0.1,0,0.2,0,0.4,0c5.5,0,10.9,0,16.4,0c0.4,0,0.6,0.2,0.6,0.4
				c0,0.3-0.2,0.4-0.6,0.4c-0.1,0-0.1,0-0.2,0c-3.8,0-7.6,0-11.3,0c-2.1,0-4.2,0-6.3,0c-0.5,0-0.7,0.3-0.5,0.8
				c0.6,1.2,1.6,1.8,2.9,1.8c2,0,3.9,0,5.9,0c4.6,0,9.3,0,13.9,0c1.3,0,2.3-0.6,3-1.8c0.2-0.5,0.1-0.8-0.5-0.8c-1.1,0-2.1,0-3.2,0
				c-0.6,0-1.2,0-1.8,0c-0.4,0-0.6-0.3-0.4-0.6c0.1-0.2,0.3-0.3,0.5-0.3c1.2,0,2.3,0,3.5,0c0.1,0,0.2,0,0.3,0c0-0.1,0-0.2,0-0.3
				c0-4,0-8,0-12.1c0-0.9-0.5-1.4-1.5-1.4c-6.5,0-13,0-19.6,0c-0.9,0-1.5,0.5-1.5,1.5c0,2.9,0,5.8,0,8.6C9.2,23.2,9.2,24.4,9.2,25.7
				z"/>
			<path class="st1" d="M20.5,12.7c3,0,5.9,0,8.9,0c1,0,1.5,0.5,1.5,1.5c0,3.3,0,6.6,0,10c0,0,0,0.1,0,0.1c0,0.4-0.2,0.6-0.4,0.6
				c-0.3,0-0.4-0.2-0.4-0.6c0-3.3,0-6.7,0-10c0-0.5-0.1-0.6-0.6-0.6c-5.9,0-11.8,0-17.8,0c-0.5,0-0.6,0.1-0.6,0.6c0,3.3,0,6.5,0,9.8
				c0,0.1,0,0.2,0,0.2c0,0.4-0.1,0.6-0.4,0.6c-0.3,0-0.4-0.2-0.4-0.6c0-3.4,0-6.7,0-10.1c0-0.9,0.5-1.4,1.4-1.4
				C14.5,12.7,17.5,12.7,20.5,12.7z"/>
			<path class="st1" d="M12.8,20.5c0.4,0,0.8,0.2,1,0.7c0.1,0.1,0.1,0.2,0.3,0.2c0.8,0,1.5,0,2.3,0c0.1,0,0.2,0,0.3-0.2
				c0.2-0.5,0.6-0.7,1.1-0.7c0.5,0,0.9,0.2,1.1,0.7c0.1,0.1,0.1,0.2,0.3,0.2c0.8,0,1.6,0,2.3,0c0.2,0,0.2-0.1,0.3-0.2
				c0.2-0.4,0.6-0.7,1.1-0.7c0.5,0,0.9,0.3,1.1,0.7c0,0.1,0.2,0.2,0.3,0.2c0.8,0,1.6,0,2.4,0c0.1,0,0.2,0,0.3-0.2
				c0.3-0.6,0.9-0.8,1.5-0.7c0.6,0.2,1,0.7,1,1.3c0,0.6-0.4,1.1-1,1.2c-0.6,0.2-1.2-0.1-1.5-0.6c-0.1-0.1-0.1-0.2-0.3-0.2
				c-0.8,0-1.6,0-2.3,0c-0.1,0-0.2,0.1-0.3,0.2c-0.2,0.4-0.6,0.7-1.1,0.7c-0.5,0-0.9-0.3-1.1-0.7c0-0.1-0.2-0.2-0.3-0.2
				c-0.8,0-1.6,0-2.4,0c-0.1,0-0.2,0.1-0.3,0.2c-0.3,0.4-0.6,0.7-1.1,0.7c-0.5,0-0.9-0.2-1.1-0.7c-0.1-0.2-0.2-0.2-0.3-0.2
				c-0.7,0-1.5,0-2.2,0c-0.2,0-0.3,0.1-0.4,0.2c-0.3,0.6-1,0.8-1.6,0.6c-0.6-0.2-0.9-0.8-0.8-1.4C11.5,20.9,12.1,20.5,12.8,20.5z
				 M13.1,21.8c0-0.2-0.2-0.4-0.4-0.4c-0.2,0-0.4,0.2-0.4,0.4c0,0.2,0.2,0.4,0.4,0.4C12.9,22.2,13.1,22,13.1,21.8z M17.9,21.3
				c-0.2,0-0.4,0.2-0.4,0.4c0,0.2,0.2,0.4,0.4,0.4c0.2,0,0.4-0.2,0.4-0.4C18.3,21.5,18.1,21.3,17.9,21.3z M23.1,22.2
				c0.2,0,0.4-0.2,0.4-0.4c0-0.2-0.2-0.4-0.4-0.4c-0.2,0-0.4,0.2-0.4,0.4C22.6,22,22.8,22.2,23.1,22.2z M28.2,22.2
				c0.2,0,0.4-0.2,0.4-0.4c0-0.2-0.2-0.4-0.4-0.4c-0.2,0-0.4,0.2-0.4,0.4C27.8,22,28,22.2,28.2,22.2z"/>
			<path class="st1" d="M20.5,20c-0.6,0-1.1,0-1.7,0c-0.8,0-1.3-0.6-1.3-1.3c0-1,0-2,0-2.9c0-0.8,0.6-1.3,1.3-1.3c1.1,0,2.3,0,3.4,0
				c0.8,0,1.3,0.6,1.3,1.3c0,1,0,2,0,3c0,0.7-0.6,1.3-1.3,1.3c-0.3,0-0.6,0-0.9,0C21,20,20.7,20,20.5,20z M19.2,15.3
				c-0.2,0-0.3,0-0.4,0c-0.3,0-0.5,0.2-0.5,0.5c0,1,0,2,0,3c0,0.3,0.2,0.5,0.5,0.5c1.1,0,2.3,0,3.4,0c0.3,0,0.5-0.2,0.5-0.5
				c0-1,0-2,0-3c0-0.3-0.2-0.4-0.4-0.4c-0.1,0-0.3,0-0.4,0c0,0.4,0,0.8,0,1.2c0,0.4-0.2,0.5-0.5,0.5c-0.5,0-1,0-1.5,0
				c-0.4,0-0.5-0.2-0.5-0.6C19.2,16.1,19.2,15.7,19.2,15.3z M20.9,16.1c0-0.3,0-0.6,0-0.8c-0.3,0-0.6,0-0.8,0c0,0.3,0,0.6,0,0.8
				C20.3,16.1,20.6,16.1,20.9,16.1z"/>
			<path class="st1" d="M12.7,23.9c0.2,0,0.3,0,0.5,0c0.2,0,0.4,0.2,0.4,0.4c0,0.2-0.2,0.4-0.4,0.4c-0.3,0-0.6,0-0.9,0
				c-0.2,0-0.4-0.2-0.4-0.4c0-0.2,0.2-0.4,0.4-0.4C12.4,23.9,12.5,23.9,12.7,23.9z"/>
			<path class="st1" d="M17.9,24.8c-0.1,0-0.3,0-0.4,0c-0.3,0-0.5-0.2-0.4-0.4c0-0.2,0.2-0.4,0.4-0.4c0.3,0,0.6,0,0.8,0
				c0.3,0,0.5,0.2,0.5,0.4c0,0.2-0.2,0.4-0.4,0.4C18.2,24.8,18,24.8,17.9,24.8z"/>
			<path class="st1" d="M23.1,24.8c-0.1,0-0.3,0-0.4,0c-0.3,0-0.4-0.2-0.4-0.4c0-0.2,0.2-0.4,0.4-0.4c0.3,0,0.6,0,0.9,0
				c0.2,0,0.4,0.2,0.4,0.4c0,0.2-0.2,0.4-0.4,0.4c0,0,0,0-0.1,0C23.3,24.8,23.2,24.8,23.1,24.8C23.1,24.8,23.1,24.8,23.1,24.8z"/>
			<path class="st1" d="M28.3,23.9c0.1,0,0.3,0,0.4,0c0.2,0,0.4,0.2,0.4,0.4c0,0.2-0.2,0.4-0.4,0.4c-0.3,0-0.6,0-0.9,0
				c-0.2,0-0.4-0.2-0.4-0.4c0-0.2,0.2-0.4,0.4-0.4C28,23.9,28.1,23.9,28.3,23.9C28.3,23.9,28.3,23.9,28.3,23.9z"/>
			<path class="st1" d="M20.5,27.8c-0.1,0-0.3,0-0.4,0c-0.3,0-0.5-0.2-0.5-0.4c0-0.2,0.2-0.4,0.5-0.4c0.3,0,0.5,0,0.8,0
				c0.3,0,0.5,0.2,0.5,0.4c0,0.3-0.2,0.4-0.5,0.4C20.7,27.8,20.6,27.8,20.5,27.8z"/>
		</g>
	</g>
</g>
</svg>
