<?xml version="1.0" encoding="utf-8"?>
<!-- Generator: Adobe Illustrator 23.0.4, SVG Export Plug-In . SVG Version: 6.00 Build 0)  -->
<svg version="1.1" id="Capa_1" xmlns="http://www.w3.org/2000/svg" xmlns:xlink="http://www.w3.org/1999/xlink" x="0px" y="0px"
	 viewBox="0 0 40.9 40.9" style="enable-background:new 0 0 40.9 40.9;" xml:space="preserve">
<style type="text/css">
	.st0{fill:#F06D00;}
	.st1{fill:#FFFFFF;}
</style>
<g>
	<circle class="st0" cx="20.5" cy="20.5" r="20.5"/>
	<g>
		<g>
			<path class="st1" d="M11.1,27.2c0.3-1.5,1-2.8,1.6-4.2c0.3-0.8,0.6-1.5,0.9-2.3c0.1-0.2,0.2-0.3,0.4-0.3c0.2,0.1,0.3,0.3,0.2,0.5
				c-0.3,0.8-0.6,1.6-1,2.4c-0.4,1.1-0.9,2.2-1.3,3.2c-0.4,0.9,0,1.8,0.9,2.2c1.1,0.5,2.2,1,3.3,1.5c0.1,0,0.1,0.1,0.2,0.1
				c0-0.2,0-0.3,0-0.5c0-4,0-7.9,0-11.9c0-0.6,0.2-1,0.5-1.5c0.5-0.6,1.1-1.3,1.7-2c-0.1,0-0.2,0.1-0.2,0.1
				c-0.5,0.2-0.9,0.5-1.4,0.7c-0.3,0.2-0.6,0.4-0.7,0.8c-0.4,1.1-0.8,2.2-1.3,3.2c0,0.1-0.1,0.2-0.1,0.3c-0.1,0.1-0.3,0.1-0.4,0.1
				c-0.1,0-0.2-0.2-0.2-0.3c0-0.1,0-0.2,0.1-0.3c0.4-1.1,0.9-2.2,1.3-3.3c0.2-0.5,0.5-0.8,1-1.1c1.2-0.6,2.4-1.2,3.6-1.7
				c0.2-0.1,0.5-0.2,0.8-0.2c1.6,0,3.1,0,4.7,0c0-0.1,0-0.2,0-0.3c0-1.2,0-2.4,0-3.5c0-0.2,0-0.4,0.2-0.5c0.1,0,0.2,0,0.3,0
				c0.2,0.1,0.2,0.3,0.2,0.5c0,1.2,0,2.4,0,3.6c0,0.3,0,0.6,0.3,0.7c0.1,0.1,0.2,0.2,0.3,0.3c0.7,0.8,1.4,1.7,2.1,2.5
				c0.4,0.5,0.8,1,0.9,1.7c0,2.8,0,5.6,0,8.5c0,0.1,0,0.1-0.1,0.2c-0.1,0.1-0.3,0.2-0.4,0.1c-0.1,0-0.2-0.2-0.3-0.3
				c0-0.1,0-0.2,0-0.3c0-2.7,0-5.3,0-8c0-0.4-0.1-0.8-0.4-1.1c-0.8-0.9-1.6-1.9-2.3-2.8c-0.1-0.1-0.1-0.2-0.2-0.3
				c-0.1,0.2-0.2,0.4-0.3,0.6c-0.4,0.6-0.9,1-1.5,1.3c-0.1,0-0.2,0.1-0.2,0.2c-0.2,0.5-0.6,0.8-1.1,0.8c-0.5,0-0.9-0.4-1-0.9
				c-0.1-0.5,0.1-1,0.6-1.2c0.5-0.2,1-0.1,1.3,0.3c0,0,0,0.1,0.1,0.1c0.7-0.3,1.2-0.9,1.5-1.7c-0.1,0-0.2,0-0.3,0
				c-1.5,0-2.9,0-4.4,0c-0.4,0-0.8,0.2-1,0.5c-0.9,1-1.7,2.1-2.6,3.1c-0.1,0.2-0.2,0.5-0.3,0.7c0,0.1,0,0.1,0,0.2c0,4,0,7.9,0,11.9
				c0,0.7,0.2,1.3,0.8,1.6c0.3,0.2,0.6,0.3,0.9,0.3c2.9,0,5.8,0,8.7,0c0.9,0,1.7-0.7,1.7-1.6c0-0.7,0-1.4,0-2.1
				c0-0.3,0.2-0.5,0.4-0.4c0.1,0,0.2,0.2,0.3,0.3c0,0.7,0,1.4,0,2.2c0,0.1,0,0.1,0,0.2c-0.1,0.7-0.4,1.2-0.9,1.7
				c-0.3,0.3-0.8,0.4-1.2,0.5c-3.1,0-6.2,0-9.3,0c0,0-0.1,0-0.1,0c-0.6-0.1-1.1-0.4-1.5-0.9c-0.1-0.1-0.2-0.2-0.4-0.3
				c-1.3-0.6-2.7-1.2-4-1.8c-0.6-0.3-1-0.7-1.3-1.3c-0.1-0.2-0.1-0.5-0.2-0.7C11.1,27.4,11.1,27.3,11.1,27.2z M23.5,15.8
				c0-0.2-0.2-0.4-0.4-0.4c-0.2,0-0.4,0.2-0.4,0.4c0,0.2,0.2,0.4,0.4,0.4C23.3,16.2,23.5,16,23.5,15.8z"/>
			<g>
				<path class="st1" d="M24.9,27.8c-0.4,0.4-0.9,0.6-1.6,0.6v0.6c0,0.1,0,0.2-0.1,0.2c0,0-0.1,0.1-0.2,0.1c-0.1,0-0.1,0-0.2-0.1
					c0,0-0.1-0.1-0.1-0.2v-0.6c-0.5,0-1-0.2-1.4-0.4c-0.4-0.3-0.7-0.6-0.9-1c0,0,0-0.1,0-0.1c0-0.1,0-0.1,0.1-0.2
					c0.1-0.1,0.1-0.1,0.2-0.1c0.1,0,0.1,0,0.2,0.1c0,0,0.1,0.1,0.1,0.1c0.1,0.3,0.4,0.6,0.7,0.7c0.3,0.2,0.7,0.3,1.1,0.3v-3.3
					c-0.6-0.1-1.1-0.4-1.5-0.7c-0.4-0.4-0.5-0.8-0.5-1.4c0-0.5,0.2-1,0.6-1.3c0.4-0.3,0.9-0.5,1.5-0.6v-0.5c0-0.1,0-0.2,0.1-0.2
					c0,0,0.1-0.1,0.2-0.1c0.1,0,0.1,0,0.2,0.1c0,0,0.1,0.1,0.1,0.2v0.5c0.4,0,0.8,0.2,1.2,0.4c0.4,0.2,0.6,0.5,0.8,0.8
					c0,0,0,0.1,0,0.2c0,0.1,0,0.1,0,0.1c0,0-0.1,0.1-0.1,0.1c0,0-0.1,0-0.1,0c-0.1,0-0.2,0-0.3-0.1c-0.1-0.2-0.3-0.4-0.6-0.6
					c-0.2-0.2-0.5-0.3-0.9-0.3v2.9c1.4,0.3,2.2,1,2.2,2.2C25.4,26.9,25.2,27.4,24.9,27.8z M21.8,23.4c0.2,0.3,0.6,0.5,1.1,0.6v-2.8
					c-0.4,0-0.8,0.2-1,0.4c-0.2,0.2-0.4,0.5-0.4,0.9C21.4,22.8,21.6,23.1,21.8,23.4z M24.4,27.4c0.3-0.3,0.4-0.6,0.4-1.1
					c0-0.4-0.1-0.8-0.4-1.1c-0.3-0.3-0.7-0.5-1.2-0.6v3.2C23.8,27.8,24.2,27.7,24.4,27.4z"/>
			</g>
		</g>
	</g>
</g>
</svg>
