<?xml version="1.0" encoding="utf-8"?>
<!-- Generator: Adobe Illustrator 23.0.4, SVG Export Plug-In . SVG Version: 6.00 Build 0)  -->
<svg version="1.1" id="Capa_1" xmlns="http://www.w3.org/2000/svg" xmlns:xlink="http://www.w3.org/1999/xlink" x="0px" y="0px"
	 viewBox="0 0 40.9 40.9" style="enable-background:new 0 0 40.9 40.9;" xml:space="preserve">
<style type="text/css">
	.st0{fill:#F06D00;}
	.st1{fill:#FFFFFF;}
</style>
<g>
	<circle class="st0" cx="20.5" cy="20.5" r="20.5"/>
	<g>
		<g>
			<path class="st1" d="M27.2,32.7c0.9,0.1,1.4,0.5,1.5,1.1c0.2,0.9-0.4,1.7-1.4,1.8c-0.6,0-1.1,0-1.7,0c-4,0-7.9,0-11.9,0
				c-0.9,0-1.5-0.5-1.6-1.3c0-0.7,0.4-1.3,1-1.4c0.2,0,0.3-0.1,0.5-0.1c0-0.2,0-0.3,0-0.5c0-3.3,0-6.6,0-9.9c0-1.1,0.5-1.6,1.6-1.6
				c3.5,0,6.9,0,10.4,0c1,0,1.5,0.5,1.5,1.5c0,3.3,0,6.6,0,9.9C27.2,32.3,27.2,32.5,27.2,32.7z M23.6,21.6c0,0.6,0,1.1,0,1.6
				c0,0.9-0.5,1.4-1.4,1.4c-0.5,0-0.9,0.1-1.2,0.4c-0.3,0.3-0.7,0.3-1,0c-0.3-0.2-0.6-0.4-1-0.4c-1.1,0-1.6-0.5-1.6-1.6
				c0-0.5,0-0.9,0-1.4c-0.7,0-1.3,0-2,0c-0.7,0-0.8,0.1-0.8,0.7c0,3.3,0,6.6,0,9.9c0,0.2,0,0.3,0,0.5c0.9,0,1.8,0,2.7,0
				c0-0.1,0-0.1,0-0.1c0-0.5,0-1,0-1.6c0-0.9,0.5-1.4,1.4-1.4c0.5,0,0.9-0.1,1.3-0.4c0.3-0.3,0.6-0.2,0.9,0c0.4,0.3,0.8,0.4,1.3,0.4
				c0.9,0,1.4,0.5,1.4,1.4c0,0.5,0,1.1,0,1.6c0.9,0,1.8,0,2.7,0c0-0.1,0-0.3,0-0.4c0-3.4,0-6.7,0-10.1c0-0.1,0-0.2,0-0.3
				c-0.1-0.1-0.3-0.4-0.4-0.4C25.2,21.5,24.4,21.6,23.6,21.6z M20.5,34.7C20.5,34.7,20.5,34.7,20.5,34.7c2.2,0,4.4,0,6.5,0
				c0.2,0,0.4,0,0.5,0c0.2-0.1,0.4-0.3,0.4-0.5c0-0.2-0.1-0.4-0.3-0.5c-0.1-0.1-0.3-0.1-0.5-0.1c-4.4,0-8.8,0-13.1,0
				c-0.2,0-0.3,0-0.5,0c-0.3,0.1-0.5,0.3-0.4,0.6c0.1,0.2,0.3,0.4,0.4,0.5c0.1,0.1,0.3,0,0.5,0C16.1,34.7,18.3,34.7,20.5,34.7z
				 M22.8,32.7c0-0.6,0-1.1,0-1.6c0-0.5-0.1-0.6-0.6-0.6c-0.5,0-1.1,0-1.5-0.4c-0.1-0.1-0.2-0.1-0.3,0c-0.5,0.5-1.1,0.5-1.8,0.5
				c-0.1,0-0.4,0.2-0.4,0.3c0,0.6,0,1.2,0,1.8C19.7,32.7,21.2,32.7,22.8,32.7z M18.2,21.6c0,0.5,0,1,0,1.5c0,0.5,0.1,0.7,0.7,0.7
				c0.5,0,1,0,1.4,0.4c0.1,0.1,0.3,0.1,0.4,0c0.4-0.3,0.8-0.4,1.3-0.4c0.1,0,0.3,0,0.4,0c0.1-0.1,0.4-0.2,0.4-0.4c0-0.6,0-1.1,0-1.7
				C21.2,21.6,19.7,21.6,18.2,21.6z"/>
			<path class="st1" d="M20.5,15c-2.6,0-4.8-2.1-4.8-4.8c0-2.7,2.1-4.8,4.8-4.8c2.6,0,4.8,2.2,4.8,4.7C25.3,12.8,23.2,15,20.5,15z
				 M20.5,6.3c-2.2,0-3.9,1.7-4,3.9c0,2.2,1.7,3.9,3.9,4c2.2,0,4-1.7,4-3.9C24.4,8,22.7,6.3,20.5,6.3z"/>
			<path class="st1" d="M20.9,17.8c0,0.4,0,0.9,0,1.3c0,0.3-0.1,0.5-0.4,0.5c-0.4,0-0.4-0.2-0.4-0.5c0-0.4,0-0.9,0-1.4
				c-0.2,0.2-0.4,0.4-0.5,0.5c-0.2,0.2-0.5,0.2-0.6,0c-0.1-0.1-0.1-0.5,0-0.6c0.4-0.4,0.8-0.8,1.2-1.2c0.2-0.2,0.5-0.2,0.7,0
				c0.4,0.4,0.8,0.8,1.2,1.2c0.1,0.1,0.1,0.4,0,0.6c-0.2,0.2-0.4,0.2-0.6,0c-0.1-0.1-0.3-0.3-0.4-0.5C21,17.7,20.9,17.8,20.9,17.8z"
				/>
			<path class="st1" d="M19.9,10.2c-0.3-0.3-0.6-0.5-0.9-0.8c-0.2-0.2-0.3-0.4,0-0.7c0.2-0.2,0.4-0.1,0.6,0.1
				c0.3,0.3,0.5,0.5,0.8,0.9c0.3-0.3,0.5-0.6,0.8-0.9c0.2-0.2,0.4-0.3,0.6-0.1c0.2,0.2,0.2,0.5,0,0.7c-0.3,0.3-0.5,0.5-0.9,0.8
				c0.3,0.3,0.6,0.5,0.9,0.8c0.2,0.2,0.3,0.4,0,0.7c-0.2,0.2-0.4,0.1-0.6-0.1c-0.3-0.3-0.5-0.5-0.8-0.9c-0.3,0.3-0.5,0.6-0.8,0.9
				c-0.2,0.2-0.4,0.3-0.7,0c-0.2-0.2-0.1-0.4,0.1-0.6C19.3,10.8,19.6,10.5,19.9,10.2z"/>
		</g>
	</g>
</g>
</svg>
