<?xml version="1.0" encoding="utf-8"?>
<!-- Generator: Adobe Illustrator 23.0.4, SVG Export Plug-In . SVG Version: 6.00 Build 0)  -->
<svg version="1.1" id="Capa_1" xmlns="http://www.w3.org/2000/svg" xmlns:xlink="http://www.w3.org/1999/xlink" x="0px" y="0px"
	 viewBox="0 0 40.9 40.9" style="enable-background:new 0 0 40.9 40.9;" xml:space="preserve">
<style type="text/css">
	.st0{fill:#F06D00;}
	.st1{fill:#FFFFFF;}
</style>
<g>
	<circle class="st0" cx="20.5" cy="20.5" r="20.5"/>
	<path class="st1" d="M20.1,8.9c0.4,0.1,0.5,0.4,0.5,0.8c0,1.4,0,2.9,0,4.3c0,0.1,0,0.2,0,0.3c0.1,0,0.2,0,0.3,0c2.2,0,4.5,0,6.7,0
		c0.6,0,0.8,0.2,0.8,0.8c0,1,0,2.1,0,3.1c0,0.1,0,0.1,0,0.2c0,0.2-0.1,0.3-0.3,0.3c-0.2,0-0.3-0.1-0.3-0.3c0-0.1,0-0.2,0-0.2
		c0-1.1,0-2.1,0-3.2c-1.3,0-2.6,0-3.9,0c0,0.4,0,0.8,0,1.2c0,0.6-0.2,0.7-0.7,0.7c-0.2,0-0.4,0-0.6,0c-0.4,0-0.6-0.2-0.6-0.6
		c0-0.4,0-0.7,0-1.1c0-0.1,0-0.1,0-0.2c-1.3,0-2.5,0-3.8,0c0,2.7,0,5.4,0,8.1c0.1,0,0.1,0,0.2,0c1,0,2,0,3,0c0.4,0,0.5,0.1,0.5,0.5
		c0,0.4,0,0.9,0,1.3c2,0,3.9,0,5.9,0c0-0.1,0-0.2,0-0.3c0-1.6,0-3.2,0-4.8c0-0.3,0.1-0.4,0.3-0.4c0.2,0,0.3,0.1,0.3,0.3
		c0,0.1,0,0.2,0,0.2c0,1.6,0,3.1,0,4.7c0,0.1,0,0.2,0,0.3c0.1,0,0.2,0,0.2,0c0.9,0,1.8,0,2.7,0c0.4,0,0.6,0.1,0.8,0.5
		c0,2.3,0,4.5,0,6.8c-6,0-12,0-18,0c-0.1-0.1-0.3-0.2-0.2-0.4c0-0.1,0.1-0.2,0.2-0.3c0.1,0,0.2,0,0.3,0c2.1,0,4.3,0,6.4,0
		c0.1,0,0.2,0,0.3,0c0-2.6,0-5.1,0-7.6c-1.6,0-3.2,0-4.8,0c0,0.5,0,0.9,0,1.4c0,0.3-0.2,0.5-0.5,0.6c-0.3,0-0.6,0-0.9,0
		c-0.3,0-0.5-0.2-0.5-0.6c0-0.4,0-0.7,0-1.1c0-0.1,0-0.2,0-0.3c-1.6,0-3.2,0-4.8,0c0,2.6,0,5.1,0,7.6c0.1,0,0.2,0,0.3,0
		c1,0,1.9,0,2.9,0c0.3,0,0.5,0.2,0.4,0.4c0,0.1-0.2,0.2-0.3,0.3c-1.3,0-2.7,0-4,0c0-2.9,0-5.7,0-8.6C9,23.2,9.2,23,9.6,23
		c0.3,0,0.6,0,0.9,0c0-0.1,0-0.2,0-0.3c0-1.5,0-3.1,0-4.6c0-0.5,0.2-0.7,0.7-0.7c0.5,0,1.1,0,1.6,0c0.1,0,0.2,0,0.3,0
		c0-0.1,0-0.2,0-0.3c0-1.3,0-2.6,0-4c0-0.1,0-0.2,0-0.2c0-0.2,0.2-0.3,0.3-0.3c0.2,0,0.3,0.1,0.3,0.3c0,0.1,0,0.2,0,0.2
		c0,1.3,0,2.6,0,4c0,0.1,0,0.2,0,0.3c1.2,0,2.3,0,3.5,0c0-0.1,0-0.2,0-0.3c0-0.8,0-1.6,0-2.4c0-0.3,0.1-0.4,0.5-0.4
		c0.6,0,1.2,0,1.8,0c0.1,0,0.2,0,0.3,0c0-1.6,0-3.1,0-4.7c-0.7,0-1.4,0-2,0c0,0.5,0,0.9,0,1.3c0,0.4-0.2,0.6-0.6,0.6
		c-0.2,0-0.4,0-0.7,0c-0.5,0-0.7-0.2-0.7-0.7c0-0.4,0-0.8,0-1.2c-0.7,0-1.4,0-2.1,0c0,0.1,0,0.2,0,0.3c0,0.6,0,1.2,0,1.7
		c0,0.3-0.3,0.5-0.5,0.3c-0.1-0.1-0.2-0.3-0.2-0.4c0-0.6,0-1.2,0-1.9c0-0.4,0.1-0.7,0.5-0.8C15.8,8.9,17.9,8.9,20.1,8.9z M31.4,25.6
		c-1.3,0-2.6,0-3.9,0c0,0.5,0,0.9,0,1.3c0,0.4-0.2,0.6-0.5,0.6c-0.3,0-0.6,0-0.9,0c-0.3,0-0.5-0.2-0.5-0.6c0-0.2,0-0.3,0-0.5
		c0-0.3,0-0.6,0-0.9c-1.3,0-2.6,0-3.8,0c0,1.9,0,3.9,0,5.8c3.2,0,6.4,0,9.6,0C31.4,29.4,31.4,27.5,31.4,25.6z M11.2,18.1
		c0,1.7,0,3.3,0,4.9c2,0,4,0,6,0c0-1.6,0-3.3,0-4.9c-0.7,0-1.4,0-2,0c0,0.1,0,0.2,0,0.3c0,0.4,0,0.7,0,1.1c0,0.3-0.2,0.5-0.5,0.6
		c-0.3,0-0.6,0-0.9,0c-0.3,0-0.5-0.2-0.5-0.5c0-0.3,0-0.6,0-0.9c0-0.2,0-0.3,0-0.5C12.6,18.1,11.9,18.1,11.2,18.1z M17.1,10.8
		c0-0.4,0-0.8,0-1.2c-0.2,0-0.4,0-0.6,0c0,0.4,0,0.8,0,1.2C16.8,10.8,16.9,10.8,17.1,10.8z M22.5,15c0,0.4,0,0.8,0,1.2
		c0.2,0,0.4,0,0.6,0c0-0.4,0-0.8,0-1.2C22.9,15,22.7,15,22.5,15z M26.8,26.8c0-0.4,0-0.8,0-1.2c-0.2,0-0.4,0-0.5,0
		c0,0.4,0,0.8,0,1.2C26.5,26.8,26.6,26.8,26.8,26.8z M14,19.4c0.2,0,0.4,0,0.5,0c0-0.4,0-0.8,0-1.2c-0.2,0-0.4,0-0.5,0
		C14,18.5,14,18.9,14,19.4z M15.6,23.7c-0.2,0-0.4,0-0.6,0c0,0.4,0,0.8,0,1.2c0.2,0,0.4,0,0.6,0C15.6,24.6,15.6,24.2,15.6,23.7z"/>
</g>
</svg>
