<?xml version="1.0" encoding="utf-8"?>
<!-- Generator: Adobe Illustrator 23.0.4, SVG Export Plug-In . SVG Version: 6.00 Build 0)  -->
<svg version="1.1" id="Capa_1" xmlns="http://www.w3.org/2000/svg" xmlns:xlink="http://www.w3.org/1999/xlink" x="0px" y="0px"
	 viewBox="0 0 40.9 40.9" style="enable-background:new 0 0 40.9 40.9;" xml:space="preserve">
<style type="text/css">
	.st0{fill:#F06D00;}
	.st1{fill:#FFFFFF;}
</style>
<g>
	<circle class="st0" cx="20.5" cy="20.5" r="20.5"/>
	<g>
		<g>
			<path class="st1" d="M20.8,11.7c0.3,0.1,0.6,0.2,0.9,0.3c1.2,0.5,2,1.5,2.1,2.8c0.1,0.9,0.1,1.7-0.1,2.6
				c-0.3,1.6-1.9,2.7-3.4,2.5c-1.8-0.2-3.1-1.5-3.2-3.2c0-0.8-0.1-1.5,0.1-2.3c0.2-1.5,1.4-2.5,2.8-2.7c0.1,0,0.1,0,0.2-0.1
				C20.4,11.7,20.6,11.7,20.8,11.7z M23,15.9c0-0.3,0-0.6-0.1-1c-0.1-1.3-1.2-2.3-2.5-2.2c-1.3,0-2.4,1-2.4,2.3c0,0.6,0,1.2,0,1.9
				c0.1,1,0.8,1.8,1.8,2.2c0.9,0.3,2,0,2.6-0.8C22.9,17.5,23,16.7,23,15.9z"/>
			<path class="st1" d="M15.5,21.5c0.6-0.6,1.3-1.1,2.2-1.2c0.5-0.1,0.8,0,1.2,0.3c0.9,1,2.4,1,3.3,0.1c0.5-0.5,1-0.5,1.6-0.3
				c0.7,0.2,1.2,0.6,1.7,1.1c0.5-0.1,1-0.3,1.5-0.4c0.3-0.1,0.4,0,0.6,0.2c0.9,1,2.2,1,3.1,0c0.4-0.4,0.8-0.3,1.2-0.1
				c1.5,0.5,2.4,1.7,2.4,3.3c0,0.8,0,1.6,0,2.5c0,0.7-0.1,0.8-0.8,0.8c-2.2,0-4.5,0-6.7,0c-0.1,0-0.3,0-0.4,0c0,0.3,0,0.6,0,0.8
				c0,0.5-0.1,0.7-0.7,0.7c-1.7,0-3.4,0-5.1,0c-1.8,0-3.5,0-5.3,0c-0.6,0-0.7-0.1-0.7-0.7c0-0.2,0-0.4,0-0.7c-0.2,0-0.3,0-0.5,0
				c-2.2,0-4.5,0-6.7,0c-0.6,0-0.8-0.1-0.8-0.8c0-1,0-2.1,0.1-3.1c0.1-1.5,1.5-2.7,3-2.8c0.3,0,0.4,0.1,0.6,0.2c1,1,2.2,1,3.1,0
				c0.2-0.2,0.4-0.3,0.7-0.2c0.2,0,0.5,0.1,0.7,0.2C15,21.3,15.2,21.4,15.5,21.5z M25.4,28.3c0-1.6,0-3.1,0-4.6c0-1.2-1-2.3-2.2-2.5
				c-0.1,0-0.3,0-0.4,0.1c-1.5,1.3-3.3,1.3-4.7,0c-0.1-0.1-0.2-0.1-0.3-0.1c-1.2,0.2-2.3,1.3-2.3,2.5c-0.1,1.5,0,3,0,4.6
				c0,0,0,0,0,0.1C18.8,28.3,22.1,28.3,25.4,28.3z M15,22.2c-0.2-0.1-0.4-0.2-0.6-0.2c-0.1,0-0.3,0-0.4,0.1c-1.2,1.1-2.9,1.1-4.1,0
				C9.8,22,9.6,22,9.4,22c-0.9,0.2-1.5,0.7-1.8,1.6c-0.1,0.3-0.1,0.7-0.1,1.1c0,0.7,0,1.4,0,2.1c2.4,0,4.7,0,7,0
				C14.7,25.3,14.3,23.7,15,22.2z M33.4,26.8c0-0.2,0-0.3,0-0.5c0-0.7,0-1.4,0-2.2c0-1-0.8-1.9-1.7-2.2c-0.2-0.1-0.4-0.1-0.6,0.1
				c-1.1,1-2.7,1-3.9,0c-0.3-0.3-0.5-0.3-0.8-0.1c-0.1,0.1-0.3,0.1-0.4,0.2c0.7,1.5,0.3,3,0.4,4.6C28.7,26.8,31,26.8,33.4,26.8z"/>
			<path class="st1" d="M8.9,17.3c-0.1-1,0.1-1.9,0.8-2.7c0.9-0.9,1.9-1.2,3.1-0.9c1.2,0.3,1.9,1.2,2.1,2.4c0.1,0.9,0.2,1.8-0.1,2.6
				c-0.4,1.4-1.7,2.3-3,2.2c-1.7-0.1-2.8-1.5-2.8-2.8C8.9,17.8,8.9,17.6,8.9,17.3z M9.7,17.3c0,0.3,0,0.5,0,0.8c0.1,1.1,0.9,2,2.1,2
				c1,0,2-0.7,2.1-1.8c0.1-0.6,0.1-1.3,0-1.9c-0.1-0.9-0.8-1.6-1.6-1.8c-0.8-0.2-1.7,0.1-2.2,0.9C9.7,16,9.7,16.6,9.7,17.3z"/>
			<path class="st1" d="M32.1,17.3c0,0.7,0,1.4-0.4,2.1c-0.6,1.1-1.8,1.7-3.2,1.5c-1.1-0.2-2.2-1.2-2.4-2.3
				c-0.2-0.9-0.2-1.9,0.1-2.8c0.4-1.4,1.8-2.2,3.4-2c1.3,0.2,2.4,1.4,2.5,2.8C32.1,16.7,32.1,17,32.1,17.3z M31.2,17.3
				c0-0.3,0-0.6,0-0.9c-0.1-1-0.9-1.9-2-1.9c-1-0.1-2,0.7-2.1,1.7c-0.1,0.7-0.1,1.4,0,2.1c0.1,0.9,0.7,1.4,1.6,1.6
				c0.9,0.2,1.6-0.1,2.2-0.7C31.2,18.7,31.2,18,31.2,17.3z"/>
		</g>
	</g>
</g>
</svg>
