<?xml version="1.0" encoding="utf-8"?>
<!-- Generator: Adobe Illustrator 23.0.4, SVG Export Plug-In . SVG Version: 6.00 Build 0)  -->
<svg version="1.1" id="Capa_1" xmlns="http://www.w3.org/2000/svg" xmlns:xlink="http://www.w3.org/1999/xlink" x="0px" y="0px"
	 viewBox="0 0 40.9 40.9" style="enable-background:new 0 0 40.9 40.9;" xml:space="preserve">
<style type="text/css">
	.st0{fill:#F06D00;}
	.st1{fill:#FFFFFF;}
</style>
<g>
	<circle class="st0" cx="20.5" cy="20.5" r="20.5"/>
	<g>
		<g>
			<path class="st1" d="M28,13.3c0,0.4,0,0.7,0,1.1c0,5,0,9.9,0,14.9c0,0.1,0,0.2,0,0.3c-0.1,0.4-0.4,0.6-0.8,0.6
				c-0.4,0-0.7-0.3-0.7-0.7c0-0.5,0-0.9,0-1.4c0-4.8,0-9.7,0-14.5c0-0.1,0-0.2,0-0.3c-0.1,0.1-0.1,0.1-0.2,0.2c-0.5,0.5-1,1-1.5,1.5
				c-0.3,0.3-0.8,0.3-1.1,0c-0.3-0.3-0.3-0.7,0-1.1c1-1,1.9-1.9,2.9-2.9c0.4-0.4,0.8-0.4,1.2,0c1,1,1.9,1.9,2.9,2.9
				c0.3,0.3,0.3,0.8,0,1.1c-0.3,0.3-0.7,0.3-1.1,0C29.1,14.4,28.6,13.8,28,13.3C28,13.3,28,13.3,28,13.3z"/>
			<path class="st1" d="M16.7,30.2c-2,0-4,0-6,0c-0.6,0-1-0.5-0.7-1c0.1-0.3,0.4-0.5,0.7-0.5c0.6,0,1.2,0,1.8,0c3.4,0,6.7,0,10.1,0
				c0.6,0,1,0.5,0.8,1c-0.1,0.3-0.4,0.5-0.8,0.5c-1.6,0-3.2,0-4.7,0C17.5,30.2,17.1,30.2,16.7,30.2z"/>
			<path class="st1" d="M16.7,22.7c1.5,0,3,0,4.5,0c0.4,0,0.6,0.2,0.7,0.5c0.1,0.3,0,0.6-0.3,0.8c-0.1,0.1-0.3,0.1-0.4,0.1
				c-3,0-6,0-9,0c-0.4,0-0.8-0.3-0.8-0.8c0-0.4,0.3-0.7,0.8-0.7C13.7,22.7,15.2,22.7,16.7,22.7z"/>
			<path class="st1" d="M16.7,18.2c-1,0-1.9,0-2.9,0c-0.5,0-0.8-0.3-0.8-0.7c0-0.4,0.3-0.8,0.8-0.8c1.9,0,3.9,0,5.8,0
				c0.5,0,0.8,0.3,0.8,0.7c0,0.4-0.3,0.8-0.8,0.8C18.7,18.2,17.7,18.2,16.7,18.2C16.7,18.2,16.7,18.2,16.7,18.2z"/>
			<path class="st1" d="M16.7,12.2c-0.5,0-1,0-1.4,0c-0.5,0-0.8-0.3-0.8-0.8c0-0.4,0.3-0.7,0.8-0.7c1,0,1.9,0,2.9,0
				c0.5,0,0.8,0.3,0.8,0.7c0,0.4-0.3,0.8-0.8,0.8C17.7,12.2,17.2,12.2,16.7,12.2z"/>
		</g>
	</g>
</g>
</svg>
