<?xml version="1.0" encoding="utf-8"?>
<!-- Generator: Adobe Illustrator 23.0.4, SVG Export Plug-In . SVG Version: 6.00 Build 0)  -->
<svg version="1.1" id="Capa_1" xmlns="http://www.w3.org/2000/svg" xmlns:xlink="http://www.w3.org/1999/xlink" x="0px" y="0px"
	 viewBox="0 0 40.9 40.9" style="enable-background:new 0 0 40.9 40.9;" xml:space="preserve">
<style type="text/css">
	.st0{fill:#F06D00;}
	.st1{fill:#FFFFFF;}
</style>
<g>
	<circle class="st0" cx="20.5" cy="20.5" r="20.5"/>
	<g>
		<g>
			<path class="st1" d="M20.7,7.6c0.3,0.1,0.4,0.4,0.5,0.6c0.3,0.6,0.6,1.2,0.9,1.8c0,0.1,0.2,0.2,0.3,0.2c0.7,0.1,1.5,0.2,2.2,0.3
				c0.3,0,0.5,0.2,0.6,0.5c0.1,0.3,0,0.5-0.2,0.8c-0.5,0.5-1,1-1.5,1.5c-0.1,0.1-0.2,0.2-0.1,0.4c0.1,0.7,0.2,1.4,0.4,2.1
				c0.1,0.5-0.1,0.8-0.5,0.9c-0.2,0-0.3,0-0.5-0.1c-0.6-0.3-1.3-0.7-1.9-1c-0.1-0.1-0.2-0.1-0.4,0c-0.6,0.3-1.3,0.7-1.9,1
				c-0.3,0.1-0.5,0.2-0.8,0c-0.2-0.2-0.3-0.4-0.3-0.7c0.1-0.7,0.3-1.5,0.4-2.2c0-0.1,0-0.2-0.1-0.3c-0.5-0.5-1-1-1.6-1.5
				c-0.4-0.3-0.3-0.8,0.1-1.1c0.1-0.1,0.2-0.1,0.3-0.1c0.7-0.1,1.5-0.2,2.2-0.3c0.1,0,0.2-0.1,0.3-0.2c0.3-0.6,0.6-1.2,0.9-1.8
				c0.1-0.2,0.3-0.4,0.5-0.6C20.4,7.6,20.5,7.6,20.7,7.6z M18.1,15.7c0.7-0.4,1.3-0.7,2-1c0.3-0.1,0.5-0.1,0.7,0
				c0.3,0.2,0.6,0.3,0.9,0.5c0.3,0.2,0.7,0.4,1.1,0.6c-0.1-0.6-0.2-1.2-0.3-1.8c-0.2-0.6,0-1,0.5-1.4c0.4-0.4,0.8-0.9,1.2-1.3
				c0,0-0.1,0-0.2,0c-0.6-0.1-1.3-0.2-1.9-0.3c-0.3,0-0.5-0.2-0.7-0.5c-0.3-0.6-0.6-1.2-0.9-1.8c0-0.1-0.1-0.1-0.1-0.2
				c-0.3,0.7-0.7,1.3-1,2c-0.1,0.3-0.3,0.4-0.6,0.4c-0.4,0.1-0.8,0.1-1.2,0.2c-0.3,0-0.6,0.1-0.9,0.1c0.5,0.5,1,1.1,1.5,1.6
				c0.2,0.2,0.3,0.5,0.2,0.8C18.3,14.2,18.2,15,18.1,15.7z"/>
			<path class="st1" d="M32.1,13.1c-0.4,0.4-0.7,0.8-1.1,1.2c-0.1,0.1-0.2,0.2-0.1,0.4c0.1,0.4,0.1,0.8,0.2,1.2c0,0.2,0,0.5-0.2,0.6
				c-0.2,0.2-0.4,0.2-0.7,0c-0.3-0.2-0.7-0.4-1.1-0.6c-0.1-0.1-0.2-0.1-0.4,0c-0.4,0.2-0.7,0.4-1.1,0.6c-0.2,0.1-0.4,0.1-0.7,0
				c-0.2-0.2-0.3-0.4-0.2-0.6c0.1-0.4,0.1-0.8,0.2-1.2c0-0.2,0-0.3-0.1-0.4c-0.3-0.3-0.6-0.6-0.9-0.8c-0.2-0.2-0.2-0.4-0.2-0.6
				c0.1-0.3,0.3-0.4,0.5-0.4c0.4-0.1,0.8-0.1,1.2-0.2c0.1,0,0.2-0.1,0.3-0.2c0.2-0.4,0.4-0.7,0.6-1.1c0.1-0.2,0.3-0.4,0.5-0.4
				c0.3,0,0.4,0.1,0.5,0.4c0.2,0.4,0.4,0.7,0.5,1.1c0.1,0.2,0.2,0.3,0.4,0.3c0.3,0,0.7,0.1,1,0.1c0.3,0,0.6,0.2,0.7,0.5
				C32.1,12.9,32.1,13,32.1,13.1z M31,13.1c-0.3,0-0.6-0.1-1-0.1c-0.3,0-0.5-0.2-0.6-0.4c-0.1-0.3-0.3-0.6-0.5-1
				c-0.2,0.3-0.3,0.6-0.4,0.9c-0.1,0.4-0.4,0.5-0.8,0.5c-0.3,0-0.6,0.1-0.9,0.1c0.2,0.2,0.4,0.5,0.6,0.6c0.4,0.3,0.5,0.6,0.3,1.1
				c-0.1,0.3-0.1,0.5-0.1,0.9c0.3-0.2,0.6-0.3,0.8-0.4c0.4-0.2,0.7-0.3,1.1,0c0.2,0.2,0.5,0.3,0.8,0.4c-0.1-0.4-0.1-0.7-0.2-1
				c-0.1-0.3,0-0.6,0.3-0.8C30.6,13.6,30.8,13.3,31,13.1z"/>
			<path class="st1" d="M28.4,25.9c0.5,0.2,0.8,0.7,0.8,1.3c0,0.1,0,0.2,0,0.3c0,0.6-0.3,1.1-0.8,1.3c0,0.4,0,0.8,0.1,1.1
				c0,0.5-0.2,0.8-0.5,1.1c-0.1,0-0.1,0.1-0.1,0.2c0,0.4,0.1,0.8,0,1.2c0,0.5-0.5,0.9-1,0.9c-1.5,0-3.1,0-4.6,0
				c-0.3,0-0.4-0.1-0.4-0.4c0-0.2,0.2-0.4,0.4-0.4c0.2,0,0.4,0,0.7,0c-0.3-0.7-0.2-1.3,0.3-1.8c-0.7-0.8-0.6-1.6,0-2.3
				c-0.8-0.8-0.6-1.8,0-2.4c-0.6-0.8-0.7-1.2-0.3-2.1c0,0-0.1,0-0.1,0c-1.1-0.4-1.7-1.5-1.5-2.7c0.1-0.5,0.2-1,0.3-1.4
				c0.1-0.7-0.2-1.4-0.8-1.8c-0.3-0.2-0.4-0.1-0.5,0.2c-0.2,0.7-0.5,1.4-0.7,2.1c-0.1,0.2-0.2,0.4-0.4,0.3c-0.2,0-0.4-0.2-0.3-0.5
				c0.3-0.8,0.5-1.7,0.8-2.5c0.2-0.5,0.9-0.7,1.3-0.5c1,0.5,1.5,1.6,1.3,2.6c-0.1,0.5-0.2,1.1-0.3,1.6c-0.2,1,0.5,1.9,1.6,1.9
				c1.2,0,2.4,0,3.5,0c0.8,0,1.2,0.5,1.2,1.2C28.4,25,28.4,25.4,28.4,25.9z M26,26.5c-0.6,0-1.2,0-1.8,0c-0.5,0-0.8,0.3-0.8,0.8
				c0,0.4,0.3,0.8,0.8,0.8c1.2,0,2.5,0,3.7,0c0.3,0,0.5-0.2,0.5-0.5c0-0.2,0-0.4,0-0.5c0-0.4-0.2-0.6-0.6-0.6
				C27.2,26.5,26.6,26.5,26,26.5z M25.7,25.7C25.7,25.7,25.7,25.8,25.7,25.7c0.5,0,1,0,1.5,0c0.3,0,0.4-0.1,0.4-0.4
				c0-0.2,0-0.5,0-0.7c0-0.3-0.1-0.4-0.5-0.4c-1,0-1.9,0-2.9,0c-0.1,0-0.3,0-0.4,0.1c-0.3,0.2-0.5,0.5-0.4,0.8
				c0.1,0.4,0.4,0.6,0.7,0.6C24.6,25.8,25.2,25.7,25.7,25.7z M25.7,28.9c-0.5,0-1,0-1.5,0c-0.5,0-0.8,0.3-0.8,0.8
				c0,0.4,0.3,0.8,0.7,0.8c1,0,2,0,3,0c0.3,0,0.4-0.2,0.5-0.5c0-0.2,0-0.4,0-0.6c0-0.4-0.2-0.6-0.6-0.6
				C26.6,28.9,26.1,28.9,25.7,28.9z M25.3,32.6c0.4,0,0.8,0,1.3,0c0.3,0,0.4-0.1,0.4-0.4c0-0.2,0-0.4,0-0.6c0-0.3-0.1-0.4-0.4-0.4
				c-0.8,0-1.7,0-2.5,0c-0.4,0-0.7,0.3-0.7,0.7c0,0.4,0.3,0.7,0.7,0.7C24.5,32.6,24.9,32.6,25.3,32.6z"/>
			<path class="st1" d="M16.6,24.2c0.6-0.4,1-1,1.3-1.7c0.1-0.2,0.2-0.4,0.3-0.6c0.1-0.2,0.3-0.3,0.5-0.3c0.2,0.1,0.3,0.3,0.2,0.5
				c-0.4,1.1-1.1,2.1-2.1,2.8c-0.1,0-0.1,0.1-0.1,0.2c0,2,0,4.1,0,6.1c0,0.4,0.2,0.6,0.6,0.8c0.5,0.3,1,0.4,1.6,0.4
				c0.5,0,0.9,0,1.4,0c0.3,0,0.5,0.1,0.5,0.4c0,0.2-0.2,0.4-0.5,0.4c-0.8,0-1.6,0.1-2.4-0.2c-0.4-0.1-0.8-0.3-1.3-0.5
				c0,0-0.1,0.1-0.2,0.2c-0.2,0.3-0.5,0.4-0.9,0.4c-0.4,0-0.8,0-1.1,0c-0.7,0-1.2-0.5-1.2-1.2c0-0.7,0-1.4,0-2.2
				c0-0.3,0.1-0.4,0.4-0.4c0.2,0,0.4,0.2,0.4,0.5c0,0.7,0,1.4,0,2.1c0,0.4,0.2,0.5,0.6,0.6c0.3,0,0.6,0,0.9,0c0.3,0,0.5-0.2,0.5-0.5
				c0-2.5,0-4.9,0-7.4c0-0.3-0.2-0.5-0.5-0.5c-0.3,0-0.6,0-0.9,0c-0.4,0-0.5,0.2-0.5,0.5c0,1.1,0,2.2,0,3.4c0,0.2-0.1,0.4-0.3,0.4
				c-0.3,0.1-0.5-0.1-0.5-0.4c0-0.7,0-1.3,0-2c0-0.5,0-1,0-1.5c0-0.7,0.5-1.2,1.2-1.2c0.3,0,0.5,0,0.8,0
				C16,23.4,16.2,23.5,16.6,24.2z"/>
			<path class="st1" d="M9.8,15.9c0.1-0.4,0.1-0.9,0.2-1.3c0-0.1,0-0.2-0.1-0.3c-0.3-0.3-0.6-0.6-0.9-0.9c-0.2-0.2-0.3-0.4-0.2-0.6
				c0.1-0.3,0.3-0.4,0.5-0.4c0.4,0,0.8-0.1,1.2-0.2c0.1,0,0.2-0.1,0.3-0.2c0.2-0.4,0.4-0.7,0.5-1.1c0.1-0.2,0.3-0.4,0.5-0.4
				c0.3,0,0.4,0.1,0.5,0.4c0.2,0.4,0.4,0.8,0.6,1.1c0,0.1,0.1,0.2,0.2,0.2c0.4,0.1,0.8,0.1,1.2,0.2c0.3,0,0.4,0.1,0.5,0.4
				c0.1,0.3,0,0.5-0.2,0.7c-0.3,0.3-0.6,0.6-0.9,0.9c-0.1,0.1-0.1,0.2-0.1,0.3c0.1,0.4,0.1,0.8,0.2,1.3c0,0.3,0,0.5-0.2,0.6
				c-0.2,0.1-0.4,0.1-0.6,0c-0.4-0.2-0.7-0.4-1.1-0.6c-0.1-0.1-0.2-0.1-0.4,0c-0.4,0.2-0.8,0.4-1.1,0.6C10.3,16.7,9.8,16.4,9.8,15.9
				z M10.6,15.6c0.3-0.2,0.7-0.3,1-0.5c0.3-0.2,0.5-0.2,0.8,0c0.3,0.2,0.6,0.3,0.9,0.5c-0.1-0.4-0.1-0.8-0.2-1.1
				c-0.1-0.3,0-0.5,0.2-0.7c0.3-0.2,0.5-0.5,0.8-0.8c-0.3-0.1-0.7-0.1-1-0.1c-0.4,0-0.6-0.2-0.7-0.5c-0.1-0.3-0.3-0.6-0.4-0.9
				c-0.2,0.3-0.3,0.7-0.5,1c-0.1,0.3-0.3,0.4-0.7,0.5c-0.3,0-0.7,0.1-1,0.1c0.3,0.3,0.5,0.5,0.8,0.8c0.2,0.2,0.3,0.4,0.2,0.7
				C10.8,14.9,10.7,15.2,10.6,15.6z"/>
		</g>
	</g>
</g>
</svg>
