<?xml version="1.0" encoding="utf-8"?>
<!-- Generator: Adobe Illustrator 23.0.4, SVG Export Plug-In . SVG Version: 6.00 Build 0)  -->
<svg version="1.1" id="Capa_1" xmlns="http://www.w3.org/2000/svg" xmlns:xlink="http://www.w3.org/1999/xlink" x="0px" y="0px"
	 viewBox="0 0 40.9 40.9" style="enable-background:new 0 0 40.9 40.9;" xml:space="preserve">
<style type="text/css">
	.st0{fill:#F06D00;}
	.st1{fill:#FFFFFF;}
</style>
<g>
	<circle class="st0" cx="20.5" cy="20.5" r="20.5"/>
	<g>
		<g>
			<path class="st1" d="M31,14.1c-0.1,0.2-0.1,0.4-0.3,0.6c-0.3,0.4-0.6,0.6-1.1,0.6c-3.8,0-7.6,0-11.3,0c-0.8,0-1.3-0.5-1.3-1.3
				c0-0.9,0-1.8,0-2.7c0-0.6,0.4-1.1,0.9-1.2c0.1,0,0.1,0,0.2-0.1c3.9,0,7.9,0,11.8,0c0.2,0.1,0.3,0.1,0.5,0.2
				c0.3,0.2,0.5,0.5,0.6,0.9C31,12.1,31,13.1,31,14.1z M24,10.8c-1.9,0-3.7,0-5.6,0c-0.4,0-0.6,0.2-0.6,0.6c0,0.8,0,1.6,0,2.4
				c0,0.4,0.2,0.6,0.6,0.6c3.7,0,7.4,0,11.1,0c0.4,0,0.6-0.2,0.6-0.6c0-0.8,0-1.6,0-2.3c0-0.5-0.1-0.6-0.6-0.6
				C27.6,10.8,25.8,10.8,24,10.8z"/>
			<path class="st1" d="M31,22c-0.1,0.2-0.1,0.4-0.3,0.6c-0.3,0.4-0.6,0.6-1.1,0.6c-3.8,0-7.6,0-11.3,0c-0.8,0-1.3-0.6-1.3-1.3
				c0-0.9,0-1.7,0-2.6c0-0.7,0.5-1.3,1.3-1.3c0.1,0,0.2,0,0.2,0c3.6,0,7.3,0,10.9,0c1,0,1.3,0.2,1.6,1.1C31,20,31,21,31,22z
				 M24,22.2c1.9,0,3.7,0,5.6,0c0.4,0,0.6-0.2,0.6-0.6c0-0.8,0-1.6,0-2.4c0-0.4-0.2-0.5-0.5-0.5c-3.7,0-7.5,0-11.2,0
				c-0.4,0-0.5,0.2-0.5,0.5c0,0.8,0,1.6,0,2.4c0,0.5,0.1,0.6,0.6,0.6C20.3,22.2,22.1,22.2,24,22.2z"/>
			<path class="st1" d="M18.1,31c-0.3-0.1-0.6-0.2-0.8-0.5c-0.2-0.2-0.3-0.5-0.3-0.7c0-1,0-1.9,0-2.9c0-0.6,0.6-1.1,1.3-1.2
				c0.1,0,0.2,0,0.2,0c3.6,0,7.3,0,10.9,0c1,0,1.3,0.2,1.6,1.1c0,1,0,2,0,3c-0.1,0.2-0.2,0.4-0.3,0.6c-0.2,0.3-0.5,0.4-0.8,0.5
				C25.9,31,22,31,18.1,31z M24,30.1c1.9,0,3.7,0,5.6,0c0.4,0,0.6-0.2,0.6-0.6c0-0.8,0-1.6,0-2.4c0-0.4-0.2-0.5-0.5-0.5
				c-3.7,0-7.5,0-11.2,0c-0.4,0-0.5,0.2-0.5,0.5c0,0.8,0,1.6,0,2.4c0,0.5,0.1,0.6,0.6,0.6C20.3,30.1,22.1,30.1,24,30.1z"/>
			<path class="st1" d="M14.1,10c0.2,0.1,0.4,0.2,0.6,0.3c0.3,0.2,0.5,0.6,0.5,1c0,0.9,0,1.8,0,2.6c0,0.7-0.6,1.3-1.3,1.3
				c-0.9,0-1.8,0-2.7,0c-0.6,0-1-0.4-1.2-0.9c0,0,0-0.1-0.1-0.1c0-1,0-2.1,0-3.1c0.1-0.2,0.2-0.4,0.3-0.5c0.2-0.3,0.5-0.4,0.8-0.5
				C12.1,10,13.1,10,14.1,10z M10.8,12.6c0,0.4,0,0.8,0,1.3c0,0.3,0.2,0.5,0.5,0.5c0.8,0,1.7,0,2.5,0c0.3,0,0.5-0.2,0.5-0.5
				c0-0.8,0-1.7,0-2.5c0-0.3-0.2-0.5-0.5-0.5c-0.8,0-1.7,0-2.5,0c-0.3,0-0.5,0.2-0.5,0.5C10.8,11.8,10.8,12.2,10.8,12.6z"/>
			<path class="st1" d="M10,18.9c0.1-0.2,0.1-0.4,0.2-0.5c0.3-0.4,0.6-0.6,1.1-0.6c0.9,0,1.7,0,2.6,0c0.8,0,1.3,0.6,1.3,1.3
				c0,0.9,0,1.8,0,2.6c0,0.7-0.6,1.3-1.3,1.3c-0.9,0-1.8,0-2.7,0c-0.6,0-1-0.4-1.2-0.9c0,0,0-0.1-0.1-0.1C10,21,10,19.9,10,18.9z
				 M12.6,22.2c0.4,0,0.8,0,1.3,0c0.3,0,0.5-0.2,0.5-0.5c0-0.8,0-1.6,0-2.5c0-0.4-0.2-0.5-0.5-0.5c-0.8,0-1.6,0-2.4,0
				c-0.4,0-0.5,0.2-0.5,0.5c0,0.8,0,1.6,0,2.4c0,0.4,0.2,0.5,0.5,0.5C11.8,22.2,12.2,22.2,12.6,22.2z"/>
			<path class="st1" d="M10,26.8c0.1-0.3,0.2-0.6,0.5-0.8c0.2-0.2,0.5-0.3,0.8-0.3c0.9,0,1.7,0,2.6,0c0.8,0,1.3,0.6,1.3,1.3
				c0,0.9,0,1.7,0,2.6c0,0.7-0.4,1.2-1,1.3c0,0,0,0-0.1,0c-1,0-2,0-3,0c-0.2-0.1-0.3-0.1-0.5-0.2c-0.3-0.2-0.5-0.5-0.6-0.9
				C10,28.9,10,27.8,10,26.8z M10.8,28.3c0,0.4,0,0.8,0,1.3c0,0.3,0.2,0.5,0.5,0.5c0.8,0,1.7,0,2.5,0c0.3,0,0.5-0.2,0.5-0.5
				c0-0.8,0-1.7,0-2.5c0-0.4-0.2-0.5-0.5-0.5c-0.8,0-1.6,0-2.4,0c-0.4,0-0.5,0.2-0.5,0.5C10.8,27.5,10.8,27.9,10.8,28.3z"/>
		</g>
	</g>
</g>
</svg>
