<?xml version="1.0" encoding="utf-8"?>
<!-- Generator: Adobe Illustrator 23.0.4, SVG Export Plug-In . SVG Version: 6.00 Build 0)  -->
<svg version="1.1" id="Capa_1" xmlns="http://www.w3.org/2000/svg" xmlns:xlink="http://www.w3.org/1999/xlink" x="0px" y="0px"
	 viewBox="0 0 40.9 40.9" style="enable-background:new 0 0 40.9 40.9;" xml:space="preserve">
<style type="text/css">
	.st0{fill:#F06D00;}
	.st1{fill:#FFFFFF;}
</style>
<g>
	<circle class="st0" cx="20.5" cy="20.5" r="20.5"/>
	<g>
		<g>
			<path class="st1" d="M7.5,23.8c0.6-0.1,1.1-0.2,1.7-0.2c0.8,0,1.7,0,2.5,0c0.2,0,0.3,0.2,0.5,0.3c-0.2,0.1-0.3,0.4-0.5,0.4
				c-0.5,0.1-1,0-1.6,0c0,0.3,0,0.6,0,0.8c0.5,0.3,2.2,0.1,2.5-0.4c1.2-1.7,3.3-1.7,4.4,0c0.1,0.2,0.4,0.4,0.6,0.4
				c2.6,0,5.3,0,8.1,0c0-0.9,0-1.8,0-2.7c0-0.2,0.3-0.5,0.4-0.7c0.1,0.2,0.4,0.5,0.4,0.7c0.1,0.9,0,1.7,0,2.8
				c0.3-0.4,0.4-0.6,0.5-0.8c1.1-1.4,3.2-1.4,4.2,0.1c0.3,0.5,0.7,0.7,1.3,0.5c0-0.5,0-1,0-1.6c-1.5-0.5-1.8-0.9-1.7-2
				c0-0.5,0-0.5,1.6-0.7c-0.2-0.7-0.7-0.9-1.3-0.9c-1.5,0-3,0-4.5,0c0,0.2,0,0.3-0.1,0.4c-0.1,0.2-0.3,0.3-0.4,0.4
				c-0.1-0.2-0.3-0.4-0.4-0.6c-0.1-0.5,0-1.1,0-1.6c0-1.8,0-3.6,0-5.5c-5.2,0-10.3,0-15.6,0c0,0.5,0,1.1,0,1.6c0,1.8,0,3.6,0,5.4
				c0,0.2-0.3,0.5-0.4,0.7c-0.1-0.2-0.4-0.5-0.4-0.7c0-2.3,0-4.5,0-6.8c0-0.7,0.4-0.9,0.9-1.1c5.2,0,10.4,0,15.6,0
				c0.9,0.3,0.9,1,0.9,1.8c0.6,0,1.1,0,1.6,0c0.5,0,1,0,1.5,0c1.1,0.1,1.9,1,1.6,1.9c-0.3,1,0.1,1.9,0.3,2.8c0,0.2,0.2,0.3,0.4,0.5
				c0.5,0.5,1,1,1.5,1.5c0,1.7,0,3.3,0,5c-0.5,0.1-1.1,0.3-1.7,0.4c-0.5,1.6-1.2,2.4-2.5,2.4c-1.7,0.1-2.5-1-2.9-2.5
				c-2.9,0-5.7,0-8.5,0c-0.2,0-0.5,0.2-0.5,0.3c-0.2,1.4-1.2,2-2.5,2.4c-0.1,0-0.1,0-0.2,0c-0.9-0.3-2-0.6-2.2-1.6
				c-0.3-1.2-1-1.2-1.9-1.1c-0.1,0-0.3,0-0.4,0c-0.7,0-1.1-0.3-1.1-1.1c0-0.2,0-0.4,0-0.5c-0.6-0.1-1.1-0.3-1.7-0.4
				C7.5,24,7.5,23.9,7.5,23.8z M26.6,19.2c1.4,0,2.7,0,4.2,0c-0.2-0.8-0.4-1.6-0.6-2.3c0-0.1-0.3-0.3-0.4-0.3c-1.1,0-2.1,0-3.2,0
				C26.6,17.4,26.6,18.3,26.6,19.2z M14.8,24.4c-1,0-1.8,0.8-1.8,1.7c0,0.9,0.9,1.8,1.8,1.8c0.9,0,1.7-0.8,1.7-1.8
				C16.6,25.1,15.8,24.4,14.8,24.4z M30.9,26.1c0-1-0.8-1.7-1.8-1.7c-1,0-1.7,0.8-1.7,1.8c0,0.9,0.8,1.8,1.8,1.7
				C30.1,27.9,30.9,27,30.9,26.1z M26.6,15.6c1.3,0,2.5,0,3.8,0c0-0.1,0.1-0.1,0.1-0.2c-0.3-0.2-0.5-0.6-0.8-0.6c-1-0.1-2.1,0-3.1,0
				c0,0.2,0,0.4,0,0.5C26.5,15.4,26.6,15.5,26.6,15.6z M31.8,21.7c0,0.9,0,0.9,0.8,0.8c0-0.3,0-0.5-0.1-0.8
				C32.3,21.7,32,21.7,31.8,21.7z"/>
			<path class="st1" d="M17.4,20c1.1-1.1,2.1-2.1,3.1-3.1c0.2-0.2,0.3-0.4,0.5-0.5c0.2-0.1,0.4-0.1,0.6-0.1c0,0.2,0,0.5-0.1,0.7
				c-0.2,0.3-0.5,0.5-0.8,0.8c-0.9,0.9-1.8,1.8-2.7,2.7c-0.4,0.5-0.8,0.5-1.2,0c-0.5-0.6-1.1-1.1-1.6-1.7c-0.2-0.2-0.1-0.5-0.2-0.7
				c0.2,0,0.6,0,0.7,0.2C16.3,18.7,16.8,19.3,17.4,20z"/>
			<path class="st1" d="M21.3,23.6c0.9,0,1.8,0,2.8,0c0.2,0,0.4,0.2,0.7,0.4c-0.2,0.1-0.4,0.4-0.6,0.4c-1.9,0-3.8,0-5.7,0
				c-0.2,0-0.4-0.3-0.6-0.4c0.2-0.1,0.4-0.4,0.7-0.4C19.5,23.5,20.4,23.6,21.3,23.6z"/>
			<path class="st1" d="M11.4,22.6c-0.8,0-1.6,0-2.4,0c-0.2,0-0.4-0.2-0.6-0.4c0.2-0.1,0.4-0.3,0.6-0.3c1.6,0,3.2,0,4.8,0
				c0.2,0,0.4,0.2,0.6,0.4c-0.2,0.1-0.4,0.3-0.6,0.3C13,22.6,12.2,22.6,11.4,22.6z"/>
			<path class="st1" d="M14.7,27c-0.2-0.3-0.6-0.6-0.6-0.9c0-0.3,0.5-0.8,0.8-0.8c0.3,0,0.7,0.4,0.8,0.7c0,0.3-0.4,0.6-0.6,0.9
				C14.9,27,14.8,27,14.7,27z"/>
			<path class="st1" d="M28.2,25.9c0.3-0.2,0.7-0.6,1-0.5c0.3,0,0.5,0.5,0.8,0.8c-0.3,0.3-0.6,0.7-0.9,0.7c-0.3,0-0.6-0.4-0.9-0.6
				C28.2,26.1,28.2,26,28.2,25.9z"/>
		</g>
	</g>
</g>
</svg>
