<?xml version="1.0" encoding="utf-8"?>
<!-- Generator: Adobe Illustrator 23.0.4, SVG Export Plug-In . SVG Version: 6.00 Build 0)  -->
<svg version="1.1" id="Capa_1" xmlns="http://www.w3.org/2000/svg" xmlns:xlink="http://www.w3.org/1999/xlink" x="0px" y="0px"
	 viewBox="0 0 40.9 40.9" style="enable-background:new 0 0 40.9 40.9;" xml:space="preserve">
<style type="text/css">
	.st0{fill:#F06D00;}
	.st1{fill:#FFFFFF;}
</style>
<g>
	<circle class="st0" cx="20.5" cy="20.5" r="20.5"/>
	<g>
		<g>
			<path class="st1" d="M18.1,9.6c0.3,0,0.5,0,0.8,0c0.1,0,0.1,0,0.2,0c1.5,0.3,2.4,1.1,2.8,2.5c0.1,0.4,0.1,0.7,0.1,1.1
				c0,0.6,0,1.1,0,1.7c0.1,0,0.2,0,0.3,0c0.8,0,1.5,0,2.3,0c0.4,0,0.5,0.1,0.5,0.5c0.1,1.4,0.1,2.7,0.2,4.1c0,0.3,0,0.6,0.1,0.9
				c0.1,0,0.2,0,0.3,0c1.7,0,3.4,0,5.1,0c0.4,0,0.5,0.1,0.6,0.5c0.1,0.9,0.1,1.8,0.2,2.6c0.1,1.8,0.3,3.6,0.4,5.5
				c0,0.5,0.1,1,0.1,1.5c0,0.2,0,0.5,0,0.7c-7.7,0-15.5,0-23.2,0c0-0.3,0-0.6,0-0.9c0-0.1,0-0.2,0-0.3C9,28.7,9,27.2,9.1,25.8
				c0.2-3.4,0.3-6.8,0.5-10.2c0-0.3,0.1-0.5,0.5-0.5c0.8,0,1.5,0,2.3,0c0.1,0,0.2,0,0.3,0c0-0.7,0-1.3,0-1.9c0-1.5,0.7-2.6,2.1-3.2
				c0.3-0.1,0.6-0.2,1-0.3c0.3,0,0.5,0,0.8,0C17.1,9.8,17.6,9.8,18.1,9.6z M18.9,15.8c-1.8,0-3.6,0-5.4,0c0,0.8,0,1.6,0,2.4
				c0,0.1,0.1,0.2,0.1,0.2c0.3,0.2,0.5,0.4,0.8,0.5c0.2,0.1,0.2,0.3,0.2,0.5c0,1,0,1.9,0,2.9c0,0.4-0.1,0.5-0.5,0.5
				c-0.7,0-1.4,0-2.1,0c-0.4,0-0.5-0.1-0.5-0.5c0-0.9,0-1.8,0-2.6c0-0.4,0.1-0.7,0.5-0.8c0.2-0.1,0.6-0.3,0.7-0.5
				c0.1-0.2,0-0.6,0-0.9c0-0.5,0-1.1,0-1.6c-0.8,0-1.6,0-2.3,0c-0.2,4.9-0.5,9.8-0.7,14.7c2.9,0,5.7,0,8.5,0c0,0,0-0.1,0-0.1
				c0.1-1.3,0.2-2.6,0.3-3.8c0.1-1.9,0.3-3.8,0.4-5.7c0-0.2,0.2-0.4,0.4-0.4c0.2,0,0.4,0,0.6,0c0.5,0,1,0,1.5,0
				c-0.1-1.6-0.2-3.1-0.2-4.6c-0.5,0-1,0-1.6,0c0,0.4,0,0.7,0,1.1c0,0.3-0.1,0.5-0.4,0.5c-0.2,0-0.4-0.2-0.4-0.5
				C18.9,16.5,18.9,16.2,18.9,15.8z M28.2,30.5c-0.2-3.1-0.5-6.2-0.7-9.3c-2.6,0-5.2,0-7.8,0c-0.2,3.1-0.5,6.2-0.7,9.3
				C22,30.5,25.1,30.5,28.2,30.5z M18.9,15c0-0.8,0-1.5,0-2.2c-0.1-0.9-0.6-1.6-1.4-2c-0.1,0-0.2,0-0.3,0c-0.6,0.3-1,0.8-1.2,1.4
				c-0.4,0.9-0.1,1.9-0.2,2.9C16.9,15,17.9,15,18.9,15z M28.9,29.8c0.3-0.4,0.5-0.8,0.8-1.2c0-0.1,0-0.2,0-0.3
				c-0.2-1.7-0.3-3.4-0.5-5.1c-0.1-0.6-0.1-1.3-0.2-2c-0.3,0-0.5,0-0.8,0C28.5,24.1,28.7,26.9,28.9,29.8z M13.5,15
				c0.6,0,1.1,0,1.6,0c0-0.6,0-1.3,0-1.9c0-1,0.4-1.9,1.1-2.6c0,0,0.1-0.1,0.1-0.1c-1.2-0.1-2.5,0.8-2.7,2
				C13.5,13.3,13.5,14.1,13.5,15z M21.2,15c0-0.7,0-1.3,0-2c0-1.4-1.1-2.5-2.4-2.6c-0.1,0-0.2,0-0.4,0c0.6,0.5,1,1.1,1.2,1.8
				c0.1,0.4,0.1,0.9,0.1,1.3c0,0.5,0,1,0,1.5C20.2,15,20.7,15,21.2,15z M29.8,21.3c0,0.1,0,0.1,0,0.2c0.2,2.2,0.5,4.3,0.6,6.5
				c0,0.6,0.4,0.9,0.7,1.4c0,0,0,0,0.1,0c-0.2-2.7-0.4-5.4-0.6-8.1C30.3,21.3,30.1,21.3,29.8,21.3z M13.9,22c0-0.7,0-1.3,0-2
				c0-0.4-0.1-0.6-0.4-0.8c-0.4-0.2-0.3-0.2-0.7,0c-0.3,0.2-0.4,0.4-0.4,0.8c0,0.7,0,1.3,0,2C12.9,22,13.4,22,13.9,22z M22,15.8
				c0.1,1.5,0.2,3.1,0.2,4.6c0.3,0,0.5,0,0.8,0c-0.1-1.6-0.2-3.1-0.3-4.6C22.5,15.8,22.3,15.8,22,15.8z M24.4,15.8
				c-0.3,0-0.5,0-0.8,0c0.1,1.5,0.2,3.1,0.3,4.6c0.2,0,0.5,0,0.7,0C24.5,18.9,24.4,17.4,24.4,15.8z M29.3,30.5c0.6,0,1.1,0,1.6,0
				c-0.3-0.4-0.5-0.8-0.8-1.2C29.9,29.7,29.6,30.1,29.3,30.5z"/>
			<path class="st1" d="M25.9,24.8c0,0.5,0,0.9,0,1.4c0,1.2-0.8,2-2,2c-0.3,0-0.6,0-0.9,0c-1-0.1-1.7-0.9-1.7-1.9c0-1,0-2,0-3.1
				c0-0.3,0.2-0.4,0.4-0.4c0.2,0,0.4,0.2,0.4,0.4c0,1,0,1.9,0,2.9c0,0.9,0.5,1.3,1.3,1.3c0.2,0,0.4,0,0.6,0c0.7,0,1.2-0.5,1.2-1.2
				c0-1,0-1.9,0-2.9c0-0.1,0-0.1,0-0.2c0-0.2,0.2-0.4,0.4-0.4c0.2,0,0.4,0.2,0.4,0.4C25.9,23.7,25.9,24.3,25.9,24.8
				C25.9,24.8,25.9,24.8,25.9,24.8z"/>
		</g>
	</g>
</g>
</svg>
