<?xml version="1.0" encoding="utf-8"?>
<!-- Generator: Adobe Illustrator 23.0.4, SVG Export Plug-In . SVG Version: 6.00 Build 0)  -->
<svg version="1.1" id="Capa_1" xmlns="http://www.w3.org/2000/svg" xmlns:xlink="http://www.w3.org/1999/xlink" x="0px" y="0px"
	 viewBox="0 0 40.9 40.9" style="enable-background:new 0 0 40.9 40.9;" xml:space="preserve">
<style type="text/css">
	.st0{fill:#F06D00;}
	.st1{fill:#FFFFFF;}
</style>
<g>
	<circle class="st0" cx="20.5" cy="20.5" r="20.5"/>
	<g>
		<g>
			<path class="st1" d="M19.3,11.1c0.1,0,0.2,0.1,0.3,0.1c0.2,0.1,0.3,0.3,0.3,0.5c0,0,0,0.1,0,0.1c0,2.4,0,4.8,0,7.2
				c0,0.4-0.2,0.7-0.5,0.8c-0.1,0-0.2,0-0.3,0c-2.4,0-4.8,0-7.2,0c-0.4,0-0.7-0.2-0.8-0.6c0-2.6,0-5.1,0-7.7c0-0.1,0.1-0.2,0.1-0.3
				c0.1-0.2,0.3-0.2,0.4-0.3C14.2,11.1,16.7,11.1,19.3,11.1z M12.5,18.4c2,0,3.9,0,5.9,0c0-2,0-3.9,0-5.9c-2,0-3.9,0-5.9,0
				C12.5,14.5,12.5,16.4,12.5,18.4z"/>
			<path class="st1" d="M21.7,29.9c-0.3-0.1-0.5-0.2-0.6-0.5c-0.1-0.3,0-0.6,0.2-0.8c0.7-0.7,1.4-1.4,2.1-2.1
				c1.7-1.7,3.4-3.4,5.2-5.2c0.4-0.4,1.1-0.3,1.3,0.3c0,0,0,0,0,0c0,2.5,0,5.1,0,7.6c-0.1,0.3-0.3,0.5-0.6,0.6
				C26.7,29.9,24.2,29.9,21.7,29.9z M28.4,23.6c-1.6,1.6-3.2,3.2-4.8,4.8c1.6,0,3.2,0,4.8,0C28.4,26.8,28.4,25.2,28.4,23.6z"/>
			<path class="st1" d="M29.9,15.8c-0.1,0.3-0.1,0.6-0.2,0.8c-0.6,1.8-1.8,2.9-3.7,3.2c-2.3,0.4-4.6-1.3-4.9-3.7
				c-0.4-2.5,1.3-4.7,3.8-5.1c0.1,0,0.2,0,0.2,0c0.2,0,0.4,0,0.7,0c0,0,0.1,0,0.1,0c1.8,0.2,3.4,1.5,3.8,3.3
				c0.1,0.3,0.1,0.5,0.1,0.8C29.9,15.4,29.9,15.6,29.9,15.8z M25.5,18.4c1.6,0,2.9-1.3,2.9-2.9c0-1.6-1.3-3-2.9-3
				c-1.7,0-2.9,1.3-2.9,2.8C22.5,17.1,23.8,18.4,25.5,18.4z"/>
			<path class="st1" d="M11.1,21.6c0,0,0-0.1,0.1-0.1c0.2-0.5,0.8-0.6,1.2-0.2c1,1,2,2,3,3c0,0,0.1,0.1,0.1,0.1c0,0,0.1-0.1,0.1-0.1
				c1-1,2-2,3-3c0.3-0.3,0.8-0.3,1.1,0c0.3,0.3,0.3,0.8,0,1.1c-1,1-2,2-3,3c0,0-0.1,0.1-0.1,0.1c0,0.1,0.1,0.1,0.1,0.1c1,1,2,2,3,3
				c0.3,0.3,0.3,0.7,0,1c-0.1,0.1-0.2,0.2-0.4,0.2c-0.1,0-0.2,0-0.3,0c-0.2-0.1-0.4-0.2-0.5-0.4c-1-1-1.9-1.9-2.9-2.9
				c0,0-0.1-0.1-0.1-0.1c0,0-0.1,0.1-0.1,0.1c-1,1-1.9,1.9-2.9,2.9c-0.2,0.2-0.3,0.3-0.5,0.4c-0.1,0-0.2,0-0.3,0
				c-0.3-0.1-0.5-0.3-0.6-0.6c0-0.1,0-0.2,0-0.3c0.1-0.2,0.2-0.4,0.4-0.5c1-1,1.9-1.9,2.9-2.9c0,0,0.1-0.1,0.1-0.1
				c0,0-0.1-0.1-0.1-0.1c-0.9-0.9-1.9-1.9-2.8-2.8c-0.2-0.2-0.3-0.3-0.4-0.6C11.1,21.8,11.1,21.7,11.1,21.6z"/>
		</g>
	</g>
</g>
</svg>
