<?xml version="1.0" encoding="utf-8"?>
<!-- Generator: Adobe Illustrator 23.0.4, SVG Export Plug-In . SVG Version: 6.00 Build 0)  -->
<svg version="1.1" id="Capa_1" xmlns="http://www.w3.org/2000/svg" xmlns:xlink="http://www.w3.org/1999/xlink" x="0px" y="0px"
	 viewBox="0 0 170 170" style="enable-background:new 0 0 170 170;" xml:space="preserve">
<style type="text/css">
	.st0{fill:#F06D00;}
</style>
<g>
	<path class="st0" d="M80.7,110.6c-1.4-1-1.8-2.3-1.5-4c2.3-14.5,4.4-29,6.7-43.4c0.2-1.3,1.1-2.5,1.6-3.7c0.4,0,0.9,0,1.3,0
		c1.8,0.9,2.2,2.2,1.9,4.2C88.4,78,86.3,92.5,84,106.9c-0.2,1.3-1.3,2.5-2,3.7C81.6,110.6,81.2,110.6,80.7,110.6z"/>
	<path class="st0" d="M53,84.1c5-5.3,10-10.7,15-16c1.1-1.2,2.4-1.7,3.7-0.5c1.4,1.3,0.8,2.6-0.3,3.9c-4.2,4.4-8.4,8.9-12.7,13.5
		c3.5,3.8,6.9,7.4,10.4,11.1c0.8,0.9,1.7,1.8,2.5,2.6c1.2,1.2,1.5,2.5,0.1,3.7c-1.3,1.2-2.5,0.7-3.6-0.4c-3.2-3.3-6.3-6.7-9.5-10.1
		c-1.9-2-3.8-4-5.7-6.1C53,85.3,53,84.7,53,84.1z"/>
	<path class="st0" d="M117,85.9c-5,5.3-10,10.7-15,16c-1.1,1.2-2.5,1.8-3.9,0.4c-1.3-1.3-0.7-2.5,0.4-3.7c4.2-4.4,8.4-8.9,12.7-13.5
		c-0.6-0.7-1.1-1.3-1.7-1.9c-3.6-3.9-7.3-7.8-11-11.6c-1.2-1.2-1.8-2.5-0.3-3.9c1.3-1.2,2.6-0.7,3.7,0.5c5,5.3,10,10.7,15,16
		C117,84.7,117,85.3,117,85.9z"/>
</g>
</svg>
