<?xml version="1.0" encoding="utf-8"?>
<!-- Generator: Adobe Illustrator 23.0.4, SVG Export Plug-In . SVG Version: 6.00 Build 0)  -->
<svg version="1.1" id="Capa_1" xmlns="http://www.w3.org/2000/svg" xmlns:xlink="http://www.w3.org/1999/xlink" x="0px" y="0px"
	 viewBox="0 0 170 170" style="enable-background:new 0 0 170 170;" xml:space="preserve">
<style type="text/css">
	.st0{fill:#F06D00;}
</style>
<g>
	<path class="st0" d="M66.9,81.8c0-0.4,0-0.7,0-1.1c0-9.3,0-18.6,0-28c0-2,0.4-2.4,2.4-2.4c10.5,0,21.1,0,31.6,0
		c1.7,0,2.2,0.5,2.2,2.2c0,9.4,0,18.8,0,28.2c0,0.3,0,0.6,0,1c0.4,0,0.7,0,1,0c2.3,0,4.5,0,6.8,0c0.8,0,1.6,0.1,1.9,1
		c0.4,0.8,0.1,1.4-0.4,2.1c-8.6,11.3-17.2,22.5-25.8,33.8c-1,1.3-2.1,1.3-3.1,0c-8.6-11.3-17.2-22.5-25.9-33.8
		c-0.5-0.6-0.8-1.3-0.4-2.1c0.4-0.8,1.1-1,1.9-1c2.3,0,4.6,0,6.9,0C66.2,81.8,66.5,81.8,66.9,81.8z M62,85.1
		c7.7,10.1,15.4,20.1,23,30.1c7.7-10,15.3-20,23-30.1c-2.2,0-4.1,0-6.1,0c-1.5,0-2.1-0.6-2.1-2.1c0-9.5,0-19,0-28.5
		c0-0.3,0-0.5,0-0.8c-9.9,0-19.8,0-29.7,0c0,0.4,0,0.7,0,1c0,9.4,0,18.8,0,28.3c0,1.6-0.6,2.1-2.1,2.2C66.1,85.1,64.1,85.1,62,85.1z
		"/>
	<path class="st0" d="M83.3,71.8c0-0.6,0-1.1,0-1.6c0-1.1,0.7-1.8,1.7-1.8c0.9,0,1.6,0.7,1.7,1.8c0,0.5,0,1,0,1.5c1.7,0,3.3,0,4.9,0
		c1.1,0,1.7,0.7,1.7,1.7c0,1-0.7,1.6-1.8,1.6c-3.1,0-6.1,0-9.2,0c-1.6,0-2.1,0.5-2.1,2.1c0,0.8,0,1.5,0,2.3c0,1.6,0.6,2.2,2.2,2.2
		c1.9,0,3.8,0,5.6,0c3.3,0,5.3,2,5.3,5.3c0,1,0,2.1,0,3.1c-0.1,2.6-2.2,4.7-4.8,4.7c-0.5,0-1.1,0-1.7,0c0,0.5,0,1,0,1.5
		c0,1.1-0.7,1.8-1.6,1.8c-1,0-1.6-0.7-1.7-1.8c0-0.5,0-0.9,0-1.5c-1.6,0-3.2,0-4.8,0c-1,0-1.7-0.7-1.7-1.6c0-1,0.6-1.7,1.8-1.7
		c2.2,0,4.4,0,6.6,0c1,0,2,0,2.9,0c1.2,0,1.8-0.7,1.8-1.8c0-1,0-2,0-2.9c0-1.2-0.7-1.8-1.8-1.8c-2.1,0-4.1,0-6.2,0
		c-3,0-5.1-2.1-5.2-5.1c0-1.1,0-2.2,0-3.3c0.1-2.6,2.1-4.6,4.7-4.7C82.1,71.8,82.7,71.8,83.3,71.8z"/>
	<path class="st0" d="M85,58.6c-3.2,0-6.4,0-9.6,0c-0.5,0-1.2-0.2-1.4-0.5c-0.3-0.4-0.4-1.1-0.4-1.6c0-0.6,0.6-1,1.2-1.1
		c0.2,0,0.4,0,0.5,0c6.4,0,12.9,0,19.3,0c1.4,0,2.2,1,1.8,2.2c-0.3,0.7-0.8,1.1-1.8,1.1C91.4,58.6,88.2,58.6,85,58.6z"/>
</g>
</svg>
