<?xml version="1.0" encoding="utf-8"?>
<!-- Generator: Adobe Illustrator 23.0.4, SVG Export Plug-In . SVG Version: 6.00 Build 0)  -->
<svg version="1.1" id="Capa_1" xmlns="http://www.w3.org/2000/svg" xmlns:xlink="http://www.w3.org/1999/xlink" x="0px" y="0px"
	 viewBox="0 0 170 170" style="enable-background:new 0 0 170 170;" xml:space="preserve">
<style type="text/css">
	.st0{fill:#F06D00;}
</style>
<g>
	<path class="st0" d="M112.8,51.2c0.5,0.1,1,0.1,1.4,0.3c2.4,0.7,4,2.8,4.2,5.3c0,0.4,0,0.7,0,1.1c0,8.8,0,17.6,0,26.4
		c0,0.1,0,0.2,0,0.4c-0.8,0-1.6,0-2.4,0c0-0.1,0-0.2,0-0.4c0-9,0-17.9,0-26.9c0-1.4-0.5-2.5-1.8-3.3c-0.5-0.3-1-0.5-1.6-0.5
		c-0.1,0-0.2,0-0.4,0c-17.4,0-34.8,0-52.1,0c-1.4,0-2.5,0.6-3.3,1.8c-0.3,0.5-0.5,1-0.5,1.5c0,0.2,0,0.3,0,0.5c0,17.4,0,34.7,0,52.1
		c0,0.8,0.2,1.6,0.6,2.2c0.7,1,1.6,1.5,2.7,1.6c0.2,0,0.4,0,0.6,0c10.1,0,20.1,0,30.2,0c0.1,0,0.3,0,0.4,0c0,0.8,0,1.6,0,2.4
		c-0.1,0-0.2,0-0.3,0c-10.2,0-20.4,0-30.5,0c-3,0-5.3-1.9-6-4.7c-0.1-0.3-0.1-0.5-0.1-0.8c0-17.9,0-35.9,0-53.8c0,0,0-0.1,0-0.1
		c0.4-2.5,1.9-4.1,4.3-4.9c0.4-0.1,0.9-0.2,1.3-0.2C77.3,51.2,95.1,51.2,112.8,51.2z"/>
	<path class="st0" d="M109.2,122.8c-0.5-0.1-0.9-0.1-1.4-0.2c-2.8-0.4-5.4-1.3-7.7-2.9c-3.4-2.3-5.7-5.4-7-9.4
		c-0.5-1.7-0.8-3.4-0.9-5.2c-0.1-4.2,1.2-7.9,3.7-11.2c2.9-3.7,6.7-6,11.4-6.7c6.2-0.9,11.6,0.9,15.9,5.5c2.6,2.8,4.1,6.1,4.6,10
		c0.1,0.6,0.1,1.2,0.2,1.8c0,0.5,0,0.9,0,1.4c0,0.1,0,0.2,0,0.3c-0.1,1.4-0.4,2.8-0.8,4.2c-1.2,3.8-3.5,6.9-6.8,9.2
		c-2.3,1.6-4.8,2.6-7.5,3c-0.6,0.1-1.2,0.2-1.8,0.2C110.4,122.8,109.8,122.8,109.2,122.8z M94.6,105.1c0.1,8.6,7.3,15.7,16.3,15.3
		c8.6-0.5,15.1-7.8,14.7-16.2c-0.4-8.4-7.4-15.2-16.2-14.8C100.8,89.8,94.4,97,94.6,105.1z"/>
	<path class="st0" d="M113.7,60.8c0,0.8,0,1.6,0,2.3c-18.3,0-36.6,0-54.9,0c0-0.8,0-1.5,0-2.3C77.1,60.8,95.4,60.8,113.7,60.8z"/>
	<path class="st0" d="M71,65.9c0.6,0.6,1.1,1.1,1.7,1.7c-1,1-2,2-3,3c0.5,0.7,0.8,1.5,0.9,2.3c0.5,2.7-1,5.4-3.5,6.5
		c-4.1,1.8-8.6-1.4-8.3-5.9c0.2-3.5,3.4-6,6.8-5.5c0.8,0.1,1.6,0.4,2.3,0.8c0.2,0.1,0.3,0.1,0.4-0.1C69.1,67.8,70.1,66.8,71,65.9z
		 M66.3,70.7c-1.1-0.7-3-0.6-4.3,0.9c-1.2,1.4-1.1,3.5,0.2,4.8c1.3,1.3,3.4,1.4,4.8,0.3c1.5-1.3,1.6-3.3,0.9-4.3
		c-0.8,0.8-1.6,1.6-2.3,2.3c-0.6-0.6-1.1-1.1-1.7-1.6C64.7,72.3,65.5,71.5,66.3,70.7z"/>
	<path class="st0" d="M71,80.2c0.6,0.6,1.1,1.1,1.7,1.7c-1,1-2,2-2.9,2.9c0.3,0.8,0.6,1.4,0.8,2.1c0.7,2.9-0.8,5.7-3.5,6.8
		c-3.6,1.5-7.8-0.9-8.2-4.8c-0.4-3.2,1.8-6.1,5-6.7c1.4-0.2,2.8,0,4,0.8c0.2,0.1,0.3,0.1,0.5-0.1C69.2,82.1,70.1,81.2,71,80.2z
		 M66.3,85c-1.4-0.7-3.4-0.4-4.5,1.2c-1,1.5-0.7,3.6,0.6,4.7c1.4,1.2,3.5,1.1,4.8-0.2c1.3-1.2,1.3-3.1,0.6-4.1
		c-0.8,0.8-1.5,1.6-2.3,2.3c-0.6-0.6-1.1-1.1-1.7-1.7C64.7,86.5,65.5,85.8,66.3,85z"/>
	<path class="st0" d="M68,97.5c1-1,2-2,3-3c0.6,0.6,1.1,1.1,1.7,1.7c-1,1-2,2-3,3c2,3.2,0.7,6.7-1.6,8.3c-2.4,1.6-5.7,1.3-7.7-0.8
		c-2-2.2-2.2-5.4-0.4-7.8C61.7,96.7,65,95.7,68,97.5z M65.7,103.3c-0.6-0.6-1.1-1.2-1.7-1.7c0.4-0.4,0.8-0.7,1.1-1.1
		c0.4-0.4,0.8-0.8,1.2-1.2c-1.5-0.8-3.5-0.3-4.5,1.2c-1,1.5-0.7,3.6,0.7,4.7c1.4,1.2,3.5,1.1,4.8-0.2c1.2-1.2,1.3-3.1,0.6-4
		C67.1,101.8,66.4,102.6,65.7,103.3z"/>
	<path class="st0" d="M94.6,84.6c0,0.8,0,1.6,0,2.3c-6.8,0-13.5,0-20.3,0c0-0.8,0-1.6,0-2.3C81,84.6,87.8,84.6,94.6,84.6z"/>
	<path class="st0" d="M94.6,70.3c0,0.8,0,1.5,0,2.3c-6.7,0-13.5,0-20.3,0c0-0.8,0-1.5,0-2.3C81,70.3,87.8,70.3,94.6,70.3z"/>
	<path class="st0" d="M85,77.4c0-0.8,0-1.6,0-2.3c5.6,0,11.1,0,16.7,0c0,0.8,0,1.5,0,2.3C96.2,77.4,90.6,77.4,85,77.4z"/>
	<path class="st0" d="M74.3,101.3c0-0.8,0-1.6,0-2.3c5.2,0,10.3,0,15.5,0c0,0.8,0,1.6,0,2.3C84.6,101.3,79.5,101.3,74.3,101.3z"/>
	<path class="st0" d="M108.9,70.3c0,0.8,0,1.5,0,2.3c-4,0-7.9,0-11.9,0c0-0.8,0-1.5,0-2.3C100.9,70.3,104.9,70.3,108.9,70.3z"/>
	<path class="st0" d="M85,89.4c3.2,0,6.3,0,9.5,0c0,0.8,0,1.6,0,2.4c-3.2,0-6.3,0-9.5,0C85,91,85,90.2,85,89.4z"/>
	<path class="st0" d="M82.6,89.4c0,0.8,0,1.6,0,2.4c-2.8,0-5.5,0-8.3,0c0-0.8,0-1.6,0-2.4C77.1,89.4,79.8,89.4,82.6,89.4z"/>
	<path class="st0" d="M74.3,103.7c2.8,0,5.5,0,8.3,0c0,0.8,0,1.6,0,2.4c-2.8,0-5.5,0-8.3,0C74.3,105.3,74.3,104.5,74.3,103.7z"/>
	<path class="st0" d="M74.3,75.1c2.8,0,5.5,0,8.3,0c0,0.8,0,1.6,0,2.3c-2.8,0-5.5,0-8.3,0C74.3,76.7,74.3,75.9,74.3,75.1z"/>
	<path class="st0" d="M101.7,84.6c0,0.8,0,1.5,0,2.3c-1.6,0-3.1,0-4.7,0c0-0.8,0-1.5,0-2.3C98.6,84.6,100.1,84.6,101.7,84.6z"/>
	<path class="st0" d="M89.8,106.1c-1.6,0-3.2,0-4.7,0c0-0.8,0-1.6,0-2.4c1.6,0,3.1,0,4.7,0C89.8,104.5,89.8,105.3,89.8,106.1z"/>
	<path class="st0" d="M61.2,58.3c-0.8,0-1.6,0-2.4,0c0-0.8,0-1.6,0-2.3c0.8,0,1.6,0,2.4,0C61.2,56.8,61.2,57.6,61.2,58.3z"/>
	<path class="st0" d="M65.9,56c0,0.8,0,1.6,0,2.3c-0.8,0-1.6,0-2.4,0c0-0.8,0-1.5,0-2.3C64.3,56,65.1,56,65.9,56z"/>
	<path class="st0" d="M68.3,58.3c0-0.8,0-1.5,0-2.3c0.8,0,1.6,0,2.4,0c0,0.8,0,1.5,0,2.3C69.9,58.3,69.1,58.3,68.3,58.3z"/>
	<path class="st0" d="M100.7,106.6c0.7-0.4,1.4-0.7,2.1-1.1c0.5,1.1,1.1,2.2,1.6,3.2c4.4-4.4,8.8-8.7,13.1-13.1
		c0.6,0.6,1.1,1.1,1.7,1.7c0,0-0.1,0.1-0.2,0.2c-4.7,4.7-9.3,9.3-14,14c-0.5,0.5-1,0.6-1.5,0.3c-0.2-0.1-0.4-0.3-0.5-0.4
		C102.3,109.9,101.5,108.3,100.7,106.6z"/>
</g>
</svg>
